<svg width="67" height="15" viewBox="0 0 67 15" fill="none" xmlns="http://www.w3.org/2000/svg">
<path d="M1 6.5C0.447715 6.5 0 6.94772 0 7.5C0 8.05228 0.447715 8.5 1 8.5V6.5ZM66.7071 8.20711C67.0976 7.81658 67.0976 7.18342 66.7071 6.79289L60.3431 0.428932C59.9526 0.0384078 59.3195 0.0384078 58.9289 0.428932C58.5384 0.819457 58.5384 1.45262 58.9289 1.84315L64.5858 7.5L58.9289 13.1569C58.5384 13.5474 58.5384 14.1805 58.9289 14.5711C59.3195 14.9616 59.9526 14.9616 60.3431 14.5711L66.7071 8.20711ZM1 8.5H66V6.5H1V8.5Z" fill="#008A7E"/>
</svg>
