<svg width="25" height="24" viewBox="0 0 25 24" fill="none" xmlns="http://www.w3.org/2000/svg">
<g clip-path="url(#clip0_28_580)">
<path d="M3.31934 16.0275H21.6859V17.4338H3.31934V16.0275Z" fill="#008A7E"/>
<path d="M3.31934 13.215H9.64048V14.6213H3.31934V13.215Z" fill="#008A7E"/>
<path d="M3.31934 10.4025H9.64048V11.8088H3.31934V10.4025Z" fill="#008A7E"/>
<path d="M17.7182 9.02062C17.718 9.02062 17.7177 9.02062 17.7175 9.02062C17.1961 9.02034 16.6948 8.81048 16.3765 8.45929L15.3345 9.40359C15.7095 9.8174 16.1981 10.1184 16.7423 10.283V11.2426H18.1485V10.3915C19.0948 10.2344 19.8441 9.56779 20.0009 8.69123C20.1367 7.93279 19.7942 6.94241 18.426 6.43738C17.852 6.22551 17.3126 5.99713 17.0618 5.88862C16.9305 5.83181 16.8471 5.69751 16.8618 5.5552C16.8624 5.55004 16.9404 5.23973 17.264 5.14256C18.0059 4.91981 18.6959 5.47138 18.7028 5.47692L18.6985 5.4734L19.6034 4.39696C19.5685 4.36757 18.9861 3.88724 18.1471 3.7312V2.86682H16.7433V3.83474C16.0539 4.0844 15.571 4.6514 15.4717 5.34037C15.4682 5.36474 15.4652 5.38912 15.4627 5.41345C15.3852 6.16284 15.8215 6.87145 16.5113 7.1744C16.8313 7.31493 17.3928 7.55498 17.939 7.75659C18.1151 7.8216 18.6166 7.99527 18.6166 8.44345C18.6167 8.73177 18.216 9.02062 17.7182 9.02062Z" fill="#008A7E"/>
<path d="M17.4453 0C15.3195 0 13.4103 0.945187 12.1159 2.43731H0.5V20.2903H5.15516V24L12.6642 20.2903H24.5V7.05469C24.5 3.16472 21.3353 0 17.4453 0ZM17.4453 1.40625C20.5599 1.40625 23.0938 3.94012 23.0938 7.05469C23.0938 10.1693 20.5599 12.7031 17.4453 12.7031C14.3307 12.7031 11.7969 10.1693 11.7969 7.05469C11.7969 3.94012 14.3307 1.40625 17.4453 1.40625ZM23.0938 18.884H12.3358L6.56141 21.7368V18.884H1.90625V3.84356H11.1647C10.67 4.80727 10.3906 5.89894 10.3906 7.05469C10.3906 10.9447 13.5553 14.1094 17.4453 14.1094C19.7533 14.1094 21.8059 12.9953 23.0938 11.2767V18.884Z" fill="#008A7E"/>
</g>
<defs>
<clipPath id="clip0_28_580">
<rect width="24" height="24" fill="white" transform="translate(0.5)"/>
</clipPath>
</defs>
</svg>
