<svg width="120" height="120" viewBox="0 0 120 120" fill="none" xmlns="http://www.w3.org/2000/svg">
<path d="M55.3482 69.0727H37.1846C36.2785 69.0727 35.544 69.8072 35.544 70.7133V77.7307L30.4618 77.8946C30.1921 77.7021 29.8529 77.4563 29.4831 77.1882C26.3345 74.9058 24.886 73.916 24.0664 73.6967L19.696 72.5255C16.9827 71.7994 14.188 73.4143 13.4617 76.1248L10.6759 86.5212C10.3618 87.6938 10.3527 88.8769 10.5967 89.9881L8.91643 96.8494L2.64831 109.047C1.42276 111.425 2.36049 114.357 4.7387 115.583C5.43643 115.943 6.19346 116.125 6.95635 116.125C7.45323 116.125 7.95268 116.048 8.43971 115.892C9.6744 115.497 10.6813 114.645 11.2759 113.491L17.8018 100.792C17.975 100.456 18.1098 100.092 18.201 99.7144L18.5075 98.4631L20.555 101.446L22.7206 112.875C23.1566 115.205 25.1992 116.836 27.4881 116.835C27.7831 116.835 28.0827 116.808 28.3829 116.752C31.0126 116.259 32.7517 113.719 32.2585 111.086L29.9239 98.7645C29.81 98.0569 29.5466 97.3971 29.1381 96.799L24.8284 90.5206L26.146 85.6036L26.698 85.976C27.5305 86.5376 28.5369 86.798 29.5344 86.7117L35.544 86.5179V88.8778C35.544 89.7839 36.2785 90.5185 37.1846 90.5185H55.3482C56.2543 90.5185 56.9888 89.7839 56.9888 88.8778V70.7133C56.9888 69.8072 56.2546 69.0727 55.3482 69.0727ZM45.2945 72.3539H47.2384V75.1385H45.2945V72.3539ZM14.8841 99.2911L8.35815 111.99C8.1662 112.363 7.83995 112.639 7.44034 112.767C7.04026 112.894 6.61487 112.859 6.24198 112.667C5.47182 112.27 5.16831 111.32 5.56581 110.548L11.9232 98.1774C11.9821 98.0632 12.0271 97.9425 12.0575 97.8178L12.9915 94.0043C13.7952 94.696 14.7613 95.2231 15.8502 95.5189L15.0128 98.9384C14.9816 99.0671 14.9385 99.1852 14.8841 99.2911ZM29.3795 83.4333C29.3422 83.4345 29.3052 83.4371 29.2679 83.4406C29.0853 83.4596 28.8097 83.4417 28.5334 83.2557L26.0748 81.5963C25.6349 81.2991 25.0787 81.2337 24.5828 81.4193C24.0859 81.605 23.7095 82.0193 23.5721 82.5314L21.4635 90.4008C21.3395 90.8642 21.4243 91.3585 21.6955 91.7536L26.4303 98.6517C26.5639 98.8477 26.6502 99.0645 26.6858 99.2958C26.6889 99.3141 26.6917 99.3321 26.6952 99.3502L29.034 111.693C29.1934 112.544 28.6304 113.367 27.7792 113.526C26.9289 113.684 26.105 113.123 25.9452 112.268L23.7146 100.496C23.6722 100.273 23.5839 100.061 23.4554 99.8731L18.9932 93.3722C18.7719 93.0497 18.4426 92.817 18.065 92.7157L16.7246 92.3569C14.556 91.7757 13.2646 89.539 13.8458 87.3706L16.6316 76.9742C16.8479 76.167 17.5806 75.6333 18.3793 75.6333C18.5338 75.6333 18.6908 75.6532 18.8471 75.6952L23.1685 76.853C23.8276 77.141 26.436 79.032 27.5579 79.845C28.2153 80.3217 28.7347 80.6982 29.0514 80.9119C29.3375 81.105 29.6802 81.2075 30.0221 81.1917L40.0602 80.8681C40.3623 80.8617 40.6391 80.9656 40.8549 81.1683C41.071 81.3713 41.195 81.6462 41.2044 81.9422C41.2234 82.5537 40.7413 83.0672 40.1284 83.0864L29.3795 83.4333ZM53.7076 87.2363H38.8253V86.4113L40.2324 86.3658C42.6519 86.2901 44.559 84.2597 44.4835 81.8396C44.447 80.6672 43.9557 79.5795 43.1007 78.7767C42.2462 77.9738 41.1313 77.547 39.9556 77.5889L38.8255 77.6253V72.3542H42.0135V76.7794C42.0135 77.6855 42.748 78.42 43.6541 78.42H48.8792C49.7853 78.42 50.5199 77.6855 50.5199 76.7794V72.3539H53.7081V87.2363H53.7076ZM19.2013 66.8454C19.2013 70.1595 21.8975 72.8557 25.2116 72.8557C28.5259 72.8557 31.2221 70.1595 31.2221 66.8454C31.2221 63.5314 28.5259 60.8351 25.2116 60.8351C21.8975 60.8351 19.2013 63.5314 19.2013 66.8454ZM27.9406 66.8454C27.9406 68.3501 26.7163 69.5745 25.2114 69.5745C23.7067 69.5745 22.4823 68.3501 22.4823 66.8454C22.4823 65.3407 23.7067 64.1164 25.2114 64.1164C26.7163 64.1164 27.9406 65.3407 27.9406 66.8454ZM116.249 28.6798H62.3328C61.4267 28.6798 60.6922 29.4143 60.6922 30.3204V99.7062C59.2292 100.258 58.1856 101.673 58.1856 103.326V107.019C58.1856 109.151 59.9204 110.886 62.0528 110.886H64.9367C66.9392 114.433 70.7424 116.835 75.0981 116.835C79.4537 116.835 83.2569 114.433 85.2592 110.886H90.0657C92.0682 114.433 95.8714 116.835 100.227 116.835C104.582 116.835 108.386 114.433 110.388 110.886H116.249C117.155 110.886 117.89 110.152 117.89 109.246V30.3204C117.89 29.4141 117.155 28.6798 116.249 28.6798ZM62.0528 107.605C61.7352 107.605 61.4668 107.337 61.4668 107.019V103.326C61.4668 103.009 61.7352 102.74 62.0528 102.74H63.6924C63.5253 103.525 63.4356 104.338 63.4356 105.173C63.4356 106.007 63.5253 106.82 63.6927 107.605H62.0528ZM75.0981 113.554C70.4764 113.554 66.7166 109.794 66.7166 105.173C66.7166 100.551 70.4764 96.7913 75.0981 96.7913C79.7195 96.7913 83.4793 100.551 83.4793 105.173C83.4793 109.794 79.7195 113.554 75.0981 113.554ZM86.5035 107.605C86.6708 106.82 86.7603 106.007 86.7603 105.173C86.7603 104.338 86.6706 103.525 86.5035 102.74H88.8214C88.6543 103.525 88.5646 104.338 88.5646 105.173C88.5646 106.007 88.6543 106.82 88.8217 107.605H86.5035ZM100.227 113.554C95.6056 113.554 91.8458 109.794 91.8458 105.173C91.8458 100.551 95.6056 96.7913 100.227 96.7913C104.848 96.7913 108.608 100.551 108.608 105.173C108.608 109.794 104.848 113.554 100.227 113.554ZM114.609 107.605H111.632C111.8 106.82 111.889 106.007 111.889 105.173C111.889 104.338 111.8 103.525 111.632 102.74H114.609V107.605ZM114.609 99.4592H110.388C108.386 95.9119 104.583 93.51 100.227 93.51C95.8714 93.51 92.0682 95.9119 90.0657 99.4592H85.2594C83.2569 95.9119 79.4537 93.51 75.0981 93.51C70.7422 93.51 66.939 95.9119 64.9365 99.4592H63.9735V31.961H114.609V99.4592ZM100.227 100.133C97.4483 100.133 95.1873 102.394 95.1873 105.173C95.1873 107.952 97.4481 110.212 100.227 110.212C103.006 110.212 105.267 107.952 105.267 105.173C105.267 102.394 103.006 100.133 100.227 100.133ZM100.227 106.931C99.2572 106.931 98.4685 106.142 98.4685 105.173C98.4685 104.203 99.2572 103.414 100.227 103.414C101.197 103.414 101.986 104.203 101.986 105.173C101.986 106.142 101.197 106.931 100.227 106.931ZM75.0981 100.133C72.3193 100.133 70.0583 102.394 70.0583 105.173C70.0583 107.952 72.3191 110.212 75.0981 110.212C77.8771 110.212 80.1378 107.952 80.1378 105.173C80.1378 102.394 77.8768 100.133 75.0981 100.133ZM75.0981 106.931C74.1282 106.931 73.3395 106.142 73.3395 105.173C73.3395 104.203 74.1282 103.414 75.0981 103.414C76.0679 103.414 76.8566 104.203 76.8566 105.173C76.8566 106.142 76.0679 106.931 75.0981 106.931ZM42.151 22.3842V25.4461L50.5749 17.0944L42.151 8.74244V11.8046C42.151 12.7106 41.4165 13.4452 40.5104 13.4452H15.2881C14.3821 13.4452 13.6475 12.7106 13.6475 11.8046C13.6475 10.8985 14.3821 10.1639 15.2881 10.1639H38.8696V4.80588C38.8696 4.14354 39.2678 3.54635 39.8792 3.29158C40.4907 3.03635 41.195 3.1744 41.6654 3.6408L54.0603 15.9296C54.3709 16.2375 54.5457 16.6571 54.5457 17.0946C54.5457 17.5322 54.3709 17.9515 54.0603 18.2597L41.6654 30.5482C41.3518 30.859 40.9344 31.0238 40.5097 31.0238C40.2974 31.0238 40.0831 30.9825 39.8792 30.8974C39.268 30.6427 38.8696 30.0455 38.8696 29.3831V24.0251H15.2881C14.3821 24.0251 13.6475 23.2906 13.6475 22.3845C13.6475 21.4784 14.3821 20.7439 15.2881 20.7439H40.5102C41.4165 20.7436 42.151 21.4781 42.151 22.3842ZM106.322 87.6882V38.7767C106.322 37.8706 107.057 37.136 107.963 37.136C108.869 37.136 109.603 37.8706 109.603 38.7767V87.6882C109.603 88.5942 108.869 89.3288 107.963 89.3288C107.057 89.3288 106.322 88.5942 106.322 87.6882ZM81.4264 87.6882V38.7767C81.4264 37.8706 82.161 37.136 83.0671 37.136C83.9731 37.136 84.7077 37.8706 84.7077 38.7767V87.6882C84.7077 88.5942 83.9731 89.3288 83.0671 89.3288C82.161 89.3288 81.4264 88.5942 81.4264 87.6882ZM93.8741 87.6882V38.7767C93.8741 37.8706 94.6086 37.136 95.5147 37.136C96.4208 37.136 97.1553 37.8706 97.1553 38.7767V87.6882C97.1553 88.5942 96.4208 89.3288 95.5147 89.3288C94.6086 89.3288 93.8741 88.5942 93.8741 87.6882ZM68.9788 87.6882V38.7767C68.9788 37.8706 69.7133 37.136 70.6194 37.136C71.5255 37.136 72.26 37.8706 72.26 38.7767V87.6882C72.26 88.5942 71.5255 89.3288 70.6194 89.3288C69.7133 89.3288 68.9788 88.5942 68.9788 87.6882Z" fill="black"/>
</svg>
