<svg width="120" height="120" viewBox="0 0 120 120" fill="none" xmlns="http://www.w3.org/2000/svg">
<path d="M24.375 91.875H20.625V45H99.375V78.75H95.625V48.75H24.375V91.875Z" fill="black"/>
<path d="M99.375 63.75H20.625V45H99.375V63.75ZM24.375 60H95.625V48.75H24.375V60Z" fill="black"/>
<path d="M20.625 52.5H99.375V56.25H20.625V52.5Z" fill="black"/>
<path d="M91.875 41.25H28.125V26.25H91.875V41.25ZM31.875 37.5H88.125V30H31.875V37.5Z" fill="black"/>
<path d="M1.875 114.375H118.125V118.125H1.875V114.375Z" fill="black"/>
<path d="M43.125 118.125H13.125V88.125H43.125V118.125ZM16.875 114.375H39.375V91.875H16.875V114.375Z" fill="black"/>
<path d="M33.75 108.75H35.625V110.625H33.75V108.75Z" fill="black"/>
<path d="M30 108.75H31.875V110.625H30V108.75Z" fill="black"/>
<path d="M105 118.125C103.517 118.125 102.067 117.685 100.833 116.861C99.5999 116.037 98.6386 114.866 98.0709 113.495C97.5032 112.125 97.3547 110.617 97.6441 109.162C97.9335 107.707 98.6478 106.371 99.6967 105.322C100.746 104.273 102.082 103.559 103.537 103.269C104.992 102.98 106.5 103.128 107.87 103.696C109.241 104.264 110.412 105.225 111.236 106.458C112.06 107.692 112.5 109.142 112.5 110.625C112.5 112.614 111.71 114.522 110.303 115.928C108.897 117.335 106.989 118.125 105 118.125ZM105 106.875C104.258 106.875 103.533 107.095 102.917 107.507C102.3 107.919 101.819 108.505 101.535 109.19C101.252 109.875 101.177 110.629 101.322 111.357C101.467 112.084 101.824 112.752 102.348 113.277C102.873 113.801 103.541 114.158 104.268 114.303C104.996 114.448 105.75 114.373 106.435 114.09C107.12 113.806 107.706 113.325 108.118 112.708C108.53 112.092 108.75 111.367 108.75 110.625C108.75 109.63 108.355 108.677 107.652 107.973C106.948 107.27 105.995 106.875 105 106.875Z" fill="black"/>
<path d="M69.375 118.125C67.8916 118.125 66.4416 117.685 65.2082 116.861C63.9749 116.037 63.0136 114.866 62.4459 113.495C61.8782 112.125 61.7297 110.617 62.0191 109.162C62.3085 107.707 63.0228 106.371 64.0717 105.322C65.1206 104.273 66.457 103.559 67.9118 103.269C69.3667 102.98 70.8747 103.128 72.2451 103.696C73.6156 104.264 74.7869 105.225 75.611 106.458C76.4351 107.692 76.875 109.142 76.875 110.625C76.875 112.614 76.0848 114.522 74.6783 115.928C73.2718 117.335 71.3641 118.125 69.375 118.125ZM69.375 106.875C68.6333 106.875 67.9083 107.095 67.2916 107.507C66.6749 107.919 66.1943 108.505 65.9105 109.19C65.6266 109.875 65.5524 110.629 65.6971 111.357C65.8418 112.084 66.1989 112.752 66.7234 113.277C67.2478 113.801 67.916 114.158 68.6434 114.303C69.3708 114.448 70.1248 114.373 70.8101 114.09C71.4953 113.806 72.081 113.325 72.493 112.708C72.9051 112.092 73.125 111.367 73.125 110.625C73.125 109.63 72.7299 108.677 72.0267 107.973C71.3234 107.27 70.3696 106.875 69.375 106.875Z" fill="black"/>
<path d="M91.875 99.375H61.875V69.375H91.875V99.375ZM65.625 95.625H88.125V73.125H65.625V95.625Z" fill="black"/>
<path d="M82.5 90H84.375V91.875H82.5V90Z" fill="black"/>
<path d="M78.75 90H80.625V91.875H78.75V90Z" fill="black"/>
<path d="M33.75 101.25H22.5V88.125H33.75V101.25ZM26.25 97.5H30V91.875H26.25V97.5Z" fill="black"/>
<path d="M82.5 82.5H71.25V69.375H82.5V82.5ZM75 78.75H78.75V73.125H75V78.75Z" fill="black"/>
<path d="M113.681 97.5H101.25C100.753 97.5 100.276 97.3025 99.9242 96.9508C99.5725 96.5992 99.375 96.1223 99.375 95.625V88.125C99.375 87.6277 99.5725 87.1508 99.9242 86.7992C100.276 86.4475 100.753 86.25 101.25 86.25H110.869C111.25 86.2496 111.623 86.3657 111.937 86.5829C112.251 86.8 112.491 87.1077 112.626 87.465L115.438 94.965C115.545 95.2489 115.581 95.5544 115.544 95.8554C115.507 96.1563 115.397 96.4438 115.224 96.693C115.051 96.9423 114.821 97.1459 114.552 97.2865C114.283 97.427 113.985 97.5003 113.681 97.5ZM103.125 93.75H110.976L109.569 90H103.125V93.75Z" fill="black"/>
<path d="M116.25 112.5H110.625V108.75H112.5V97.8412L107.451 84.375H97.5V99.375H60V108.75H63.75V112.5H56.25V95.625H93.75V80.625H110.049L116.25 97.1588V112.5Z" fill="black"/>
<path d="M75 108.75H99.375V112.5H75V108.75Z" fill="black"/>
<path d="M69.375 112.5C70.4105 112.5 71.25 111.661 71.25 110.625C71.25 109.589 70.4105 108.75 69.375 108.75C68.3395 108.75 67.5 109.589 67.5 110.625C67.5 111.661 68.3395 112.5 69.375 112.5Z" fill="black"/>
<path d="M105 112.5C106.036 112.5 106.875 111.661 106.875 110.625C106.875 109.589 106.036 108.75 105 108.75C103.964 108.75 103.125 109.589 103.125 110.625C103.125 111.661 103.964 112.5 105 112.5Z" fill="black"/>
<path d="M106.875 78.75V29.2838L59.985 5.83879L11.25 29.3025V116.25C11.25 116.747 11.0525 117.224 10.7008 117.576C10.3492 117.927 9.87228 118.125 9.375 118.125C8.87772 118.125 8.40081 117.927 8.04918 117.576C7.69754 117.224 7.5 116.747 7.5 116.25V28.125C7.50032 27.7724 7.60007 27.4271 7.78778 27.1286C7.9755 26.8301 8.24358 26.5906 8.56125 26.4375L59.1862 2.06254C59.4443 1.93844 59.7274 1.8751 60.0137 1.87738C60.3001 1.87965 60.5821 1.94748 60.8381 2.07566L109.588 26.4507C109.899 26.6061 110.161 26.8451 110.344 27.1408C110.527 27.4364 110.624 27.7772 110.625 28.125V78.75H106.875Z" fill="black"/>
</svg>
