<svg width="108" height="20" viewBox="0 0 108 20" fill="none" xmlns="http://www.w3.org/2000/svg">
<path d="M9.71468 0.878115C9.80449 0.601722 10.1955 0.601722 10.2853 0.878115L12.1778 6.70254C12.2179 6.82614 12.3331 6.90983 12.4631 6.90983H18.5873C18.8779 6.90983 18.9987 7.28171 18.7636 7.45254L13.809 11.0522C13.7039 11.1286 13.6599 11.264 13.7001 11.3876L15.5925 17.2121C15.6823 17.4884 15.366 17.7183 15.1309 17.5475L10.1763 13.9478C10.0712 13.8714 9.92881 13.8714 9.82366 13.9478L4.86912 17.5475C4.634 17.7183 4.31766 17.4884 4.40746 17.2121L6.29993 11.3876C6.3401 11.264 6.2961 11.1286 6.19095 11.0522L1.2364 7.45254C1.00129 7.28171 1.12212 6.90983 1.41274 6.90983H7.5369C7.66687 6.90983 7.78205 6.82614 7.82221 6.70254L9.71468 0.878115Z" fill="#FFBB0B"/>
<path d="M31.7147 0.878115C31.8045 0.601722 32.1955 0.601722 32.2853 0.878115L34.1778 6.70254C34.2179 6.82614 34.3331 6.90983 34.4631 6.90983H40.5873C40.8779 6.90983 40.9987 7.28171 40.7636 7.45254L35.809 11.0522C35.7039 11.1286 35.6599 11.264 35.7001 11.3876L37.5925 17.2121C37.6823 17.4884 37.366 17.7183 37.1309 17.5475L32.1763 13.9478C32.0712 13.8714 31.9288 13.8714 31.8237 13.9478L26.8691 17.5475C26.634 17.7183 26.3177 17.4884 26.4075 17.2121L28.2999 11.3876C28.3401 11.264 28.2961 11.1286 28.191 11.0522L23.2364 7.45254C23.0013 7.28171 23.1221 6.90983 23.4127 6.90983H29.5369C29.6669 6.90983 29.7821 6.82614 29.8222 6.70254L31.7147 0.878115Z" fill="#FFBB0B"/>
<path d="M53.7147 0.878115C53.8045 0.601722 54.1955 0.601722 54.2853 0.878115L56.1778 6.70254C56.2179 6.82614 56.3331 6.90983 56.4631 6.90983H62.5873C62.8779 6.90983 62.9987 7.28171 62.7636 7.45254L57.809 11.0522C57.7039 11.1286 57.6599 11.264 57.7001 11.3876L59.5925 17.2121C59.6823 17.4884 59.366 17.7183 59.1309 17.5475L54.1763 13.9478C54.0712 13.8714 53.9288 13.8714 53.8237 13.9478L48.8691 17.5475C48.634 17.7183 48.3177 17.4884 48.4075 17.2121L50.2999 11.3876C50.3401 11.264 50.2961 11.1286 50.191 11.0522L45.2364 7.45254C45.0013 7.28171 45.1221 6.90983 45.4127 6.90983H51.5369C51.6669 6.90983 51.7821 6.82614 51.8222 6.70254L53.7147 0.878115Z" fill="#FFBB0B"/>
<path d="M75.7147 0.878115C75.8045 0.601722 76.1955 0.601722 76.2853 0.878115L78.1778 6.70254C78.2179 6.82614 78.3331 6.90983 78.4631 6.90983H84.5873C84.8779 6.90983 84.9987 7.28171 84.7636 7.45254L79.809 11.0522C79.7039 11.1286 79.6599 11.264 79.7001 11.3876L81.5925 17.2121C81.6823 17.4884 81.366 17.7183 81.1309 17.5475L76.1763 13.9478C76.0712 13.8714 75.9288 13.8714 75.8237 13.9478L70.8691 17.5475C70.634 17.7183 70.3177 17.4884 70.4075 17.2121L72.2999 11.3876C72.3401 11.264 72.2961 11.1286 72.191 11.0522L67.2364 7.45254C67.0013 7.28171 67.1221 6.90983 67.4127 6.90983H73.5369C73.6669 6.90983 73.7821 6.82614 73.8222 6.70254L75.7147 0.878115Z" fill="#FFBB0B"/>
<path d="M97.7147 0.878115C97.8045 0.601722 98.1955 0.601722 98.2853 0.878115L100.178 6.70254C100.218 6.82614 100.333 6.90983 100.463 6.90983H106.587C106.878 6.90983 106.999 7.28171 106.764 7.45254L101.809 11.0522C101.704 11.1286 101.66 11.264 101.7 11.3876L103.593 17.2121C103.682 17.4884 103.366 17.7183 103.131 17.5475L98.1763 13.9478C98.0712 13.8714 97.9288 13.8714 97.8237 13.9478L92.8691 17.5475C92.634 17.7183 92.3177 17.4884 92.4075 17.2121L94.2999 11.3876C94.3401 11.264 94.2961 11.1286 94.191 11.0522L89.2364 7.45254C89.0013 7.28171 89.1221 6.90983 89.4127 6.90983H95.5369C95.6669 6.90983 95.7821 6.82614 95.8222 6.70254L97.7147 0.878115Z" fill="#D9D9D9"/>
</svg>
