<?xml version="1.0" standalone="no"?>
<!DOCTYPE svg PUBLIC "-//W3C//DTD SVG 1.1//EN" "http://www.w3.org/Graphics/SVG/1.1/DTD/svg11.dtd" >
<svg>
<metadata>
Created by FontForge 20090622 at Thu Jun  9 11:01:20 2016
 By deploy user
More Services
</metadata>
<defs>
<font id="KrutiDev010BoldItalic" horiz-adv-x="532" >
  <font-face 
    font-family="Kruti Dev 013"
    font-weight="400"
    font-style="italic"
    font-stretch="normal"
    units-per-em="1000"
    panose-1="0 0 0 0 0 0 0 0 0 0"
    ascent="800"
    descent="-200"
    x-height="213"
    cap-height="516"
    bbox="-483 -248 1004 802"
    underline-thickness="20"
    underline-position="-123"
    unicode-range="U+0020-U+2122"
  />
<missing-glyph horiz-adv-x="802" 
d="M50 0v802h702v-802h-702zM702 50v702h-602v-702h602z" />
    <glyph glyph-name=".notdef" horiz-adv-x="802" 
d="M50 0v802h702v-802h-702zM702 50v702h-602v-702h602z" />
    <glyph glyph-name=".null" horiz-adv-x="0" 
 />
    <glyph glyph-name="nonmarkingreturn" horiz-adv-x="419" 
 />
    <glyph glyph-name="space" unicode=" " horiz-adv-x="419" 
 />
    <glyph glyph-name="exclam" unicode="!" horiz-adv-x="340" 
d="M164 0l16 61h103l-16 -61h-103zM302 176h-85l124 494h101z" />
    <glyph glyph-name="quotedbl" unicode="&#x22;" horiz-adv-x="269" 
d="M309 146l-40 1q-37 0 -54 7q-52 18 -64 70l-1 18l4 34l53 199h-80l11 41h274l-11 -41h-93l132 -190l-27 -101q-48 -38 -104 -38zM278 392l-32 -117l-3 -37q3 -15 14 -26l17 -13l21 -7l10 1l12 4l7 2l8 3l26 15l23 20z" />
    <glyph glyph-name="numbersign" unicode="#" horiz-adv-x="581" 
d="M456 475l-28 -104l30 8l27 3l40 1q41 0 73 -36q16 -26 16 -57q0 -41 -28 -82q-23 -33 -48 -58l-24 -23l-31 -26l-40 1l-28 33l25 19l20 17q40 34 61 98l3 31q0 11 -9 23l-13 10l-17 5l-14 -3l-15 -4q-15 -3 -26 -10l-22 -17l-4 -8l-4 -7l-4 -4l-24 -18l-30 -12l-14 -3
l-15 -1l-15 -2h-10l3 -12l12 -28q3 -13 4 -16t10 -20l15 -30l18 -34l26 -42l16 -27l11 -16l-51 -28h-40l-18 27l-24 42l-30 57l-27 61l-29 72l-24 71l-2 13l-2 7l-1 7l49 22h40l20 -64l6 -9l12 -8l2 -2l4 -2l15 7l11 11l4 8l6 14l2 9l3 10l34 126h-236l11 41h589l-11 -41
h-260z" />
    <glyph glyph-name="dollar" unicode="$" horiz-adv-x="593" 
d="M395 234l-62 -234h-83l62 234h-236l12 43h236l64 239h83l-64 -239h238l-12 -43h-238z" />
    <glyph glyph-name="percent" unicode="%" horiz-adv-x="208" 
d="M72 80l18 68h110l-18 -68h-110zM149 367l18 67h110l-18 -67h-110z" />
    <glyph glyph-name="ampersand" unicode="&#x26;" horiz-adv-x="593" 
d="M76 234l12 43h553l-12 -43h-553z" />
    <glyph glyph-name="quotesingle" unicode="'" horiz-adv-x="411" 
d="M464 475l14 -27q2 -4 3.5 -8.5t4.5 -20.5l1 -31q0 -14 -5 -32q-18 -70 -85 -127.5t-147 -57.5l128 -138l-44 -35h-40l-186 203l45 35h40l25 -26l6 -1l6 2h5l6 2q12 2 18 5l19 8l18 10l18 11l30 25l24 27l4 8l6 11l-29 -11l-25 -3l-40 1q-49 0 -72 30q-12 14 -18 35l-1 14
q0 30 19 58q8 13 30 32l-115 1l11 41h411l-11 -41h-74zM393 422l-4 16q-12 29 -38 36l-16 -6l-15 -10q-13 -10 -18 -20l-10 -23l-3 -26q2 -13 8 -22l10 -12l14 -6l12 4l13 5l12 7l12 9l11 11l15 16z" />
    <glyph glyph-name="parenleft" unicode="(" horiz-adv-x="220" 
d="M92 -94h-85l86 151h107zM152 264l16 58h104l-16 -58h-104z" />
    <glyph glyph-name="parenright" unicode=")" horiz-adv-x="665" 
d="M690 475l-37 -137h-195q-18 0 -30 -6q-23 -4 -44 -34q-5 -8 -13 -31l-3 -30l1 -19q7 -34 52 -61q9 -5 38 -11l10 2l18 3l1 9l10 18q15 27 32 41t38 14l40 1q13 0 18 -5q15 -6 15 -25l-2 -19q-3 -15 -11 -25l-17 -22l-22 -17l-22 -5l-1 -18v-12l-1 -29l1 -25l13 -114h-95
l-3 60l-16 -6l-19 -8l-46 -12q-20 -5 -43 -5h-40q-66 0 -88 52l-4 20l-1 31l-49 4l-34 7q-39 12 -55 38q-8 16 -8 34q0 33 18 65q22 35 56 50q10 4 17.5 5.5t17.5 1.5l40 1q17 0 27 -5q12 -3 22 -14l10 -16l5 -5l-34 -25h-40l-6 6l-4 5l-5 4l-6 3l-3 -1l-3 -2l-2 -2l-12 -15
l-8 -16l-2 -19q0 -12 6 -24q10 -15 40 -29l3 -2l4 -1l24 -8l4 5l5 5l10 11l10 10l10 7l13 8l12 6l9 3l-16 17l-10 16q-5 10 -7 16.5t-7 26.5v22q0 11 4 24q23 81 87 102q11 3 21.5 5t21.5 2l162 1l26 98h-471l11 41h669l-11 -41h-106zM484 107l-7 -1h-5l-40 1h-20l-28 6
l-12 -4l-9 -4q-42 -18 -52 -55l-2 -26q2 -7 12 -20l14 -8l17 -6q18 2 33 7l21 7l15 7l42 21l20 14z" />
    <glyph glyph-name="asterisk" unicode="*" horiz-adv-x="243" 
d="M254 449h-83l81 143h98z" />
    <glyph glyph-name="plus" unicode="+" horiz-adv-x="42" 
d="M-288 -113l15 56h99l-15 -56h-99z" />
    <glyph glyph-name="comma" unicode="," horiz-adv-x="485" 
d="M546 475l-51 -188q-9 -33 -34 -51l-19 -13l-19 -10l-10 -4l-9 -3l-40 1l-30 29q21 0 43 19l18 21l11 22l47 177h-149l-66 -246l179 -229l4 -18l-3 -21q-9 -34 -53 -56l-17 -4l-24 -6h-40l-33 44h43l3 1l11 4l10 7l5 6l3 4l1 4v14q-2 7 -8 13l-6 6l-173 219l69 258h-82
l11 41h487l-11 -41h-68z" />
    <glyph glyph-name="hyphen" unicode="-" horiz-adv-x="208" 
d="M51 0l17 66h110l-17 -66h-110z" />
    <glyph glyph-name="period" unicode="." horiz-adv-x="401" 
d="M497 475l-47 -174q-15 -55 -56 -90q-29 -26 -69 -34l-27 -2l-40 1q-19 0 -27 1t-20 7q-18 7 -32 26q-5 8 -9 16.5t-8 19.5l-2 17q0 17 5 33l48 179h-86l11 41h409l-11 -41h-39zM404 475h-98l-48 -178l-4 -32q0 -38 30 -50q27 3 42 25q13 11 18 26l13 34z" />
    <glyph glyph-name="slash" unicode="/" horiz-adv-x="313" 
d="M423 158l-43 -25q-34 -20 -70.5 -30t-70.5 -10l-40 1q-23 0 -46 6q-41 16 -56 58l-2 20q0 26 18 55q8 14 28 32l13 10l19 13q-30 19 -47 52q-3 8 -4 12q-4 13 -7 24l3 37q12 41 47 71t81 30l40 1q17 0 32 -7q29 -9 41 -41l1 -14q0 -11 -2 -17l-9 -30h-85l9 31l2 11
q0 15 -15 26l-8 -4l-16 -12q-28 -28 -28 -79q0 -11 1 -16t7 -15l10 -19l13 -12l27 5l29 2l40 1l4 -1h5l13 -1l15 -2l11 -38l-67 -3q-32 0 -54.5 -7.5t-40 -24t-27.5 -46.5l-1 -14q0 -12 2.5 -19t10.5 -16l16 -12l20 -6q50 6 126 55l14 11l34 28l40 1l-14 -54q-3 -9 -19 -18z
M375 475l11 41h70l-11 -41h-70z" />
    <glyph glyph-name="zero" unicode="0" horiz-adv-x="429" 
d="M135 357l16 32l17 25l19 22l19 20l22 17q24 18 70 27l28 2l40 1q20 0 38 -6q12 -1 29 -12q12 -6 22 -19l16 -27l7 -37l4 -40l-6 -50q-2 -22 -4 -32.5t-10 -33.5q-7 -27 -14 -48t-12 -32q-27 -70 -67.5 -112.5t-85.5 -54.5q-16 -3 -29 -5t-25 -2h-40q-72 0 -100 50
q-15 27 -15 82q0 26 4 51t16 67q8 30 19 61t22 54zM178 144q0 -49 5.5 -62.5t15.5 -23.5q9 -7 25 -14q16 3 30.5 12t32 28t37.5 60q6 13 19 53l16 48q6 23 10 42t10 61q0 46 -6 63q-10 23 -42 38q-29 -6 -56 -34q-41 -41 -77 -169q-7 -25 -11.5 -50.5t-8.5 -51.5z" />
    <glyph glyph-name="one" unicode="1" horiz-adv-x="429" 
d="M199 0l96 361l-6 -4l-10 -5l-5 -3l-20 -11l-18 -8l-17 -7l-18 -6l-40 1l16 59q30 9 53 24l50 33q28 18 43 34l32 34l40 1h40l-134 -503h-102z" />
    <glyph glyph-name="two" unicode="2" horiz-adv-x="429" 
d="M392 0h-371l7 21l12 21q6 14 23 31l35 35l20 18l21 17l59 41l82 58l55 46q36 36 50 76l3 21l-1 12q-3 31 -29 44q-4 3 -24 8q-21 -3 -44 -15l-14 -10q-33 -27 -46 -74l-40 1l-62 7q12 36 32 61q40 53 103 74q13 3 31.5 6t34.5 3l40 1q16 0 32.5 -3t34.5 -10
q47 -21 56 -72l1 -17q0 -18 -5 -38l-3 -9l-2 -7l-3 -8l-2 -6l-7 -13l-9 -14l-12 -16l-31 -33l-16 -14l-51 -41l-67 -48l-56 -38l-33 -25l-35 -32h246z" />
    <glyph glyph-name="three" unicode="3" horiz-adv-x="429" 
d="M128 141h40v-24q0 -48 32 -67l20 -7q28 0 61 28q37 29 50 74l3 39q0 17 -12 31l-12 12l-14 9l-9 3l-9 2l-12 -2l-13 -3l-40 1l21 54h40l10 -1h-17l15 4l38 16q35 21 49 63l3 30q0 12 -10 26l-15 13l-19 7q-31 -5 -46 -20q-15 -9 -27 -28q-12 -15 -21 -39l-40 1l-59 10
q42 92 128 120q19 6 29.5 7.5t27.5 1.5l40 1q18 0 38 -6q54 -9 73 -61l5 -31v-15q-1 -12 -7 -26l-10 -23q-12 -27 -49 -52l-34 -18q22 -6 34 -17q32 -18 32 -64q0 -75 -52.5 -129t-127.5 -67l-36 -3h-40q-66 0 -97 37q-27 32 -27 75v13l2 15z" />
    <glyph glyph-name="four" unicode="4" horiz-adv-x="429" 
d="M258 120h-217l15 56l315 325h91l-87 -325h68l-15 -56h-68l-32 -120h-102zM318 344l-162 -168h117z" />
    <glyph glyph-name="five" unicode="5" horiz-adv-x="429" 
d="M130 136h40l-1 -13v-10q0 -32 15 -49l16 -14l21 -7l16 4l16 7l16 8l16 12q39 38 54 89q6 21 6 46q0 33 -33 56q-10 5 -30 10q-9 0 -20 -4l-17 -8l-13 -8l-12 -7l-4 -3l-3 -2l-8 -7l-6 -7l-40 1l-56 7l117 257h289l-16 -59h-199l-52 -112l8 2q7 0 9 2l16 3l18 1l40 1
q49 0 79.5 -25.5t39.5 -72.5l1 -15q0 -30 -8 -57t-25.5 -56t-45.5 -55q-62 -59 -147 -59h-40q-65 0 -101 37q-13 17 -22 45l-2 27v14l2 16z" />
    <glyph glyph-name="six" unicode="6" horiz-adv-x="429" 
d="M427 374h-40v13l-1 5v5l-3 15l-5 13q-12 18 -36 24l-12 -3q-9 -2 -12 -5l-12 -6q-22 -11 -45 -41l-16 -21l-10 -15l-13 -26l-4 -9l-2 -4l-1 -3l-4 -8l-2 -8l6 4l7 3l37 12l22 5h15l40 1q27 0 53 -13q49 -25 56 -74l2 -28q0 -23 -6 -44q-9 -35 -19 -51q-23 -45 -60 -77
q-33 -29 -80 -41q-15 -3 -22 -4t-23 -1h-40q-126 0 -126 129q0 44 18 112q10 40 21 69.5t26 56.5q51 98 129 129q15 6 25 8q24 6 50 6l40 1q54 0 86 -32q25 -28 25 -75l-1 -18zM176 144l-2 -29q0 -7 4 -15q3 -23 24 -43l13 -9l15 -5q50 10 86 66q10 18 20 49l4 28l1 17
q0 36 -27 54q-7 5 -26 11q-7 0 -15 -4l-14 -6l-15 -8l-14 -10q-36 -26 -50 -79z" />
    <glyph glyph-name="seven" unicode="7" horiz-adv-x="429" 
d="M165 495h365l-13 -48l-31 -28l-31 -31l-34 -36l-71 -86l-30 -42l-14 -21l-13 -20l-13 -21l-11 -21l-21 -39l-17 -35l-13 -34l-11 -33h-104q4 14 8.5 27.5t14.5 35.5q22 51 44 91t42 68l23.5 34t35.5 47l31 37l30 34l31 32l32 28l-246 1z" />
    <glyph glyph-name="eight" unicode="8" horiz-adv-x="429" 
d="M168 287q-24 14 -24 53v13l4 20l9 26l13 23l18 22q27 33 76 48q35 10 62 10l40 1q35 0 58 -11q48 -17 57 -70l1 -16q0 -37 -18 -67l-21 -29l-31 -23l-36 -16q20 -6 35 -19q6 -6 11.5 -12.5t11.5 -17.5q5 -19 7 -37q0 -92 -78 -152q-38 -27 -95 -38l-38 -3h-40
q-75 0 -105 40q-14 20 -22 51l-1 19q0 18 1 27t7 27q3 9 5 12l9 21l6 9l7 10l16 18q30 29 83 45zM166 118l3 -25q3 -24 25 -39l15 -7l16 -5q33 6 61 28q34 27 46 68q1 4 2.5 14t2.5 18q0 27 -13 44q-18 21 -47 28q-24 0 -61 -27q-18 -15 -36 -45l-10 -26zM248 342
q2 -14 11 -25l14 -14l19 -7q13 2 24 7l21 14q17 12 29 35l8 19l3 20l-1 11q-2 14 -11 26l-14 13l-18 8q-15 -2 -24 -8l-21 -13q-17 -11 -24 -25l-13 -28z" />
    <glyph glyph-name="nine" unicode="9" horiz-adv-x="429" 
d="M129 121h40v-23q0 -27 12 -39l12 -10l18 -6q12 2 18 5l17 7l23 15l19 18l18 25l21 34l5 11l6 12l4 11l5 12l-2 -2l-5 -2l-3 -1l-13 -6l-12 -5l-26 -6l-24 -2l-40 1q-62 0 -93 43q-15 19 -19 53q0 24 1 35.5t7 31.5q19 74 78 121q29 23 60 35.5t65 12.5l40 1l23 -3
q13 0 22 -4l19 -8l18 -12q23 -15 34 -48l7 -27l2 -27l-2 -32q-2 -20 -5.5 -37t-11.5 -45q-15 -54 -29.5 -90t-32.5 -63l-13 -19q-26 -36 -70.5 -66t-105.5 -30h-40q-20 0 -29.5 1.5t-22.5 6.5q-41 12 -54 61l-2 28l1 26zM385 383q0 34 -27 55l-24 11q-16 -3 -29 -10l-17 -10
l-14 -11q-37 -36 -54 -87q-2 -9 -3 -17t-1 -27q0 -28 32 -53q11 -6 24 -9q52 6 88 63q11 17 17.5 35t6.5 36z" />
    <glyph glyph-name="colon" unicode=":" horiz-adv-x="677" 
d="M466 475l-34 -125h81l31 11l30 4l40 1q44 0 77 -49q15 -30 15 -70q0 -18 -6 -39q-13 -46 -32 -81q-21 -43 -48 -74l-12 -14l-15 -15l-40 1l-36 26l24 24l17 21q57 71 64 131l1 22q0 32 -24 52l-21 10l-17 -6l-14 -9l-17 -19q-14 -22 -14 -55q2 -13 11 -25l6 -8l12 -8
l-38 -40h-40q-20 9 -33 44l-3 32q0 15 9 48q3 15 23 41l-52 1l-5 -8l-2 -5q-20 -24 -64 -41l-12 -2l-15 -1h-15l-6 -1h-4l3 -12l12 -28q3 -13 4 -16t10 -20l15 -30l18 -34l26 -42l16 -27l11 -16l-51 -28h-40l-18 27l-24 42l-30 57l-27 61l-29 72l-24 71l-2 13l-2 7l-1 7
l49 22h40l20 -64q5 -8 11 -13l14 -7l10 5l12 7l17 19l11 27l34 126h-246l11 41h675l-11 -41h-336z" />
    <glyph glyph-name="semicolon" unicode=";" horiz-adv-x="544" 
d="M601 475l-127 -475h-93l34 128l-43 -15l-44 -4l-40 1q-77 0 -119 48q-20 23 -28 60l-1 22q0 27 7 54l40 1l7 -4l8 -3l8 1l8 2l15 6l15 9q11 6 25 27l16 36l4 36q0 13 -9 37l-16 32l-141 1l11 41h546l-11 -41h-72zM508 475h-136l7 -20l4 -15l5 -39l-3 -31
q-17 -65 -85 -102l-28 -10l-37 -9q0 -14 2 -18l3 -14q12 -58 71 -71q18 0 32 8l31 15l20 13l17 13l30 31z" />
    <glyph glyph-name="less" unicode="&#x3c;" 
d="M552 475l-41 -151h-180q-21 0 -36 -8q-36 -14 -60 -46q-22 -33 -22 -86v-16q0 -12 7 -29q12 -30 44 -52l12 -8l15 -6q-5 12 -10 35q0 51 23 81q23 34 65 47q8 2 18.5 4t20.5 2l40 1q33 0 66 -27q8 -9 14 -31l1 -16q0 -42 -29 -77q-35 -44 -102 -65q-35 -7 -58 -7l-40 1
q-49 0 -79 13q-34 12 -63 45q-27 33 -36 69l-3 33q0 57 30.5 103t88.5 67q24 9 53 9l137 1l31 114h-332l11 41h552l-11 -41h-127zM407 195l-11 -8l-17 -19q-14 -22 -14 -61q0 -13 9 -28l2 -5l5 -4l7 5l7 6l7 7q23 23 33 57l3 23q0 11 -4 19l-5 8l-8 6z" />
    <glyph glyph-name="equal" unicode="=" horiz-adv-x="564" 
d="M630 475l-127 -475h-40l-52 1l43 162l-230 -118h-40l-19 45l282 129l-24 32l-18 23q-18 24 -32 35l-25 18l-32 -11l-43 -16l-32 -15l-44 -20l-40 1l-21 39l37 17l96 36l55 18q17 6 32 6l40 1q11 0 34 -18q18 -15 37 -40l10 -14l12 -18l49 182h-413l11 41h577l-11 -41h-72
z" />
    <glyph glyph-name="greater" unicode="&#x3e;" horiz-adv-x="628" 
d="M685 475l-127 -475h-93l55 207h-67l-9 -29q-15 -51 -63 -86q-59 -42 -101 -42l38 -29l47 -23l-41 -39h-40l-66 48l-14 13l-12 13l-7 9l-24 1h-33q-30 0 -40 23l-1 12q0 27 21 45l15 9l17 4l40 1q15 0 28 -7t24 -20l4 -6l8 -14l15 4l12 4q31 9 55 35q21 21 28 52l2 15
l-3 10l-4 4l-8 -2l-9 -2l-25 -6l-14 -2l-40 1q-45 0 -74 50q-14 26 -22 49l-1 21q0 46 33 58l15 5l19 2l149 1l23 86h-268l11 41h640l-11 -41h-82zM592 475h-105l-34 -127h-191l-8 -5l-4 -5l-1 -10l2 -11q0 -8 5 -17l12 -22l9 -13l11 -8l2 -2l4 -1l14 1l13 2l27 4l17 2l40 1
q10 0 20 -5q10 -3 23 -13l3 -4l5 -5l72 1z" />
    <glyph glyph-name="question" unicode="?" horiz-adv-x="364" 
d="M461 144l-27 -13q-9 -4 -36 -12q-22 -8 -34 -11q-33 -9 -56 -9l-40 1q-30 0 -49 8q-50 18 -62 59l-2 19q0 14 4 26q3 16 16.5 36t29.5 33l14 11l21 14l-21 10l-14 10q-15 14 -21 32l-2 19l3 22l7 20l13 23l15 20q5 7 14 12l-107 1l11 41h366l-11 -41h-156l-15 -11l-10 -8
q-23 -17 -35 -53l-1 -14v-13q3 -10 13 -23l19 -14l23 -4l86 1l8 -37h-55l-17 -3l-17 -4l-18 -7l-16 -9q-39 -21 -49 -59l-5 -25l1 -11q3 -10 15 -22l19 -12l24 -6q19 3 46 12q11 3 23.5 7.5t30.5 15.5l46 25q16 8 21 17l40 1l-15 -55z" />
    <glyph glyph-name="at" unicode="@" horiz-adv-x="821" 
d="M154 -145h-40l-18 34l693 720h40l28 -25z" />
    <glyph glyph-name="A" unicode="A" horiz-adv-x="436" 
d="M276 -53l157 584h93l-157 -584h-93z" />
    <glyph glyph-name="B" unicode="B" 
d="M554 475l-40 -149h-188q-14 0 -20 -1.5t-17 -6.5q-30 -15 -52 -49q-22 -38 -22 -82q0 -38 25 -69q12 -16 33 -29l39 -15q42 6 77 30q44 32 54 73q5 20 5 36q0 19 -8 31l-6 10l-9 13l44 34h40q6 0 15 -12l14 -32l3 -36q0 -13 -6 -40q-18 -63 -76.5 -105t-138.5 -42l-40 1
q-46 0 -73 13q-66 29 -84 108l-2 27q0 60 32.5 107.5t94.5 68.5q26 9 57 9l129 1l29 106h-336l11 41h534l-11 -41h-107z" />
    <glyph glyph-name="C" unicode="C" horiz-adv-x="270" 
d="M372 130l-30 -13l-30 -9l-30 -2l-40 1q-15 0 -30 3t-24 5q-24 9 -39.5 27.5t-22.5 47.5l-1 18q0 53 31 94q65 88 153 88l40 1l22 -3q16 0 25 -4l5 -2l7 -2l-5 -44h-40l-10 7l-13 5l-7 -1l-6 -1l-7 -2l-28 -12l-18 -11l135 -114h-40l10 14h40l-19 -69zM232 274l-7 -14
l-4 -11l-3 -40q0 -19 13 -33l18 -19l24 -10l19 6l20 10l12 7l15 11zM127 475l11 41h290l-11 -41h-290z" />
    <glyph glyph-name="D" unicode="D" horiz-adv-x="460" 
d="M579 335l-9 1l40 1l-18 -3l-27 -6q-22 -5 -51 -28q-23 -19 -45 -52l-15 -34l-57 -214h-92l32 122q-12 -6 -27 -9l-28 -2l-40 1l-27 1q-7 1 -11 2t-15 6q-47 18 -58 72l-1 19l2 19l2 18q17 57 69 96l36 22q11 7 36 13l18 4l18 1l40 1q14 0 26 -4l23 -8l-12 -42h-40l-11 5
l-12 4l-24 -9l-23 -15q-30 -21 -48 -66l-4 -38q0 -19 10 -33q6 -13 14 -19l21 -10q11 2 22 7l23 14q17 9 34 29q12 12 15 25l67 249h-305l11 41h462l-11 -41h-65l-32 -118l4 1l3 2l31 12l29 5l40 1l15 -3q11 -2 15 -5l-5 -36h-40z" />
    <glyph glyph-name="E" unicode="E" horiz-adv-x="315" 
d="M286 254l-22 -79l-2 -4v-4l-7 -7l-17 -2l-40 1q-10 0 -21 10q-15 18 -24 36l-19 39l-3 27l6 11q5 5 14 9l6 2l10 3l39 1l48 178h-127l11 41h323l-11 -41h-105l-48 -178h176l-11 -43h-176z" />
    <glyph glyph-name="F" unicode="F" horiz-adv-x="376" 
d="M477 163l-27 -17q-67 -43 -143 -43l-40 1q-121 0 -164 120l-11 52l40 1q13 -8 26 -12l31 -6q42 0 84 27q54 34 67 88l3 37q0 29 -29 50l-22 10l-16 -6l-15 -8l-17 -18l-10 -22l-1 -8v-6q0 -21 21 -30l11 -4l19 -3l-12 -42h-63q-8 0 -31 9t-35 32l-4 24q0 39 22 67
q44 58 122 58l40 1q26 0 53 -12q47 -18 59 -76l1 -16q0 -19 -5 -37q-17 -68 -79 -111q-15 -10 -67 -29q-18 -4 -40.5 -7t-39.5 -3l-11 1q2 -16 13 -30l28 -26l29 -16l31 -8q31 3 66 19q45 21 68 41l29 25l35 37l40 1l-21 -79z" />
    <glyph glyph-name="G" unicode="G" horiz-adv-x="628" 
d="M624 475l-28 -104l25 -16q36 -29 36 -85q0 -53 -30 -109q-56 -101 -149 -101l-40 1q-25 0 -40.5 5t-27.5 17l-10 10l-8 12l-15 -14l-16 -12l-14 -8l-13 -6l-27 -9l-27 -2l-40 1q-57 0 -83 47q-6 14 -11 48q0 29 9 64q13 53 62 103.5t110 50.5l40 1q36 0 65 -22l11 -12
l9 -14l23 21q28 21 68 28l28 105h-404l11 41h626l-11 -41h-129zM340 248l-3 23q0 16 -16 35q-9 14 -26 18q-13 -3 -22 -11q-7 -3 -22 -19q-7 -8 -13 -16q-1 -2 -13 -20l-17 -44l-8 -49l3 -38q5 -18 30 -30q9 2 18.5 7t18.5 13q24 19 36 38l16 25l19 36zM559 259v18
q0 24 -13 37q-6 8 -20 12l-21 -10l-21 -16l-11 -11l-10 -13q-33 -44 -35 -60q-3 -3 -4 -14l-1 -24q0 -62 46 -77q26 6 48 36q29 39 41 103z" />
    <glyph glyph-name="H" unicode="H" horiz-adv-x="315" 
d="M307 250l-24 -91q-1 -5 -2 -6l-10 -7l-11 -2l-40 1q-10 0 -25.5 15t-29.5 37l-27 45l-5 27l5 8l10 8l10 5l8 2l60 1l38 140v18q0 5 -6 14l-5 4l-4 4l-10 -4l-9 -5q-18 -9 -25 -37l-2 -14v-15l1 -7l2 -9l-40 1h-50l-2 7l1 6v14l2 13q10 42 46 67q20 13 39 19.5t41 6.5
l40 1q20 0 44.5 -12t29.5 -33l2 -19l-4 -25l-36 -135h164l-12 -43h-164zM373 475l11 41h79l-11 -41h-79z" />
    <glyph glyph-name="I" unicode="I" horiz-adv-x="255" 
d="M387 205l-29 -14l-29 -9l-27 -2l-40 1q-13 0 -26.5 3l-22.5 5q-44 18 -55 72l-1 17q0 15 6 39l42 158h-78l11 41h261l-11 -41h-92l-45 -166l-2 -25v-14q3 -17 14 -31l13 -13l17 -7l6 2l7 2l20 10l22 14q38 31 47 55l40 1l-21 -78z" />
    <glyph glyph-name="J" unicode="J" horiz-adv-x="616" 
d="M673 475l-127 -475h-95l58 217l-261 -166h-40l-19 43l221 133l-61 37l-19 8l-19 12l-2 1l-64 -37l-94 -53h-40l-24 39l92 47l23 11l25 14l11 7l16 10l-17 12l-11 11q-10 13 -16 34l-1 14q0 37 22.5 68t68.5 46q11 3 20 4.5t20 1.5l40 1q22 0 37 -8q38 -13 44 -41l2 -22
q0 -31 -20 -58l-31 -32l-16 -11l-21 -14l34 -24l27 -17l15 -10l13 -8l4 -3l5 -2l58 36l47 174h-107l11 41h274l-11 -41h-72zM367 440q0 11 -7 19l-8 7l-9 5l-10 -4l-9 -6q-27 -18 -27 -58l1 -11q3 -9 15 -23l6 -6l3 1l2 2l3 2q27 18 39 49q3 10 1 23z" />
    <glyph glyph-name="K" unicode="K" horiz-adv-x="628" 
d="M685 475l-127 -475h-93l93 350h-279q-6 0 -11 -4l-6 -9l-1 -13l3 -14l6 -17l4 -9l5 -10l5 -8l4 -7l6 -5l4 -4l6 -4l5 -2l13 3l15 5l28 8l23 3l40 1q27 0 40 -25l5 -26l-3 -30q-15 -63 -97 -109l-29 -15q-28 -11 -49 -11l79 -75l-49 -32h-40l-76 98h-45q-43 0 -61 31
l-1 11q0 19 8 28l12 13l16 9l17 3l40 1q9 0 20 -8l23 -18l10 -12l6 -8l10 2l9 3q7 0 9 2l7 3q77 33 92 84v13q0 6 -4 10l-6 4l-18 -4l-26 -6l-15 -2l-40 1q-48 0 -80 51q-15 25 -22 50l-2 23q0 32 11 42l15 14l19 8l22 3l334 1l23 84h-465l11 41h630l-11 -41h-72z" />
    <glyph glyph-name="L" unicode="L" horiz-adv-x="411" 
d="M444 475l-39 -144q-3 -22 -10 -33l-12 -22q-23 -29 -65 -39q-9 0 -12 -2l-11 -1l-51 1q-10 2 -12 4l40 1l36 -95l18 -35q12 -25 23 -38l10 -17l16 -21l-50 -34h-40q-14 6 -35 51l-74 177l-16 46q-2 11 -5 15l-4 16l-6 16l-4 16l50 28h40l14 -56q3 -15 10 -22l20 -11l10 4
l9 7l10 15l8 21l2 10l2 9l2 7l34 126h-235l11 41h435l-11 -41h-108zM393 260l-24 41h216l-11 -41h-181z" />
    <glyph glyph-name="M" unicode="M" horiz-adv-x="567" 
d="M618 475l-35 -131h-213l-7 -8l-4 -7l-1 -11l1 -12l4 -16l9 -21l10 -18l17 -17l4 -2l44 12l18 5l28 6l17 2l40 1q12 0 20 -6.5t12 -21.5l2 -25q0 -14 -5 -28q-6 -33 -27 -66q-42 -63 -106 -84q-31 -10 -64 -10l-40 1q-40 0 -69 12.5t-61 44.5q-25 24 -42 48l-17 28l-18 32
l-20 42q-3 7 -5 20l49 38h40l3 -20l18 -42q20 -45 45 -80q50 -66 109 -81q27 0 64 31q24 21 40 55l10 29l2 17q0 6 -5 11l-19 -5l-22 -8l-23 -7l-15 -2l-40 1q-47 0 -79 60q-11 22 -22 55l-2 24q0 41 25 54l19 7l23 2l173 1l24 90h-400l11 41h575l-11 -41h-84z" />
    <glyph glyph-name="N" unicode="N" horiz-adv-x="628" 
d="M630 475l-23 -86l17 -11l19 -9q21 -21 21 -53q0 -16 -5 -32q-23 -82 -94 -147q-64 -58 -152 -88q-57 -19 -107 -19l-40 1q-70 0 -99 38q-15 20 -21 47l-1 18q0 54 35 99q18 26 54 51l-13 6l-20 11l-7 6q-28 25 -28 57q0 13 4 24l9 27l16 25l18 19l19 15l-105 1l11 41h630
l-11 -41h-127zM539 475h-202q-8 0 -19 -11l-28 -28l-19 -24l-9 -20l-2 -19q0 -21 19 -40l18 -13l23 -6l12 1l13 2l40 1l8 -39h-40l-3 -1l-4 1h-10l40 1q-41 0 -81.5 -28.5t-53.5 -74.5l-4 -42q6 -36 37 -57l29 -10q26 3 62 18l24 11l22 13l29 18l-17 30l-11 40l-4 44
q0 82 64 124l21 10l22 10zM573 307q0 20 -9 31l-13 8l-14 -8l-11 -10l-16 -22l-10 -26q-6 -23 -6 -46q0 -19 10 -43l2 -5l1 -3l2 -3q29 29 51 76l10 28z" />
    <glyph glyph-name="O" unicode="O" horiz-adv-x="269" 
d="M376 139l-26 -15l-34 -11l-32 -3l-40 1q-62 0 -94 38q-15 19 -23 46l-1 19l4 35q13 50 67 101q47 44 107 44l40 1q7 0 9 -2h10l9 -2l9 -1l16 -4q10 0 14 -2l-4 -52h-40l-9 6l-8 4l-15 5l-15 4q-23 0 -53 -27q-43 -40 -43 -107q0 -34 24 -51q6 -4 25 -11h5l6 2l16 6l19 8
q37 15 60 43l40 1l-16 -59zM127 475l11 41h272l-11 -41h-272z" />
    <glyph glyph-name="P" unicode="P" horiz-adv-x="364" 
d="M492 180l-43 -29l-33 -18l-36 -16q-28 -11 -58 -11l-40 1q-51 0 -74 27q-11 12 -17 35l-1 14q0 25 11 52.5t34 49.5q30 36 69 54l-164 1l11 41h345l-11 -41h-67l-34 -20l-25 -16q-29 -18 -49 -44q-13 -16 -23 -42l-4 -32q0 -14 8 -22l10 -10l14 -5q57 11 116 68l47 46
q14 14 19 27l40 1l-24 -90q-3 -9 -21 -21zM127 475l11 41h370l-11 -41h-370z" />
    <glyph glyph-name="Q" unicode="Q" horiz-adv-x="665" 
d="M519 475l-32 -119l30 11l25 5l40 1q48 0 85 -37q14 -18 18 -41l1 -17q0 -42 -33 -93q-27 -42 -55 -67l-23 -20l-43 -35l-40 1l-34 34q17 8 31 19l24 18q21 17 48 54q32 47 32 93q0 16 -8 27q-6 12 -29 19q-29 -7 -62 -42l-17 -19l-21 -26l-64 -241h-93l44 171l-4 -1
l-13 -4l-13 -3l-14 -2h-12l-40 1q-31 0 -48 7q-41 21 -53 70l-1 16q0 21 5 37l49 183h-72l11 41h671l-11 -41h-279zM426 475h-136l-51 -190q-4 -17 -4.5 -26t-0.5 -14q0 -15 9 -27l12 -10l17 -6q36 5 59 26l25 24l17 26z" />
    <glyph glyph-name="R" unicode="R" horiz-adv-x="315" 
d="M294 322q-20 0 -32 -3.5t-21 -11.5q-8 -5 -14 -17l-9 -23q-3 -12 -4 -20t-1 -27q0 -28 7 -53.5t25 -58.5q5 -11 10 -20.5t13 -18.5q18 -26 30 -31l-44 -32h-40l-35 41q-6 6 -22 35q-37 65 -37 110v16q0 51 22 89q18 40 53 54q10 4 15 5q14 4 27 4l40 1h226l-10 -39h-199z
M127 475l11 41h317l-11 -41h-317z" />
    <glyph glyph-name="S" unicode="S" horiz-adv-x="46" 
d="M-42 516l-162 132l48 41h40l138 -173h-64zM43 516l-111 226l54 26h39l93 -252h-75z" />
    <glyph glyph-name="T" unicode="T" horiz-adv-x="448" 
d="M480 318l3 -4l3 -5l6 -16l6 -24l2 -28l-1 -21q-19 -81 -98 -115q-23 -10 -53 -10l-40 1q-32 0 -61 15q-45 30 -72 105q-8 25 -16 69l-7 49l1 19l52 34h40q-4 -4 -4 -39q0 -55 13 -97t35 -73t51 -41q9 2 17 8l17 13q24 24 34 58l2 22q0 37 -16 70l-16 33q-6 12 -12 15
l40 1h227l-10 -39h-143zM127 475l11 41h448l-11 -41h-448z" />
    <glyph glyph-name="U" unicode="U" horiz-adv-x="304" 
d="M304 301l-21 -80q-1 -5 -2 -6l-2 -5l-1 -3l-1 -4q0 -6 -8 -9l-16 -2l-40 1q-7 0 -18 11l-28 37q-29 47 -26 67q2 12 8 18l16 11l10 3l12 1l40 1h261l-11 -41h-173zM127 475l11 41h308l-11 -41h-308z" />
    <glyph glyph-name="V" unicode="V" 
d="M562 475l-42 -155h-178q-19 0 -36 -7l-35 -21q-28 -20 -43 -63l-5 -41l1 -19q10 -57 59 -86q21 -12 46 -15l32 6q17 4 31 12l37 25l36 34l40 1l36 -25q-38 -42 -90.5 -68.5t-104.5 -26.5l-40 1q-49 0 -80 14q-72 30 -94 115l-2 30q0 38 15 74.5t54 65.5q24 18 50.5 28
t52.5 10l139 1l30 110h-338l11 41h532l-11 -41h-103z" />
    <glyph glyph-name="W" unicode="W" horiz-adv-x="52" 
d="M16 577l-39 1l-29 1q-10 1 -14.5 2t-15.5 6q-42 15 -60 73l-3 32l1 26l39 1h53l-3 -28q0 -29 16 -49l22 -17l25 -9q14 0 34 9q35 14 59 48q14 20 21 45l40 1h52q-19 -62 -74.5 -102t-123.5 -40z" />
    <glyph glyph-name="X" unicode="X" horiz-adv-x="327" 
d="M380 475l-71 -266l-12 -16q-2 -2 -16 -5l-40 1q-13 0 -27 11q-7 5 -15 13.5t-17 19.5q-25 38 -25 60l1 13l5 9l8 6l4 1l6 2h5l5 1l58 1l40 149h-162l11 41h327l-11 -41h-74z" />
    <glyph glyph-name="Y" unicode="Y" horiz-adv-x="425" 
d="M568 296l-35 -15l-33 -22l-12 -9l-10 -11l-11 -11l-11 -13l-23 -29l-14 -23l-40 1l-36 24l6 12l11 15l25 29l10 15q0 8 -9.5 17t-24.5 18l-21 10l-21 7l-27 -10l-26 -17q-7 -6 -12 -12q-11 -13 -17 -21q-21 -27 -21 -67q0 -18 7 -38q12 -35 48 -62l30 -22l44 -24l-37 -42
h-40q-51 0 -111 87q-31 47 -31 80v12q0 55 36.5 103.5t91.5 67.5q30 10 62 10l40 1q18 0 44 -8t44 -23q6 -3 10 -8l7 -7l30 16l26 10l27 8l11 2l13 2l40 1l-12 -47zM127 475l11 41h427l-11 -41h-427z" />
    <glyph glyph-name="Z" unicode="Z" horiz-adv-x="45" 
d="M159 711l-6 3l-5 1l-5 2l-5 1q-10 -2 -18 -7l-16 -10q-20 -12 -33 -52q-2 -9 -3 -17t-1 -27q0 -23 11 -48l8 -19l14 -23l-40 1h-37l-3 3q-8 8 -20 47l-11 55q0 35 5 54q15 58 89 80q4 1 16.5 3.5t25.5 2.5l40 1l28 -3q13 -3 24 -10l-11 -40h-40z" />
    <glyph glyph-name="bracketleft" unicode="[" horiz-adv-x="509" 
d="M572 76l-59 -23l-60 -16l-55 -5l-40 1q-49 0 -70 7q-27 6 -54 29q-63 47 -81 151l-7 40l-6 81l51 24h40l2 -56l4 -6l6 -4l4 -3l4 -2l4 -1l10 4l9 5l13 14l8 19l37 140h-205l11 41h517l-11 -41h-221l-39 -143q-12 -48 -58 -66l-38 -10l-47 -3q3 -34 10 -53l13 -37
q38 -75 129 -89q37 0 95 23q68 27 111 60l40 1l-14 -53zM637 210l-15 -8l-42 -16l-37 -5l-40 1q-25 0 -42 6q-35 16 -47 57l-1 15v11l4 19q9 38 48 71q33 29 77 38l24 2l40 1q12 0 21 -4q15 -3 21 -8l2 -36h-40l-12 4l-14 3l-14 -3q-8 -2 -12 -5l-7 -3l-6 -4
q-25 -16 -36 -54l-3 -29q2 -12 9 -21q3 -6 10 -10l14 -5l20 5l20 8l29 18q14 11 24 24l40 1l-16 -60z" />
    <glyph glyph-name="backslash" unicode="\" horiz-adv-x="448" 
d="M139 0l14 55h98l-14 -55h-98zM464 394q-94 -73 -145 -73l-39 -145h-92l45 168q12 0 34 7.5t70 34.5q128 69 128 159q0 29 -17 52q-20 27 -55 35q-15 0 -41 -10l-46 -21q-23 -11 -51 -34l-40 1l-27 43l34 18l28 14q34 16 66 25t66 9l40 1q30 0 62 -13q60 -27 73 -85l2 -23
q0 -89 -95 -163z" />
    <glyph glyph-name="bracketright" unicode="]" horiz-adv-x="220" 
d="M97 -84h-83l79 141h101z" />
    <glyph glyph-name="asciicircum" unicode="^" horiz-adv-x="231" 
d="M292 461h-101l97 143h83z" />
    <glyph glyph-name="underscore" unicode="_" horiz-adv-x="856" 
d="M597 475l-51 -190l91 37q-3 3 -3 10l2 14q0 10 11 22l6.5 9.5t10.5 11.5l22 15l23 5l40 1q40 0 40 -37q0 -29 -15 -44l-21 -17l-11 -6l-15 -8l50 -97l-34 -9l-23 -8q-58 -19 -71 -68q-3 -12 -3 -34q0 -9 12 -21l12 -8l16 -5l32 10q17 5 35 20l16 13l22 19l40 1l26 -43
l-28 -19l-20 -12q-6 -3 -23 -10q-31 -12 -34 -13l-52 -7l-40 1q-30 0 -53 6q-48 17 -54 51l-3 23v11q9 39 21 57q18 27 49 46q17 10 41 16l21 2l-30 53l-123 -52l-59 -221h-93l45 169l-210 -130h-40l-21 45l264 146l-37 56l-10 16q-8 11 -16 17l-21 19l-33 -12l-43 -17
l-34 -15l-44 -20l-40 1l-20 39l26 12l70 28l80 28l44 10l40 1q14 0 31 -17q24 -20 40 -47l6 -10l6 -8l44 164h-377l11 41h866l-11 -41h-396z" />
    <glyph glyph-name="grave" unicode="`" horiz-adv-x="45" 
d="M-40 -209l-16 -7l-45 -12q-20 -5 -43 -5h-41q-25 0 -44 8q-47 15 -59 52l-4 29q0 33 22.5 69.5t71.5 57.5q26 7 43 7h123l-11 -41h-71q-24 0 -49 -19l-19 -20l-12 -25l-3 -20l1 -11q3 -16 14 -24q6 -8 17 -13l22 -7l14 3l12 4l26 12l15 11h39l16 -39z" />
    <glyph glyph-name="a" unicode="a" horiz-adv-x="42" 
d="M73 628l17 65h109l-17 -65h-109z" />
    <glyph glyph-name="b" unicode="b" horiz-adv-x="485" 
d="M505 475l-35 -131h-209l-6 -6l-2 -3l-1 -3l-2 -11l1 -11l5 -15l10 -19l11 -20l12 -16l4 -3l2 -3l4 -2l23 5l30 9l25 7l21 2l40 1q24 0 34 -22l5 -26q0 -41 -31 -90q-18 -31 -57.5 -60.5t-74.5 -37.5l-22 -3l8 -12l8 -7l16 -19l15 -16l32 -26l24 -17l-38 -43h-40l-22 17
q-14 10 -24 23l-23 26l-15 18l-19 25l-14 17l-6 10h-34l-14 2q-48 6 -61 32q-3 8 -3 19q0 24 9 38l15 16l17 10l20 4l40 1q31 0 62 -40l18 -34l14 4l12 4q63 21 87 96l4 19l2 15l-1 5l-11 -4l-13 -4l-40 -11l-30 -4l-40 1q-37 0 -68 62l-23 56l-2 25q0 20 8 31l15 14l9 6
l10 4l9 3l9 1l174 1l24 90h-285l11 41h491l-11 -41h-113z" />
    <glyph glyph-name="c" unicode="c" horiz-adv-x="485" 
d="M540 475l-127 -475h-93l32 122l-3 -3l-5 -2l-32 -9l-30 -2l-40 1q-15 0 -30 3t-24 5q-24 9 -39.5 27.5t-22.5 47.5l-1 18q0 53 31 94q65 88 153 88l40 1l22 -3q16 0 25 -4l5 -2l7 -2l-5 -44h-40l-10 7l-13 5l-7 -1l-6 -1l-7 -2l-28 -12l-18 -11l107 -90l66 244h-320
l11 41h483l-9 -41h-72zM232 274l-7 -14l-4 -11l-3 -40q0 -19 13 -33l18 -19l24 -10l19 6l20 10l12 7l15 11z" />
    <glyph glyph-name="d" unicode="d" horiz-adv-x="677" 
d="M524 475l-31 -116l8 3l33 11l24 3l40 1q32 0 51 -11q45 -18 55 -70l1 -15q0 -45 -34 -91q-30 -40 -56 -65l-29 -27l-39 -33l-40 1l-34 32l3 1q9 3 16 10l41 38q60 56 72 101q4 18 5 22v15q0 16 -7 27q-3 5 -12 13l-18 8q-15 -3 -25 -10l-26 -17l-9 -7l-8 -8
q-42 -42 -51 -77l-57 -214h-92l32 122q-12 -6 -27 -9l-28 -2l-40 1q-58 0 -89 37q-14 18 -22 45l-1 19l4 36q24 92 122 126q12 4 25.5 7t27.5 3l40 1h16l35 -12l-12 -42h-40l-8 4l-4 3l-6 2l-5 2q-28 -6 -52 -29q-47 -45 -47 -106q0 -19 8 -31q8 -18 36 -26q11 2 22 7l24 14
q41 30 49 54l67 249h-305l11 41h685l-11 -41h-288z" />
    <glyph glyph-name="e" unicode="e" horiz-adv-x="512" 
d="M580 475l-127 -475h-92l67 252h-143l-19 -70q0 -7 -2 -11l-3 -6l-10 -6l-13 -2l-40 1q-9 0 -22 10q-2 2 -10 12t-16 24l-20 39l-3 26l6 13q5 5 14 9l6 2l10 3l43 1l48 178h-127l11 41h528l-11 -41h-75zM488 475h-143l-48 -178h143z" />
    <glyph glyph-name="f" unicode="f" horiz-adv-x="256" 
d="M673 516l-19 22l-18 24q-30 39 -94 88q-49 35 -107 47q-8 0 -40 -13.5t-55 -51.5l-13 -27l-7 -20l-5 -20l-1 -23l1 -19q0 -6 2 -8l87 1l-11 -41h-85l-127 -475h-93l127 475h-88l11 41h91l-2 9l1 25l2 27l3 16q5 28 25 57q63 91 170 91l40 1q34 0 75.5 -15.5t80.5 -43.5
l28 -23l29 -25l28 -29l28 -32l21 -30l22 -29l-40 1h-67z" />
    <glyph glyph-name="g" unicode="g" horiz-adv-x="495" 
d="M542 475l-35 -129h-238q-9 0 -14 -5l-6 -9l-1 -17q2 -12 8 -21l2 -8l4 -7l3 -8l7 -14l3 -4l30 4l24 2l40 1q21 0 31 -1t32.5 -8t38 -17t21.5 -32l2 -18q0 -18 -4 -27q-4 -32 -37 -59l-25 -16l-9 -5l-40 1l-31 29l6 2l10 5l4 3q20 14 29 40l2 19q0 19 -16 31l-21 8l-29 4
q-25 0 -44 -8q-44 -14 -69 -49q-8 -12 -19 -40l-2 -17q0 -56 86 -80l80 -21l22 -1q9 0 11 2l-29 -38h-40q-4 -2 -19 -4q-25 0 -63 12l-46 17q-97 36 -97 105q0 33 15 56q4 11 18 25l25 24l31 24l-14 22l-9 17q-8 17 -12 31t-4 32q0 19 5 28l5 7l15 14l17 8l19 3l211 1l23 86
h-322l11 41h515l-11 -41h-100z" />
    <glyph glyph-name="h" unicode="h" horiz-adv-x="255" 
d="M307 475l-127 -475h-92l127 475h-88l11 41h76q3 3 3 9q0 25 -51 111q-22 38 -52 53l-18 -9l-16 -14q-11 -9 -21 -28l-13 -32l-3 -26l3 -30l6 -25l5 -10l-40 1h-56l-8 16l-4 20l-1 22q0 10 4 23q6 30 22 49q8 19 36 44q22 20 46 30.5t50 10.5l40 1q69 0 125 -109l17 -45
l19 -63l95 1l-11 -41h-84z" />
    <glyph glyph-name="i" unicode="i" horiz-adv-x="485" 
d="M544 475l-127 -475h-93l45 171q-16 -9 -38 -16l-34 -4l-40 1q-63 0 -87 38q-13 17 -19 46l-1 17q0 21 5 37l50 185h-78l11 41h499l-11 -41h-82zM451 475h-155l-52 -192l-4 -29q0 -26 16 -42l13 -13l18 -7q6 1 16.5 4t18.5 7q18 9 33 21l17 14l21 21z" />
    <glyph glyph-name="j" unicode="j" horiz-adv-x="412" 
d="M476 475l-35 -131q-9 -33 -32 -56q-18 -18 -61 -36l-42 -7l-40 1h-19l-16 5l40 1l44 -104l19 -35l26 -39l11 -18l16 -22l-46 -34h-40q-15 8 -42 54l-30 60l-5 11l-27 58l-19 46l-28 84l-10 36l49 30h40l22 -70q0 -18 31 -24l20 6q9 3 16 10q20 13 31 48l34 126h-276
l11 41h449l-11 -41h-80z" />
    <glyph glyph-name="k" unicode="k" horiz-adv-x="255" 
d="M308 475l-127 -475h-93l127 475h-98l11 41h288l-11 -41h-97z" />
    <glyph glyph-name="l" unicode="l" horiz-adv-x="628" 
d="M685 475l-127 -475h-93l69 260h-141l-24 41h176l47 174h-148l-39 -144q-3 -22 -10 -33l-12 -22q-23 -29 -65 -39q-9 0 -12 -2l-11 -1l-51 1q-10 2 -12 4l40 1l36 -95l18 -35q12 -25 23 -38l10 -17l16 -21l-50 -34h-40q-14 6 -35 51l-74 177l-16 46q-2 11 -5 15l-4 16
l-6 16l-4 16l50 28h40l14 -56q3 -15 10 -22l20 -11l10 4l9 7l10 15l8 21l2 10l2 9l2 7l34 126h-235l11 41h650l-11 -41h-82z" />
    <glyph glyph-name="m" unicode="m" horiz-adv-x="581" 
d="M577 475l8 -17l4 -12l7 -35q0 -49 -30 -84q-18 -21 -52 -41q36 -17 48 -52q6 -18 6 -40q0 -85 -72 -139q-53 -38 -116 -38l-40 1q-42 0 -71 19q-45 30 -90 132q-5 16 -13 45t-10 41l-11 60l1 26l52 28h40l4 -41l6 -40q12 -86 44 -151t82 -77q35 5 61 31l20 28q9 16 15 38
l4 42q0 31 -20 51q-18 20 -50 20l-92 1l-7 43h109l29 3q15 3 22 8q15 9 24 24t15 33l2 17l-1 12q-2 16 -10 34l-7 12q-3 8 -11 17l-360 1l11 41h601l-11 -41h-141z" />
    <glyph glyph-name="n" unicode="n" 
d="M560 475l-36 -135h-184q-15 0 -30 -8q-16 -6 -27 -16l-22 -25q-18 -30 -18 -69q0 -63 59 -82l19 -6l26 -4v5l1 4q0 11 2 15q0 13 10 33l14 20q16 19 47 19l40 1q6 0 17 -6q16 -6 19 -30l-1 -20q-3 -15 -13 -29t-20 -21l-10 -7l-14 -8l10 -55l5 -16l5 -13l4 -13l6 -10
l4 -8l6 -11h-106l-13 53l-12 59h40l-8 -2h-7l-40 1q-11 0 -29 1t-41 4q-112 21 -112 118q0 22 8 51.5t32 60.5t59 47q21 9 40 9l148 1l25 92h-336l11 41h542l-11 -41h-109z" />
    <glyph glyph-name="o" unicode="o" horiz-adv-x="485" 
d="M542 475l-127 -475h-93l34 129l-3 -3l-3 -2l-34 -11l-32 -3l-40 1q-62 0 -94 38q-15 19 -23 46l-1 19l4 35q13 50 67 101q47 44 107 44l40 1q7 0 9 -2h10l9 -2l9 -1l16 -4q10 0 14 -2l-4 -52h-40l-9 6l-8 4l-15 5l-15 4q-23 0 -53 -27q-43 -40 -43 -107q0 -34 24 -51
q6 -4 25 -11h5l6 2l16 6l19 8q37 15 60 43l70 261h-332l11 41h517l-11 -41h-92z" />
    <glyph glyph-name="p" unicode="p" horiz-adv-x="581" 
d="M642 475l-127 -475h-93l42 160l-7 -6l-7 -4q-76 -44 -128 -44l-40 1q-51 0 -74 27q-11 12 -17 35l-1 14q0 25 11 52.5t34 49.5q30 36 69 54l-164 1l11 41h345l-11 -41h-67l-34 -20l-25 -16q-29 -18 -49 -44q-13 -16 -23 -42l-4 -32q0 -13 8 -22l11 -10l15 -5q28 3 53 17
q56 29 105 75q15 14 18 24l56 210h-422l11 41h585l-11 -41h-70z" />
    <glyph glyph-name="q" unicode="q" horiz-adv-x="45" 
d="M-58 -203q-39 -21 -85 -27l-32 -2h-41q-24 0 -48.5 5.5t-55.5 22.5l-52 28q-31 18 -45 37l46 43h40l29 -27q55 -50 121 -64q18 2 32 8q46 18 65 40q11 14 16 34l-1 25q0 6 -9 20q0 6 -7 10l-11 6l-16 -6l-19 -10l-19 -16l-8 -6h-41l-30 35l16 11l29 15q19 10 41.5 16
t46.5 6l39 1q24 0 42 -6q13 -7 27 -24.5t14 -47.5q0 -11 -6 -37q-15 -57 -78 -90z" />
    <glyph glyph-name="r" unicode="r" 
d="M585 475l-127 -475h-93l88 332h-147q-18 0 -31 -5q-14 -3 -24.5 -12.5t-19.5 -22.5l-11 -25q-9 -36 -9 -70q0 -24 15 -66q33 -95 69 -95l-44 -36h-40l-11 8l-21 27l-29 46q-5 11 -9 21t-8 24l-8 29q-4 20 -4.5 29t-0.5 15q0 23 2 40t8 36l13 31q4 8 10.5 16t18.5 20
q29 32 74 32l219 1l27 100h-375l11 41h560l-11 -41h-92z" />
    <glyph glyph-name="s" unicode="s" horiz-adv-x="43" 
d="M19 516l-149 214l45 38h40l137 -252h-73z" />
    <glyph glyph-name="t" unicode="t" horiz-adv-x="677" 
d="M730 475l-127 -475h-93l82 309h-115l2 -4l2 -3l5 -22l5 -35l1 -35l-3 -27q-18 -75 -96 -110q-11 -4 -25 -6t-28 -2l-40 1q-38 0 -62 15.5t-47 54.5q-4 7 -10.5 24l-12.5 33q-4 17 -6.5 30t-7.5 46l-5 52q0 19 2 22l51 32h40q-4 -5 -4 -21l4 -56q0 -29 7 -58.5t21 -63.5
q23 -57 64 -69l16 6l16 12q21 21 32 57q5 20 5 51q0 26 -13 59l-15 38q-4 12 -11 17l239 1l34 127h-510l11 41h685l-11 -41h-82z" />
    <glyph glyph-name="u" unicode="u" 
d="M591 475l-127 -475h-93l79 297h-147l-27 -100l-4 -7l-10 -7l-12 -2l-40 1q-6 0 -18 12l-27 39q-11 17 -22 46q-4 15 -3 25q1 3 2 6.5t6 11.5l16 11l10 3l12 1l275 1l37 137h-371l11 41h546l-11 -41h-82z" />
    <glyph glyph-name="v" unicode="v" horiz-adv-x="616" 
d="M673 475l-127 -475h-91l58 219l-7 -1h-4l-40 1l-8 -1l-8 1l2 -3q0 -17 -2 -23l-3 -22q-18 -62 -67 -98q-27 -20 -70 -27l-27 -2l-40 1q-76 0 -134 91q-43 70 -37 103l48 27h40l8 -31q1 -6 2.5 -11.5t5.5 -12.5l15 -37q14 -33 42 -63q16 -16 42 -25l21 9l22 16
q6 6 13.5 14.5t13.5 17.5q12 18 15 52l1 19q0 29 -32 48q-12 6 -32 9l-7 -2l-7 -1q-5 -1 -6 -2l-6 -1l-40 1l-7 37h26q13 3 19 4q54 16 81.5 48.5t27.5 71.5q0 23 -18 37l-18 8q-16 -3 -31 -12l-36 -21l-20 -15l-25 -21l-40 1l-31 30l15 15l40 26q65 40 123 40l40 1
q46 0 75 -38q9 -14 13 -38v-25l-15 -47q-1 -4 -5.5 -10.5t-11.5 -14.5q-12 -14 -24 -23l-30 -18l5 -1l8 -2l10 -5l15 -8l8 -5l9 -4l9 -6l10 -4l12 -5l14 -3l12 2l15 3l11 3l15 5l54 203h-96l11 41h259l-11 -41h-72z" />
    <glyph glyph-name="w" unicode="w" horiz-adv-x="42" 
d="M65 -227h-40q3 14 -4 35l-21 57q-36 75 -94 88l-18 -6l-16 -12l-19 -25q-13 -23 -13 -48q0 -9 6 -21l8 -9l11 -7l8 3l7 3l9 4l9 5h39l17 -41l-3 -1l-12 -5l-34 -9l-33 -3h-41q-45 0 -72 30q-17 22 -17 53q0 37 22 68q37 52 105 66l25 2h39q65 0 113 -52q18 -20 30 -42
q9 -14 25 -56l7 -26l8 -27z" />
    <glyph glyph-name="x" unicode="x" horiz-adv-x="563" 
d="M591 475l-127 -475h-93l127 475h-118l-70 -262q0 -7 -2 -9l-2 -7l-1 -4l-1 -3q-3 -9 -12 -15l-15 -4l-40 1q-13 0 -27 11q-7 6 -15.5 16l-16.5 20q-24 39 -24 55v8q0 18 6 24l7 5l9 1l12 1l58 1l43 161h-162l11 41h576l-11 -41h-112z" />
    <glyph glyph-name="y" unicode="y" horiz-adv-x="642" 
d="M694 475l-127 -475h-92l77 291l-26 -14l-14 -9l-24 -18l-10 -11l-11 -11l-11 -13l-23 -29l-14 -23l-40 1l-36 24l6 12l11 15l25 29l10 15q0 8 -9.5 17t-24.5 18l-21 10l-21 7l-27 -10l-26 -17q-7 -6 -12 -12q-11 -13 -17 -21q-21 -27 -21 -67q0 -18 7 -38q12 -35 48 -62
l30 -22l44 -24l-37 -42h-40q-51 0 -111 87q-31 47 -31 80v12q0 55 36.5 103.5t91.5 67.5q30 10 62 10l40 1q18 0 44 -8t44 -23q6 -3 10 -8l7 -7l30 16l25 8l27 7l11 1l13 2l35 130h-475l11 41h650l-11 -41h-83z" />
    <glyph glyph-name="z" unicode="z" horiz-adv-x="45" 
d="M-317 0h-40l-23 39l325 174h40l-11 -41z" />
    <glyph glyph-name="braceleft" unicode="{" horiz-adv-x="353" 
d="M487 281l-31 -8l-32 -5l-40 -1l-40 1l-37 2q-19 0 -45 10l-11 2l-13 5l-12 -9l-14 -9q-31 -21 -49 -52q-12 -24 -12 -52t20 -39l17 -9l22 -4l4 1v4l1 6l1 5l2 5q3 14 9 24l13 16q8 6 17 9l20 4l40 1q12 0 19 -3.5t15 -13.5l5 -17l-1 -20l-8 -17l-10 -13l-15 -10l-18 -5
l6 -19l10 -16l11 -13l17 -15l-52 -30h-40l-7 7l-4 6l-10 14l-5 12l-2 6l-2 8l-2 6l-2 4l-1 7l-6 -1h-6l-40 1l-29 1q-14 2 -29.5 8t-33.5 24q-15 17 -18 35l-2 26q0 31 16.5 63.5t57.5 60.5l22 15l32 18q-9 3 -16 16l-12 31l-5 30v13q0 21 21 53q30 41 80 51q12 3 31 3l40 1
q24 0 41 -8q37 -13 49 -49l1 -16q0 -31 -22 -60q-16 -19 -35 -34l-18 -13l-25 -14l8 -4l8 -1l22 -4q18 0 24 -2h12q6 0 16 2l23 4l32 10l38 17l40 1l-13 -47zM321 442q0 8 -9 16l-8 7l-10 4l-11 -4l-10 -6l-17 -16q-6 -9 -9 -21l-3 -31q0 -15 10 -29l1 -3l3 -5l2 -2l3 1l2 2
l4 2q35 17 51 65q1 3 1 20zM420 475l11 41h65l-11 -41h-65z" />
    <glyph glyph-name="bar" unicode="|" horiz-adv-x="628" 
d="M688 475l-127 -475h-92l29 110l-31 -16l-39 -17q-47 -19 -103 -29l-31 -2l-40 1q-70 0 -95 37q-7 11 -13 33l-1 16q0 25 16 54l18 26l8 7l11 9q-11 0 -22 8l-20 25q-5 9 -10 28l3 33q12 50 63 69l19 4l28 3l129 1l20 75h-281l11 41h634l-11 -41h-73zM596 475h-99
l-32 -118h-162q-17 0 -23 -2q-17 0 -31 -14l-11 -22l-2 -21q2 -10 8 -19l2 -5l3 -4l5 -6l3 -4l24 7l16 2l40 1l21 -1h22l8 -1l7 -1h7l7 -40h-40l-6 -1h-25q-55 0 -86 -40l-12 -29l-2 -18l1 -11q3 -12 14 -22l18 -12l21 -6q15 2 28.5 5.5t35.5 11.5q81 30 139 70l26 21z" />
    <glyph glyph-name="braceright" unicode="}" 
d="M550 475l-37 -137h-195q-21 0 -30 -5q-25 -3 -42 -31.5t-17 -64.5l1 -19q8 -36 50 -61q14 -5 38 -10h4l6 1l19 3l1 9l10 18q31 55 69 55l40 1q13 0 18 -5l11 -10q2 -2 5 -15l-1 -18q-3 -11 -12 -25q-12 -23 -39 -40l-23 -5l-1 -18v-12l-1 -29l1 -31l1 -6l1 -14l1 -12
l-1 -21l-2 -17l-6 -14l-8 -11l-11 -8l-15 -5h-40l-5 61l-9 -4l-9 -5q-20 -12 -68 -25q-24 -6 -49 -6h-40q-36 0 -63 20q-26 17 -38 51l-2 20q0 42 34.5 75.5t77.5 39.5l-15 17l-10 16q-5 10 -7 16.5t-7 26.5q0 31 4 46q21 81 87 102q11 3 21.5 5t21.5 2l162 1l26 98h-330
l11 41h530l-11 -41h-107zM343 107l-5 -1h-4l-40 1h-17l-26 3h-8l-6 2l-7 1l-6 1q-10 0 -18 -4l-14 -7q-14 -6 -25.5 -28.5t-11.5 -39.5v-12q3 -10 12 -22l14 -10l18 -7q48 6 87 28l38 20q16 9 18 14z" />
    <glyph glyph-name="asciitilde" unicode="~" horiz-adv-x="45" 
d="M-35 -205h-40l-94 146l51 22h40l70 -145z" />
    <glyph glyph-name="quotesinglbase" unicode="&#x201a;" horiz-adv-x="255" 
d="M308 475l-127 -475h-93l127 475h-98l11 41h288l-11 -41h-97zM414 661q-35 -53 -102 -74q-33 -10 -66 -10l-40 1q-37 0 -58 9q-44 15 -62 73l-3 32l1 26l40 1h53l-4 -45q3 -16 16 -32l22 -17q12 -6 27 -9q14 0 34 9q31 14 59 48q12 18 21 45l40 1h52q-13 -33 -30 -58z" />
    <glyph glyph-name="florin" unicode="&#x192;" horiz-adv-x="395" 
d="M406 162q-34 -70 -61 -99l-34 -36l-33 -33h-40l-46 37l3 1l4 2l3 1l3 2l25 16l18 16q52 60 79 134l23 65l-15 -4l-6 -1l-40 1q-43 0 -72 32q-18 20 -24 41l-2 21v16l4 12q12 44 54 77.5t87 33.5l40 1q67 0 85 -73l2 -34v-31q0 -21 -14 -81t-43 -117zM379 384l1 31
q0 12 -7 23q-3 7 -14 14l-20 -9l-20 -15q-24 -18 -34 -43l-7 -28v-12q2 -9 10 -19l12 -8l15 -5q33 6 56 30z" />
    <glyph glyph-name="quotedblbase" unicode="&#x201e;" horiz-adv-x="478" 
d="M388 -39h-40l-21 45l-17 43l-15 48l-8 48l40 1l-29 -2h-40l-42 3q-37 6 -49 39l-1 14l3 24l9 20q12 18 40 28l24 4l40 1q15 0 27 -9q12 -7 22 -25l2 -4l6 -15q81 38 101 105l5 33q0 37 -23 57q-17 14 -44 23l-25 3q-51 0 -105 -32l-40 1l-21 59l28 6l44 9l44 7l33 2l40 1
q32 0 67 -15q62 -29 77 -102l2 -26q0 -9 -1 -20t-4 -22q-6 -27 -24 -54t-38 -45l-24 -21l-23 -16l-24 -13l-24 -9q4 -47 27 -92l21 -42q12 -20 14 -22q6 -8 15 -17z" />
    <glyph glyph-name="ellipsis" unicode="&#x2026;" horiz-adv-x="442" 
d="M347 -107h-40l-15 27l-15 29l-10 22l-23 62l-2 11l-28 1l-39 1q-35 6 -45 29l-1 15q0 22 10 38l16 15l19 10l20 4l40 1l11 -3q7 0 12 -4l11 -8q7 -3 12 -10l4 -6l7 -7l7 4l9 5q39 21 51 54l2 22l-3 25q0 18 -9 27l-109 1l-24 51h121l20 8l15 9q22 13 36.5 36.5t11.5 49.5
q-2 8 -12 17l-19 8l-26 4l-23 -2l-25 -3l-33 -5q-11 -1 -14 -4l-40 1l-12 62h198q68 0 80 -75q0 -29 -4 -48q-9 -42 -42 -69l-13 -11l-18 -13l14 -19q10 -15 10 -53q0 -32 -23 -72q-23 -43 -62 -63l-41 -13l3 -11l7 -16l10 -18l12 -19l11 -19l14 -21l13 -17l8 -9z" />
    <glyph glyph-name="dagger" unicode="&#x2020;" horiz-adv-x="466" 
d="M522 365l-29.5 -26.5t-31.5 -24.5l-56 -40l-24 -13l11 -9l12 -12l11 -16l12 -18q12 -18 12 -48q0 -10 -2 -14q-15 -65 -74 -98l-24 -11l-46 -7l-40 1q-46 0 -74 38q-13 17 -19 42l-1 17q0 39 26 71q8 10 19.5 21t25.5 23l24 17l32 22l-30 34l-20 26q-21 27 -36 57
q-9 24 -6 38l55 67h40l39 -31l-17 -10l-16 -11l-18 -17q-9 -8 -9 -24q0 -11 5 -25q9 -18 30 -45l11 -14l16 -16l28 18l22 15l31 22q5 4 26 22t27 31l4 29q0 13 -4 21l-4 5l-9 9l20 17h40l24 -26q8 -11 14 -34l1 -17q0 -21 -4.5 -30t-23.5 -26zM330 233l-13 -11l-14 -11
q-52 -41 -65 -77l-4 -31q0 -12 4 -23l8 -11l12 -6l24 10l27 19q40 28 52 69z" />
    <glyph glyph-name="daggerdbl" unicode="&#x2021;" horiz-adv-x="466" 
d="M385 -102h-40l-94 72l-21 -10l-22 -3h-40q-38 0 -38 27l2 14l6 13q7 16 25 22l16 3l40 1l4 -1l87 144h40l-5 -3l-4 -1l-8 -1h-16l-40 1q-61 0 -84 64q-13 39 -13 67q0 63 25 114l12 19l15 22l14 18l17 20l40 1l52 -35l-38 -36q-36 -33 -49 -85l-10 -50q0 -26 4 -38
q5 -10 13 -19l19 -10l8 2l9 3l19 6l12 6q3 14 21 44l11 15q32 41 66 41l40 1q16 0 19 -12l1 -18q0 -31 -27 -67q-17 -21 -43 -38l-35 -21q-2 -1 -10.5 -4t-10.5 -3l-91 -177l127 -76z" />
    <glyph glyph-name="circumflex" unicode="&#x2c6;" horiz-adv-x="511" 
d="M404 -119h-40l-7 16l-4 11l-10 29l-6 22l-7 20l-4 18l-2 6l-1 7l-1 5l-1 4l-1 5h-6l-40 1q-60 0 -97 59q-14 23 -25 60l-2 23q0 66 54 117l8 6l11 8q-9 11 -15 24l-10 30l-4 31v13q0 8 4 17l12 28q8 21 42 41q14 7 29 7l40 1h155l10 -47h-148q-9 0 -19 -5q-9 -3 -19 -13
l-16 -20l-9 -23v-24l10 -26l5 -10l9 -12l133 1l12 -49h-127q-24 0 -46 -26l-18 -28l-11 -27l-4 -40q0 -26 28 -51l21 -10l5 2l-2 5l-1 10l2 13q5 21 27 39l14 8l14 5l14 2l40 1q12 0 20 -5q17 -4 23 -29q3 -22 -11 -46q-10 -16 -20 -24l-16 -14l-12 -7l12 -35l17 -36l9 -18
l19 -32l9 -13z" />
    <glyph glyph-name="perthousand" unicode="&#x2030;" horiz-adv-x="511" 
d="M524 192q-57 -101 -143 -140q-43 -20 -89 -20l-40 1q-83 0 -116 71q-19 41 -19 84l-1 20v25q0 45 2 54q11 74 26 125l10 37l4 10l5 11l44 14h40l-12 -27l-16 -54q-15 -51 -26 -143q0 -73 11 -109q15 -57 71 -66q44 6 96 46l23 21l31 35q-60 0 -109 58q-19 23 -28 55
l-2 23q0 15 9 51q3 17 18 37q23 42 75 63q8 3 18.5 6t27.5 3l40 1q54 0 88 -62q12 -33 12 -61q0 -82 -50 -169zM489 345q0 41 -18 64q-6 11 -21 15q-9 -2 -12 -5l-10 -6l-6 -4l-5 -4q-38 -30 -38 -93l2 -21q7 -26 33 -43l20 -12l20 -7l30 80z" />
    <glyph glyph-name="Scaron" unicode="&#x160;" horiz-adv-x="487" 
d="M467 -26q-4 -12 -12 -18l-13 -9l-22 -11h-40l-18 25l17 5l13 7q6 3 10 10l7 15l-4 8l-11 7l-12 3l-17 3l-4 1h-40q-77 0 -123 26q-53 29 -53 75v16l4 12l3 13l4 9l4 10l9 13l20 30l24 30l9 10l13 12l-54 -1h-40l3 51h376l-5 -51h-142q-32 0 -79 -41.5t-57 -74.5l-5 -26
q0 -42 58 -60l51 -4q24 0 74 -6q53 -9 61 -36l3 -15q0 -18 -12 -38z" />
    <glyph glyph-name="guilsinglleft" unicode="&#x2039;" horiz-adv-x="487" 
d="M467 -33l-11 -14l-12 -7l-18 -10h-40l-15 15l16 8l7 3q6 1 10 10l6 14l-1 6l-5 5l-9 5l-13 5q-21 8 -34 9l-42 3q-10 0 -26.5 1t-38.5 4q-11 3 -23 7t-21 10q-30 18 -36 55l-2 25q0 56 22 97q7 14 22 29l10 8l13 11h-87l1 52h117l-6 3l-9 9l-2 4q-2 4 -3.5 8.5t-4.5 20.5
v21l4 15q16 57 59 76q18 8 44 13l55 4l40 1l59 -1l-5 -49h-40l-18 1q-10 0 -12 2l-16 1l-15 2q-47 -6 -74 -43q-19 -26 -16 -55l12 -19l7 -7l12 -8l190 1l-5 -50h-158q-17 0 -50 -27l-17 -14q-41 -37 -53 -74q-5 -20 -5 -44q3 -16 17 -24q8 -6 24 -9l42 -3l35 1
q30 0 40.5 -1.5t27.5 -6.5q50 -10 59 -47l1 -16q0 -24 -9 -36z" />
    <glyph glyph-name="OE" unicode="&#x152;" horiz-adv-x="478" 
d="M441 114q-56 -47 -127 -47l-40 1q-42 0 -63 10q-62 25 -79 87l-2 24q0 24 5 39q18 68 82 118.5t131 50.5l40 1q49 0 86.5 -28.5t46.5 -77.5l2 -22q0 -18 -6 -42q-17 -64 -76 -114zM440 293q0 20 -19 38q-14 13 -39 19q-39 -5 -79 -34q-36 -25 -60 -63q-14 -23 -26 -57
l-2 -22v-13q3 -15 17 -29l21 -16l25 -8q41 6 84 41q56 44 75 106l4 27z" />
    <glyph glyph-name="c142" horiz-adv-x="411" 
 />
    <glyph glyph-name="c143" horiz-adv-x="411" 
 />
    <glyph glyph-name="c144" horiz-adv-x="534" 
d="M307 250l-24 -91q-1 -5 -2 -6l-10 -7l-11 -2l-40 1q-10 0 -25.5 15t-29.5 37l-27 45l-5 27l5 8l10 8l10 5l8 2l60 1l38 140v18q0 5 -6 14l-5 4l-4 4l-10 -4l-9 -5q-18 -9 -25 -37l-2 -14v-15l1 -7l2 -9l-40 1h-50l-2 7l1 6v14l2 13q10 42 46 67q20 13 39 19.5t41 6.5
l40 1q20 0 44.5 -12t29.5 -33l2 -19l-4 -25l-36 -135h117l49 182h-98l11 41h288l-11 -41h-97l-127 -475h-93l66 250h-117z" />
    <glyph glyph-name="quoteleft" unicode="&#x2018;" horiz-adv-x="411" 
d="M464 475l14 -27q2 -4 3.5 -8.5t4.5 -20.5l1 -31q0 -14 -5 -32q-18 -70 -85 -127.5t-147 -57.5l128 -138l-44 -35h-40l-186 203l45 35h40l25 -26l6 -1l6 2h5l6 2q12 2 18 5l19 8l18 10l18 11l30 25l24 27l4 8l6 11l-29 -11l-25 -3l-40 1q-49 0 -72 30q-12 14 -18 35l-1 14
q0 30 19 58q8 13 30 32l-115 1l11 41h409l-11 -41h-72zM393 422l-4 16q-12 29 -38 36l-16 -6l-15 -10q-13 -10 -18 -20l-10 -23l-3 -26q2 -13 8 -22l10 -12l14 -6l12 4l13 5l12 7l12 9l11 11l15 16z" />
    <glyph glyph-name="quoteright" unicode="&#x2019;" horiz-adv-x="411" 
d="M464 475l14 -27q2 -4 3.5 -8.5t4.5 -20.5l1 -31q0 -14 -5 -32q-18 -70 -85 -127.5t-147 -57.5l128 -138l-44 -35h-40l-186 203l45 35h40l25 -26l6 -1l6 2h5l6 2q12 2 18 5l19 8l18 10l18 11l30 25l24 27l4 8l6 11l-29 -11l-25 -3l-40 1q-49 0 -72 30q-12 14 -18 35l-1 14
q0 30 19 58q8 13 30 32l-115 1l11 41h409l-11 -41h-72zM393 422l-4 16q-12 29 -38 36l-16 -6l-15 -10q-13 -10 -18 -20l-10 -23l-3 -26q2 -13 8 -22l10 -12l14 -6l12 4l13 5l12 7l12 9l11 11l15 16z" />
    <glyph glyph-name="quotedblleft" unicode="&#x201c;" horiz-adv-x="269" 
d="M309 146l-40 1q-37 0 -54 7q-52 18 -64 70l-1 18l4 34l53 199h-80l11 41h274l-11 -41h-93l132 -190l-27 -101q-48 -38 -104 -38zM278 392l-32 -117l-3 -37q3 -15 14 -26l17 -13l21 -7l10 1l12 4l7 2l8 3l26 15l23 20z" />
    <glyph glyph-name="quotedblright" unicode="&#x201d;" horiz-adv-x="269" 
d="M309 146l-40 1q-37 0 -54 7q-52 18 -64 70l-1 18l4 34l53 199h-80l11 41h274l-11 -41h-93l132 -190l-27 -101q-48 -38 -104 -38zM278 392l-32 -117l-3 -37q3 -15 14 -26l17 -13l21 -7l10 1l12 4l7 2l8 3l26 15l23 20z" />
    <glyph glyph-name="endash" unicode="&#x2013;" 
d="M429 -224l-16 -7l-45 -12q-20 -5 -43 -5h-40q-9 0 -19 0.5t-27 7.5q-48 18 -60 59l-2 20q0 33 21.5 69.5t72.5 59.5l43 7h124l-11 -41h-71q-39 0 -68 -38q-8 -9 -12 -25l-3 -21l1 -11q3 -14 13 -24l17 -13l22 -7l6 1l7 2q5 1 6 2l7 2l26 12q13 6 15 11h40l16 -39z
M560 475l-36 -135h-184q-15 0 -30 -8q-16 -6 -27 -16l-22 -25q-18 -30 -18 -69q0 -63 59 -82l19 -6l26 -4v5l1 4q0 11 2 15q0 13 10 33l14 20q16 19 47 19l40 1q6 0 17 -6q16 -6 19 -30l-1 -20q-3 -15 -13 -29t-20 -21l-10 -7l-14 -8l10 -55l5 -16l5 -13l4 -13l6 -10l4 -8
l6 -11h-106l-13 53l-12 59h40l-8 -2h-7l-40 1q-11 0 -29 1t-41 4q-112 21 -112 118q0 22 8 51.5t32 60.5t59 47q21 9 40 9l148 1l25 92h-336l11 41h542l-11 -41h-109z" />
    <glyph glyph-name="emdash" unicode="&#x2014;" horiz-adv-x="677" 
d="M389 -199l-16 -7q-40 -17 -86 -17h-40q-29 0 -46 8q-22 6 -36 22q-18 15 -24 39l-2 20q0 60 52 102q16 15 41 25l43 7h122l-11 -39h-68q-42 0 -70 -40q-14 -20 -14 -45l1 -11q4 -24 32 -37q7 -3 22 -5q23 0 65 27h40l15 -39zM524 475l-31 -116l8 3l33 11l24 3l40 1
q32 0 51 -11q45 -18 55 -70l1 -15q0 -45 -34 -91q-30 -40 -56 -65l-29 -27l-39 -33l-40 1l-34 32l3 1q9 3 16 10l41 38q60 56 72 101q4 18 5 22v15q0 16 -7 27q-3 5 -12 13l-18 8q-15 -3 -25 -10l-26 -17l-9 -7l-8 -8q-42 -42 -51 -77l-57 -214h-92l32 122q-12 -6 -27 -9
l-28 -2l-40 1q-58 0 -89 37q-14 18 -22 45l-1 19l4 36q24 92 122 126q12 4 25.5 7t27.5 3l40 1h16l35 -12l-12 -42h-40l-11 5l-13 4l-25 -9l-24 -15q-32 -20 -44 -63q-4 -19 -4.5 -27.5t-0.5 -13.5q0 -19 10 -33q6 -13 14 -19l21 -10q11 2 22 7l23 14q17 9 34 29
q12 12 15 25l67 249h-305l11 41h675l-11 -41h-278z" />
    <glyph glyph-name="tilde" unicode="&#x2dc;" 
d="M211 -23v-4l-3 -4l-6 -5h-40q-13 -5 -48 13l-29 14l-11 10l1 5l5 7l2 2l6 5l37 16l-14 77l-3 6l-2 -1q-6 -3 -10 -10l-6 -12l-1 -3v-7l2 -6l2 -3l1 -4l4 -3l1 -3l5 -4l-31 -12h-40l-4 6l-5 6l-1 7l-1 12l1 12q3 12 10 22l21 19q20 14 51 18l40 1l13 -3l11 -6l8 -9l6 -13
l10 -56l96 44q-34 0 -49 4l-23 5q-6 0 -19 7q-65 29 -65 94q0 35 13.5 71t43.5 61q36 33 81 33l162 1l24 88h-330l11 41h530l-11 -41h-107l-34 -127h-195q-63 0 -89 -81l-3 -30l1 -19q8 -36 50 -61q14 -5 38 -10h4l6 1l19 3l1 9l10 18q31 55 69 55l40 1q13 0 18 -5l11 -10
q2 -2 5 -15l-1 -18q-3 -11 -12 -25q-12 -23 -39 -40l-23 -5l-2 -13v-10q0 -18 -2 -25l1 -22q0 -10 5 -29l9 -27l3 -7l4 -7l3 -6l3 -5h-99l-7 41l-4 29l-2 27l1 27l-138 -63z" />
    <glyph glyph-name="trademark" unicode="&#x2122;" horiz-adv-x="330" 
d="M267 123l17 -51l-1 -5v-4l-1 -3q0 -8 -4 -12l-6 -5l-8 -2l-11 -1l-54 1l-16 4l-21 6l-24 12l-17 9q-7 5 -9 11l-4 10l1 11q1 16 30 34l5 3l8 4l269 103l-13 20l-9 16q-21 38 -50 55l-14 6l-15 4l-14 2l-7 -1h-6l-7 -2h-6l-10 -2l-11 -3l-16 -72l-6 -11l-4 -6l-4 -4l-4 -2
l-5 -2h-4l-47 1l-7 3l-4 2l-3 4l-6 5l-5 8l-6 8l-6 10l-11 19l-6 13l-2 5q-3 3 -3 9l1 10q6 22 67 40l62 10l65 4l40 1l37 -3q16 0 24 -5q9 -3 21 -21l33 -43l14 -24l19 -32l-13 -47zM138 516h444l-11 -39l-444 -2z" />
    <glyph glyph-name="guilsinglright" unicode="&#x203a;" horiz-adv-x="46" 
d="M-42 516l-162 132l48 41h40l138 -173h-64zM43 516l-111 226l54 26h39l93 -252h-75zM229 751l-5 3l-16 4q-10 -2 -18 -7l-16 -10l-20 -22q-5 -7 -13 -30l-3 -32v-12q0 -23 11 -48l8 -19l13 -23l-40 1h-37l-4 5l-6 9l-14 36l-11 55q0 33 6 54q15 56 89 80q4 1 16.5 3.5
t25.5 2.5l40 1q16 0 28 -4l25 -9l-11 -40h-40zM146 642l15 56h101l-15 -56h-101z" />
    <glyph glyph-name="Ydieresis" unicode="&#x178;" horiz-adv-x="388" 
d="M385 328q-22 0 -37 -8q-65 -24 -78 -77l-5 -33q0 -48 31 -101l18 -30l28 -37l-41 -38h-40l-31 44l-20 36q-35 64 -35 122q0 15 2 21l2 12q9 33 39 63l31 25l-141 1l11 39h458l-11 -39h-181zM127 475l11 41h433l-11 -41h-433z" />
    <glyph glyph-name="nonbreakingspace" unicode="&#xa0;" horiz-adv-x="419" 
 />
    <glyph glyph-name="exclamdown" unicode="&#xa1;" horiz-adv-x="52" 
d="M16 577l-39 1l-29 1q-10 1 -14.5 2t-15.5 6q-42 15 -60 73l-3 32l1 26l39 1h53l-3 -28q0 -29 16 -49l22 -17l25 -9q14 0 34 9q35 14 59 48q14 20 21 45l40 1h52q-19 -62 -74.5 -102t-123.5 -40zM-19 699l15 55h98l-15 -55h-98z" />
    <glyph glyph-name="cent" unicode="&#xa2;" horiz-adv-x="43" 
d="M-180 516l-150 214l45 38h40l138 -252h-73z" />
    <glyph glyph-name="sterling" unicode="&#xa3;" horiz-adv-x="672" 
d="M384 332q-12 -48 -58 -66l-38 -10l-47 -3q3 -34 10 -53l13 -37q38 -75 129 -89q24 0 57.5 12t50.5 26l56 45l40 1l-14 -53q-10 -10 -37 -29l-45 -23l-51 -16l-31 -5h-21l-40 1q-49 0 -70 7q-27 6 -54 29q-63 47 -81 151l-7 40l-6 81l51 24h40l2 -56l4 -6l6 -4l4 -3l4 -2
l4 -1l10 4l9 5l13 14l8 19l37 140h-205l11 41h708l-11 -41h-97l-127 -475h-93l127 475h-222zM452 85h-40l-33 29l139 79h40l-2 -38zM608 210l-6 -8q-9 -9 -26 -16l-33 -5l-40 1q-25 0 -42 6q-35 16 -47 57l-1 15v11l4 19q9 38 48 71q33 29 77 38l24 2l40 1q12 0 21 -4
q15 -3 21 -8l2 -36h-40l-12 4l-14 3l-14 -3q-8 -2 -12 -5l-7 -3l-6 -4q-25 -16 -36 -54l-5 -30l3 -21l5 -7l7 -5l12 4l12 7l25 18l22 24l40 1l-16 -60z" />
    <glyph glyph-name="currency" unicode="&#xa4;" horiz-adv-x="260" 
d="M199 43l-7 -26h-96l-19 -70l6 -11h49l14 -31l-34 -3l-31 -9q-33 -13 -37 -32l-1 -4l1 -6l1 -4l2 -5l8 -8l10 -5q6 0 14 4l16 5l5 2l6 2l29 14q8 3 11 8h40l-11 -43l-12 -6l-20 -9l-25 -8l-21 -5h-40q-38 0 -56 25q-7 10 -14 30l-1 12l3 18q3 10 5 14l7 13l13 12l18 9
l-29 29l24 88h172z" />
    <glyph glyph-name="yen" unicode="&#xa5;" horiz-adv-x="616" 
d="M677 475l-127 -475h-93l57 212l-40 1l-8 -1l-7 1h-8l-8 2l-38 -65q-62 -75 -150 -75l-40 1q-33 0 -51 6.5t-53 25.5l-21 12q-14 9 -22 20l-3 4l44 38h40q0 -6 10 -15l25 -21l30 -21q16 -6 32 -9q32 4 65 36q15 15 31 40q5 9 11 24t10.5 31t4.5 37q0 56 -51 71
q-6 0 -13 -4l-15 -6l-12 -6l-14 -8l-40 1l-24 39l21 7l16 7l38 12l28 4l40 1q34 0 64.5 -18.5t40.5 -49.5l8 -28l4 -39l8 -4l8 -3l3 -2l4 -1l3 -2h4l20 5l20 9l55 206h-457l11 41h622l-11 -41h-72z" />
    <glyph glyph-name="section" unicode="&#xa7;" horiz-adv-x="260" 
d="M199 43l-7 -26h-96l-19 -70l6 -11h49l14 -31l-34 -3l-31 -9q-33 -13 -37 -32l-1 -4l1 -6l1 -4l2 -5l8 -8l10 -5q6 0 14 4l16 5l5 2l6 2l29 14q8 3 11 8h40l-11 -43l-12 -6l-20 -9l-25 -8l-21 -5h-40q-38 0 -56 25q-7 10 -14 30l-1 12l3 18q3 10 5 14l7 13l13 12l18 9
l-29 29l24 88h172z" />
    <glyph glyph-name="dieresis" unicode="&#xa8;" horiz-adv-x="255" 
d="M308 475l-127 -475h-93l127 475h-88l11 41h66l-136 214l47 38h40l136 -252h100l-11 -41h-72z" />
    <glyph glyph-name="copyright" unicode="&#xa9;" horiz-adv-x="255" 
d="M308 475l-127 -475h-93l127 475h-88l11 41l-167 132l47 41h40l147 -173h9l-108 226l54 26h40l91 -252h100l-11 -41h-72z" />
    <glyph glyph-name="ordfeminine" unicode="&#xaa;" horiz-adv-x="52" 
d="M-165 -143l-69 129l-149 -129h-100l214 180h94l109 -180h-99z" />
    <glyph glyph-name="guillemotleft" unicode="&#xab;" horiz-adv-x="364" 
d="M224 45h-40l-19 45l282 129l-24 32l-18 23q-18 24 -32 35l-25 18l-32 -11l-43 -16l-32 -15l-44 -20l-40 1l-21 39l37 17l96 36l55 18q17 6 32 6l40 1q26 0 74 -66l35 -50l15 -20l-16 -58zM125 475l11 41h411l-11 -41h-411z" />
    <glyph glyph-name="registered" unicode="&#xae;" horiz-adv-x="255" 
d="M308 475l-127 -475h-93l127 475h-88l11 41h66l-136 214l47 38h40l136 -252h100l-11 -41h-72z" />
    <glyph glyph-name="plusminus" unicode="&#xb1;" horiz-adv-x="52" 
d="M159 711l-6 3l-5 1l-5 2l-5 1q-10 -2 -18 -7l-16 -10q-20 -12 -33 -52q-2 -9 -3 -17t-1 -27q0 -23 11 -48l8 -19l14 -23l-40 1h-37l-3 3q-8 8 -20 47l-11 55q0 35 5 54q15 58 89 80q4 1 16.5 3.5t25.5 2.5l40 1l28 -3q13 -3 24 -10l-11 -40h-40zM75 602l15 56h101
l-15 -56h-101z" />
    <glyph glyph-name="threesuperior" unicode="&#xb3;" horiz-adv-x="628" 
d="M618 475l-35 -131h-213l-7 -8l-4 -7l-1 -11l1 -12l4 -16l9 -21l10 -18l17 -17l4 -2l44 12l18 5l28 6l17 2l40 1q12 0 20 -6.5t12 -21.5l2 -25q0 -14 -5 -28q-6 -33 -27 -66q-42 -63 -106 -84q-31 -10 -64 -10l-40 1q-40 0 -69 12.5t-61 44.5q-25 24 -42 48l-17 28l-18 32
l-20 42q-3 7 -5 20l49 38h40l3 -20l18 -42q20 -45 45 -80q50 -66 109 -81q27 0 64 31q24 21 40 55l10 29l2 17q0 6 -5 11l-19 -5l-22 -8l-23 -7l-15 -2l-40 1q-47 0 -79 60q-11 22 -22 55l-2 24q0 41 25 54l19 7l23 2l173 1l24 90h-400l11 41h626l-11 -41h-135zM584 279
l16 59h102l-16 -59h-102z" />
    <glyph glyph-name="acute" unicode="&#xb4;" horiz-adv-x="616" 
d="M677 475l-127 -475h-93l57 212l-40 1l-8 -1l-7 1h-8l-8 2l-38 -65q-62 -75 -150 -75l-40 1q-33 0 -51 6.5t-53 25.5l-21 12q-14 9 -22 20l-3 4l44 38h40q0 -6 10 -15l25 -21l30 -21q16 -6 32 -9q32 4 65 36q15 15 31 40q5 9 11 24t10.5 31t4.5 37q0 56 -51 71
q-6 0 -13 -4l-15 -6l-12 -6l-14 -8l-40 1l-24 39l21 7l16 7l38 12l28 4l40 1q34 0 64.5 -18.5t40.5 -49.5l8 -28l4 -39l8 -4l8 -3l3 -2l4 -1l3 -2h4l20 5l20 9l55 206h-457l11 41h622l-11 -41h-72z" />
    <glyph glyph-name="paragraph" unicode="&#xb6;" horiz-adv-x="460" 
d="M542 324q-34 -15 -61 -48q-3 -9 -11 -15l-14 -20l-64 -241h-93l44 171l-4 -1l-13 -4l-13 -3l-14 -2h-12l-40 1q-31 0 -48 7q-41 21 -53 70l-1 16q0 21 5 37l49 183h-72l11 41h458l-11 -41h-66l-33 -121l10 4l34 15l26 5l40 1l-12 -45zM426 475h-136l-51 -190
q-4 -17 -4.5 -26t-0.5 -14q0 -15 9 -27l12 -10l17 -6q36 5 59 26l25 24l17 26z" />
    <glyph glyph-name="periodcentered" unicode="&#xb7;" horiz-adv-x="401" 
d="M329 0q-16 -4 -30 -6t-33 -2h-40q-51 0 -96 30l-56 40q-18 15 -22 31l45 36h40q0 -14 41.5 -53.5t76.5 -45.5l8 1q7 0 9 2l17 5l17 8q38 18 56 68l1 12q0 21 -10 41.5t-34 46.5l-50 54l-50 56q-23 26 -38 59q-6 20 -6 35l1 13q10 38 43 62q24 15 55 21l20 1l40 1h209
l-11 -39l-228 -6l-9 -4l-9 -5l-16 -14l-7 -15q-5 -21 50 -82l105 -113q43 -58 43 -99q0 -11 -2 -17q-22 -92 -130 -122z" />
    <glyph glyph-name="periodcentered" unicode="&#x2219;" horiz-adv-x="401" 
d="M329 0q-16 -4 -30 -6t-33 -2h-40q-51 0 -96 30l-56 40q-18 15 -22 31l45 36h40q0 -14 41.5 -53.5t76.5 -45.5l8 1q7 0 9 2l17 5l17 8q38 18 56 68l1 12q0 21 -10 41.5t-34 46.5l-50 54l-50 56q-23 26 -38 59q-6 20 -6 35l1 13q10 38 43 62q24 15 55 21l20 1l40 1h209
l-11 -39l-228 -6l-9 -4l-9 -5l-16 -14l-7 -15q-5 -21 50 -82l105 -113q43 -58 43 -99q0 -11 -2 -17q-22 -92 -130 -122z" />
    <glyph glyph-name="cedilla" unicode="&#xb8;" horiz-adv-x="327" 
d="M438 167l-35 -14l-36 -9l-34 -3l-40 1q-77 0 -117 46q-17 22 -28 58l-2 26q0 10 0.5 16t6.5 31l40 1l8 -3l8 -2l2 -1q15 2 21 5l18 7q33 21 45 62l2 19l-1 11q0 15 -10 32l-8 11l-10 13l-141 1l11 41h331l-11 -41h-86l8 -16l5 -11q7 -18 7 -32l-3 -30q-18 -65 -84 -97
l-27 -8l-36 -7q0 -12 2 -18l3 -12q8 -22 27 -44q15 -12 46 -20l16 3l16 5l16 7l16 8l15 9t21 17q18 15 30 30l40 1l-19 -72q-18 -15 -33 -21z" />
    <glyph glyph-name="ordmasculine" unicode="&#xba;" horiz-adv-x="485" 
d="M327 219q-24 0 -40 -8q-42 -14 -69 -52q-7 -10 -17 -37l-2 -18q0 -52 93 -78l55 -8l57 -7l-27 -36h-40l-23 -1q-20 0 -82 13q-23 5 -34 10q-70 21 -89 70q-3 16 -5 18v13q0 32 15 55q4 11 18 25l25 24l31 24l-14 22l-9 17q-8 17 -12 31t-4 32q0 19 5 28l5 7l15 14l17 8
l19 3l211 1l23 86h-322l11 41h485l-11 -41h-70l-35 -129h-238q-14 0 -22 -15l1 -16q2 -12 8 -21q0 -6 4 -13l8 -14l2 -4l3 -4l291 1l-11 -41h-226z" />
    <glyph glyph-name="guillemotright" unicode="&#xbb;" horiz-adv-x="593" 
d="M251 43l18 68h109l-18 -68h-109zM76 234l12 43h553l-12 -43h-553zM348 404l18 69h109l-18 -69h-109z" />
    <glyph glyph-name="onequarter" unicode="&#xbc;" horiz-adv-x="280" 
d="M182 -176l-7 15l-15 44l-13 45l-7 31l-10 80v112q0 23 1 33.5t7 32.5l11 40q32 122 98 226l22 35l31 44l28 36l32 37l38 41l17 14l40 1h59q-57 -45 -115 -124q-26 -35 -80 -122l-32 -62l-26 -63l-19 -63q-10 -36 -20 -111v-111q0 -26 12 -76q4 -17 8 -31t14 -45l6 -14
l7 -15l12 -30h-99z" />
    <glyph glyph-name="onehalf" unicode="&#xbd;" horiz-adv-x="292" 
d="M173 -38l-29 -39l-33 -39l-39 -45l-13 -13l-3 -2h-95l29 30l26 29l61 75q67 82 115.5 187.5t61.5 227.5v113q0 30 -21 113q-4 13 -6 18.5t-8 18.5q-2 8 -5.5 16.5t-11.5 23.5l-7 12l-2 2l40 1h56l8 -15l16 -41q11 -27 21 -75l11 -76v-34l1 -18v-18v-29l-2 -14
q0 -43 -20 -114q-39 -146 -151 -295z" />
    <glyph glyph-name="threequarters" unicode="&#xbe;" horiz-adv-x="604" 
d="M54 135l11 43h553l-11 -43h-553zM106 332l12 43h553l-12 -43h-553z" />
    <glyph glyph-name="questiondown" unicode="&#xbf;" horiz-adv-x="243" 
d="M195 -182q-35 0 -54 8q-47 12 -58 60l-1 16q0 21 5 37l56 209l4 34q0 54 -42 87l23 14l22 15l16 15l12 15l12 20l10 20l7 16l56 210q4 19 21 46q25 45 77 67q25 10 45 10l40 1l13 -3l16 -3l82 1l-9 -31h-80q-24 0 -39 -8q-45 -16 -68 -47q-10 -13 -17 -36l-55 -206
l-6 -17l-11 -23l-10 -17l-10 -15l-5 -6l-5 -5l-62 -32l8 -8l7 -4l14 -14l10 -11l5 -15q3 -9 3 -25v-27q0 -16 -2 -21l-55 -204l-4 -26q0 -22 14 -36q20 -22 67 -22h80l-10 -39h-122z" />
    <glyph glyph-name="Agrave" unicode="&#xc0;" horiz-adv-x="425" 
d="M389 218l-23 -34l-6 -14l-8 -23l-56 -208q-15 -60 -66 -90.5t-108 -30.5h-120l10 39h78q45 0 77 21q30 16 44 63l62 225l15 26q2 4 6 10.5t11 14.5l18 18l13 10l22 13l8 4l13 7l-42 34l-7 13l-3 20l-1 26q0 13 4 22l55 208l3 22l-1 12q-6 33 -42 48q-18 7 -34 7l-78 1
l9 31h80l8 1l8 2l6 1h9l40 1q42 0 67 -40q8 -13 14 -41l1 -19l-3 -25l-61 -227v-18l1 -18l4 -16l3 -8l5 -7l6 -8l14 -14l10 -8q-28 -11 -65 -51z" />
    <glyph glyph-name="Aacute" unicode="&#xc1;" horiz-adv-x="485" 
d="M544 475l-127 -475h-93l48 182l-258 -182h-40l-30 35l204 133q-55 0 -79 37q-11 19 -16 46q0 30 7 55l45 169h-78l11 41h485l-11 -41h-68zM449 475h-153l-47 -176l-4 -41q3 -15 15 -30l13 -12l16 -7l28 10l34 20l19 13l25 20z" />
    <glyph glyph-name="Atilde" unicode="&#xc3;" horiz-adv-x="485" 
d="M629 516l-11 -41h-113l-35 -131h-209l-6 -6l-2 -3l-1 -3l-2 -11l1 -11l5 -15l10 -19l11 -20l12 -16l4 -3l2 -3l4 -2l23 5l30 9l25 7l21 2l40 1q24 0 34 -22l5 -26q0 -41 -31 -90q-18 -31 -57.5 -60.5t-74.5 -37.5l-22 -3l8 -12l8 -7l16 -19l15 -16l32 -26l24 -17l-38 -43
h-40l-22 17q-14 10 -24 23l-23 26l-15 18l-19 25l-14 17l-6 10h-34l-14 2q-48 6 -61 32q-3 8 -3 19q0 24 9 38l15 16l17 10l20 4l40 1q31 0 62 -40l18 -34l14 4l12 4q63 21 87 96l4 19l2 15l-1 5l-11 -4l-13 -4l-40 -11l-30 -4l-40 1q-37 0 -68 62l-23 56l-2 25q0 20 8 31
l15 14l9 6l10 4l9 3l9 1l174 1l24 90h-285l11 41h286l-12 29l-10 36l-5 48q0 52 23.5 81.5t71.5 44.5q4 1 16.5 3.5t26.5 2.5l40 1q16 0 28 -4l24 -9l-11 -40h-40l-7 2l-6 3l-16 4q-10 -2 -18 -7l-16 -10q-8 -5 -20 -22l-12 -30l-4 -37q0 -25 5 -41l8 -28l12 -28z" />
    <glyph glyph-name="Adieresis" unicode="&#xc4;" horiz-adv-x="576" 
d="M428 128l-15 -6l-10 -3l-52 -15q-15 -5 -43 -5l-40 1q-30 0 -49 8q-50 18 -62 59l-2 19q0 14 4 26q3 16 16.5 36t29.5 33l14 11l21 14l-21 10l-14 10q-15 14 -21 32l-2 19l3 22l7 20l13 23l15 20q5 7 14 12l-107 1l11 41h588l-11 -41h-97l-127 -475h-93l35 132zM525 475
h-188l-15 -11l-10 -8q-23 -17 -35 -53l-1 -14v-13q3 -10 13 -23l19 -14l23 -4l86 1l8 -37h-55l-17 -3l-17 -4l-18 -7l-16 -9q-39 -21 -49 -59l-5 -25l1 -11q3 -10 15 -22l19 -12l24 -6l32 7l37 14q15 5 35 17l41 23z" />
    <glyph glyph-name="Aring" unicode="&#xc5;" horiz-adv-x="712" 
d="M532 475l8 -17l4 -12l7 -35q0 -84 -85 -127l23 -20l4 -6l8 7l8 6q16 14 49 26q10 4 15 5q14 4 29 4l40 1q22 0 39 -10q33 -15 41 -54l2 -23v-16l-4 -12q-7 -41 -51 -94l-45 -54q-14 -16 -39 -37l-40 1l-40 27l32 28l24 23q51 48 71 108l4 26l-3 22l-9 13q-6 7 -14 9
q-13 -3 -27 -13l-30 -21l-16 -16l-20 -22l-1 -4l-1 -3q0 -6 -2 -8l-1 -7q-3 -29 -19 -52q-6 -18 -27 -42q-50 -59 -131 -59l-40 1q-42 0 -69 18q-51 33 -73 124q-5 24 -7.5 40.5t-2.5 39.5l-2 56q0 20 4 25l51 33h40l-1 -21v-18l-1 -20v-18q0 -88 22 -145.5t71 -69.5
q28 0 56 28l17 26l14 37l5 39q0 42 -22 58q-12 9 -29 9l-78 1l-8 43h92l19 6q10 3 16 8q36 23 48 65l2 17l-1 12q-2 16 -10 34l-7 12q-3 8 -11 17l-303 1l11 41h722l-11 -41h-317z" />
    <glyph glyph-name="AE" unicode="&#xc6;" horiz-adv-x="255" 
d="M831 710l-8 4l-7 2l-8 2q-11 -2 -19 -7l-16 -10q-22 -18 -34 -52q-2 -9 -3 -17t-1 -27q3 -30 13 -48l9 -19l15 -23l-40 1h-59l-19 22l-18 24q-30 39 -94 88q-49 35 -107 47q-8 0 -40 -13.5t-55 -51.5l-13 -27l-7 -20l-4 -20l-1 -22q0 -14 2 -20q0 -6 2 -8l72 1l-11 -41
h-72l-127 -475h-93l127 475h-88l11 41h92l-2 3v46q0 18 5 28q5 28 25 57q63 91 170 91l40 1l27 -3l27 -5q19 -3 54 -22q30 -15 54 -36q7 -3 12 -11l14 -13l3 9l3 10q12 39 46 64q18 13 37.5 19.5t44.5 6.5l40 1q19 0 31 -4l25 -9l-11 -40h-40z" />
    <glyph glyph-name="Ccedilla" unicode="&#xc7;" horiz-adv-x="256" 
d="M673 516l-19 22l-18 24q-30 39 -94 88q-49 35 -107 47q-8 0 -40 -13.5t-55 -51.5l-13 -27l-7 -20l-5 -20l-1 -23l1 -19q0 -6 2 -8l87 1l-11 -41h-85l-127 -475h-93l127 475h-88l11 41h91l-2 9l1 25l2 27l3 16q5 28 25 57q63 91 170 91l40 1q34 0 75.5 -15.5t80.5 -43.5
l28 -23l29 -25l28 -29l28 -32l21 -30l22 -29l-40 1h-67zM719 613l17 65h109l-17 -65h-109z" />
    <glyph glyph-name="Egrave" unicode="&#xc8;" horiz-adv-x="255" 
d="M307 475l-127 -475h-92l127 475h-88l11 41h76q3 3 3 9q0 25 -51 111q-22 38 -52 53l-18 -9l-16 -14q-11 -9 -21 -28l-13 -32l-3 -26l3 -30l6 -25l5 -10l-40 1h-56l-8 16l-4 20l-1 22q0 10 4 23q6 30 22 49q8 19 36 44q22 20 46 30.5t50 10.5l40 1q69 0 125 -109l17 -45
l19 -63l95 1l-11 -41h-84zM289 578l18 65h109l-18 -65h-109z" />
    <glyph glyph-name="Eacute" unicode="&#xc9;" horiz-adv-x="255" 
d="M831 710l-8 4l-7 2l-8 2q-11 -2 -19 -7l-16 -10q-22 -18 -34 -52q-2 -9 -3 -17t-1 -27q3 -30 13 -48l9 -19l15 -23l-40 1h-59l-19 22l-18 24q-30 39 -94 88q-49 35 -107 47q-8 0 -40 -13.5t-55 -51.5l-13 -27l-7 -20l-4 -20l-1 -22q0 -14 2 -20q0 -6 2 -8l72 1l-11 -41
h-72l-127 -475h-93l127 475h-88l11 41h92l-2 3v46q0 18 5 28q5 28 25 57q63 91 170 91l40 1l27 -3l27 -5q19 -3 54 -22q30 -15 54 -36q7 -3 12 -11l14 -13l3 9l3 10q12 39 46 64q18 13 37.5 19.5t44.5 6.5l40 1q19 0 31 -4l25 -9l-11 -40h-40zM745 602l15 56h99l-15 -56h-99
z" />
    <glyph glyph-name="Ecircumflex" unicode="&#xca;" horiz-adv-x="255" 
d="M307 475l-127 -475h-92l127 475h-88l11 41h76q3 3 3 9q0 25 -51 111q-22 38 -52 53l-18 -9l-16 -14q-11 -9 -21 -28l-13 -32l-3 -26l3 -30l6 -25l5 -10l-40 1h-56l-8 16l-4 20l-1 22q0 10 4 23q6 30 22 49q8 19 36 44q22 20 46 30.5t50 10.5l40 1q69 0 125 -109l17 -45
l19 -63l95 1l-11 -41h-84zM429 731l-6 3l-8 2l-7 2l-5 -2l-4 -1l-14 -6l-12 -8q-18 -17 -32 -52l-4 -44q0 -23 11 -48q2 -10 8 -19l14 -23l-40 1h-37l-3 3l-8 11l-13 36q-8 23 -12 55q0 59 22 87q23 32 74 47q4 1 16.5 3.5t25.5 2.5l40 1q16 0 28 -4l25 -9l-11 -40h-40z" />
    <glyph glyph-name="Edieresis" unicode="&#xcb;" horiz-adv-x="304" 
d="M423 158l-43 -25q-34 -20 -70.5 -30t-70.5 -10l-40 1q-23 0 -46 6q-41 16 -56 58l-2 20q0 26 18 55q8 14 28 32l13 10l19 13q-24 15 -43 58q-9 18 -12 39q0 45 21 78q27 39 61 52q10 3 25 6t24 3l40 1q17 0 32 -7q30 -9 40 -41l1 -14q0 -11 -2 -17l-8 -30h-85l8 31
q3 9 1 23q-3 7 -14 14l-12 -7l-11 -9q-18 -18 -22.5 -37t-5.5 -25t-1 -18t1.5 -17.5t6.5 -15.5l11 -23l12 -15l26 5l28 2l40 1l4 -1h5l13 -1l15 -2l11 -38l-67 -3q-32 0 -54.5 -7.5t-40 -24t-27.5 -46.5l-1 -14q0 -12 2.5 -19t10.5 -16l16 -12l20 -6q50 6 126 55l14 11
l34 28l40 1l-14 -54q-3 -9 -19 -18zM375 475l11 41h60l-11 -41h-60z" />
    <glyph glyph-name="Igrave" unicode="&#xcc;" horiz-adv-x="425" 
d="M478 475l-28 -104h-163l-16 -3l-12 -1q-39 -6 -39 -48q1 -8 1 -12q0 -10 9 -22l4 -4l1 -3l2 -2l20 7l3 -1h5l6 1h4l7 1h5l40 1l4 -1h6l4 -1h5l5 -1h10l13 -42h-49l-9 2h-5q-14 0 -25 -4l-23 -8q-52 -28 -52 -102q3 -15 19 -28l16 -9l22 -5l5 1l5 2l-1 4l1 5l2 6l2 8l7 21
l12 17q6 10 20 15q12 6 28 6l40 1q13 0 18 -4q5 -2 11 -12l4 -16l-2 -20l-9 -20q-8 -18 -30 -29l-18 -4l27 -90l-50 -24h-40l-17 97l-4 -1l-40 1h-28l-25 4q-55 15 -67 57l-2 22q0 24 4 39l8 19l12 20l31 34l-16 13l-9 10q-8 8 -17 31l-1 15l3 18q3 16 14.5 35t34.5 29l20 7
q15 6 35 6l133 1l18 65h-260l11 41h431l-11 -41h-80z" />
    <glyph glyph-name="Iacute" unicode="&#xcd;" horiz-adv-x="520" 
d="M548 475l-28 -104h-211q-24 0 -39 -15q-13 -10 -22 -39l-3 -20q0 -10 5 -23.5t27 -28.5q4 -3 12.5 -8t18.5 -9l39 -9q23 0 45 6t47 20l20 11l24 16l40 1l30 -31l-43 -25l-36 -16l-30 -113h-201q-17 0 -40 -15l-17 -19l-8 -20l-3 -23q0 -9 4 -20q8 -15 34 -32
q16 -9 29 -12l34 -7q15 0 25 5l30 9l51 21q7 3 15.5 7t15.5 10h40l27 -31l-36 -21l-47 -21l-18 -5l-17 -5l-36 -6l-34 -3h-40q-141 0 -165 78l-4 26l4 32q9 35 37 59q33 27 66 27l174 1l18 65h40l-23 -5l-17 -1l-40 1l-12 -1h-8q-132 0 -165 74l-4 29v18l4 14q15 65 77 84
q18 6 39 6l168 1l18 67h-332l11 41h528l-11 -41h-107z" />
    <glyph glyph-name="Icircumflex" unicode="&#xce;" horiz-adv-x="520" 
d="M548 475l-28 -104h-211q-30 0 -49 -22.5t-19 -53.5l2 -19q11 -32 58 -51l44 -8q18 0 47 7q30 9 45 18l18 10l23 17l40 1l28 -32l-36 -21l-36 -16l-30 -113h-227q-19 0 -39 -17l-16 -17q-12 -20 -12 -43l4 -21q18 -38 91 -53l23 -2h11l17.5 3.5t24.5 7.5q21 5 38 20
q17 13 20 30l3 20q0 6 -6 17l-5 4l-8 5l41 32h40l10 -17l8 -11l9 -25q3 -8 1 -21q-18 -80 -128 -99q-33 -6 -65 -6h-40q-88 0 -141 35q-42 27 -42 76q0 35 20.5 64.5t56.5 44.5q15 5 32 7l199 1l16 57l-19 -3h-18l-40 1q-78 0 -119 32q-30 21 -36 57l-1 15q0 42 24 75
q36 50 102 50l168 1l18 67h-332l11 41h528l-11 -41h-107z" />
    <glyph glyph-name="Idieresis" unicode="&#xcf;" horiz-adv-x="567" 
d="M612 475l-31 -114h-224l-8 -3l-4 -5l-1 -6l2 -4l7 -15l15 -20l11 -12l13 -8l7 -2l8 -2l9 1l11 2l46 7l26 2l40 1q18 0 29.5 -4.5t17.5 -15.5l4 -19q0 -45 -32 -78q-21 -22 -55 -40q-22 -11 -65 -21q-18 -5 -50 -5l-40 1h-29l-27 4q2 -11 5 -16l6 -11l9 -15l9 -11l8 -9
l9 -5h4l6 2l4 1l6 1l57 11l30 4l40 1q12 0 21 -6q6 -1 17 -12l9 -19l1 -9l-2 -13q-12 -57 -79 -94q-37 -21 -89 -28l-33 -2h-40q-50 0 -97 15q-52 18 -85 48l-29 27l-32 36l40 36h40l31 -36l27 -23q56 -47 135 -59q15 0 34 8q23 6 34 14q21 9 34 25q14 12 18 27l1 9l-3 8
l-1 2q-10 0 -22 -4l-29 -6l-32 -6l-25 -1l-40 1q-17 0 -37 9q-38 22 -53 71l-1 21l2 21l2 4l2 6l2 4l2 5l-27 20l-66 58l-12 12l40 42h40l32 -38l27 -26l22 -17l22 -15l44 -21l44 -10l27 6q44 9 74 37q15 14 21 32l1 11l-6 7l-5 2l-15 -3l-18 -4l-35 -7l-28 -2l-40 1
q-13 0 -31 9q-41 27 -63 73l-4 25q0 27 24 45l18 8l20 3l186 1l20 75h-393l11 41h565l-11 -41h-80z" />
    <glyph glyph-name="Ntilde" unicode="&#xd1;" horiz-adv-x="677" 
d="M389 -199l-16 -7q-40 -17 -86 -17h-40q-29 0 -46 8q-22 6 -36 22q-18 15 -24 39l-2 20q0 60 52 102q16 15 41 25l43 7h122l-11 -39h-68q-42 0 -70 -40q-14 -20 -14 -45l1 -11q4 -24 32 -37q7 -3 22 -5q23 0 65 27h40l15 -39zM524 475l-31 -116l8 3l33 11l24 3l40 1
q32 0 51 -11q45 -18 55 -70l1 -15q0 -45 -34 -91q-30 -40 -56 -65l-29 -27l-39 -33l-40 1l-34 32l3 1q9 3 16 10l41 38q60 56 72 101q4 18 5 22v15q0 16 -7 27q-3 5 -12 13l-18 8q-15 -3 -25 -10l-26 -17l-9 -7l-8 -8q-42 -42 -51 -77l-57 -214h-92l32 122q-12 -6 -27 -9
l-28 -2l-40 1q-58 0 -89 37q-14 18 -22 45l-1 19l4 36q24 92 122 126q12 4 25.5 7t27.5 3l40 1h16l35 -12l-12 -42h-40l-11 5l-13 4l-25 -9l-24 -15q-32 -20 -44 -63q-4 -19 -4.5 -27.5t-0.5 -13.5q0 -19 10 -33q6 -13 14 -19l21 -10q11 2 22 7l23 14q17 9 34 29
q12 12 15 25l67 249h-305l11 41h675l-11 -41h-278z" />
    <glyph glyph-name="Ograve" unicode="&#xd2;" horiz-adv-x="534" 
d="M307 250l-24 -91q-1 -5 -2 -6l-10 -7l-11 -2l-40 1q-10 0 -25.5 15t-29.5 37l-27 45l-5 27l5 8l10 8l10 5l8 2l60 1l38 140v18q0 5 -6 14l-5 4l-4 4l-10 -4l-9 -5q-18 -9 -25 -37l-2 -14v-15l1 -7l2 -9l-40 1h-50l-2 7l1 6v14l2 13q10 42 46 67q20 13 39 19.5t41 6.5
l40 1q20 0 44.5 -12t29.5 -33l2 -19l-4 -25l-36 -135h117l49 182h-98l11 41h288l-11 -41h-97l-127 -475h-93l66 250h-117z" />
    <glyph glyph-name="Oacute" unicode="&#xd3;" 
d="M589 475l-127 -475h-93l27 101q-59 -28 -105 -28l-40 1q-72 0 -104 52q-23 38 -23 81l4 38l40 1l14 -6l17 -2q15 0 26 4l23 8q36 12 45 50l2 8v6q0 20 -22 32l-24 8l-30 5h-22q-11 -3 -15 -4q-15 0 -42 -7l-65 -16q-34 -8 -42 -13l-39 1l11 45q13 2 16.5 2.5t19.5 5.5
l30 7l75 12l41 5h24l40 1q38 0 61 -6q21 0 42 -13q23 -12 30 -31l4 -21q0 -35 -27 -71q-17 -21 -40 -33l-47 -16q-26 -4 -38 -4.5t-19 -0.5q0 -57 44 -83l26 -7q22 3 41.5 11t41.5 24l21 15l27 23l78 290h-369l11 41h532l-11 -41h-70z" />
    <glyph glyph-name="Ocircumflex" unicode="&#xd4;" horiz-adv-x="567" 
d="M612 475l-24 -90h-224l-7 -3l-4 -3v-5l4 -7l6 -10l11 -12l15 -13l12 -9l10 -4l7 1l60 10l28 3l40 1q25 0 44 -13q9 -9 9 -20q0 -50 -35 -85l-20 -17l-17 -11l-22 -11l-27 -101h-221q-9 0 -20 -4l-19 -9q-18 -14 -24 -31l-3 -24q0 -35 43 -60l7 -4l11 -3v4l1 3l1 4l1 6
l1 4l12 28l18 22q29 26 83 26l40 1q18 0 36 -6q36 -6 48 -32l2 -13q0 -11 -2 -15q-12 -47 -59 -68q-26 -10 -72 -17l-29 -1h-40q-104 0 -155 39q-25 21 -34 49l-4 27q0 38 18.5 63.5t57.5 38.5q17 6 33 6l187 1l12 44l-4 -1l-43 1h-36l-31 5l-32 9l-31 16l-39 23l-12 7
l-12 10l-30 26l-24 31l39 38h40l31 -38l27 -25q54 -50 134 -62l9 1l10 2q13 2 18 5l20 8q51 21 64 59l1 11l-5 7l-6 2l-15 -3l-17 -4l-36 -7l-28 -2l-40 1q-15 0 -32 7q-48 27 -66 61l-4 24q0 27 23 44l18 7l21 3l186 1l14 53h-393l11 41h565l-11 -41h-80zM405 -31v4
l-47 -27l-23 -16h5l7 -1q11 0 15 2l11 3q21 6 31 31z" />
    <glyph glyph-name="Odieresis" unicode="&#xd6;" horiz-adv-x="411" 
d="M550 198h-7l-8 -1h-6q-11 0 -15 -2h-14l-40 1l-3 -1h-5l-8 -17q-12 -47 -67 -87.5t-97 -40.5l38 -29l47 -23l-41 -39h-40l-66 48l-14 13l-12 13l-7 9l-24 1h-33q-30 0 -40 23l-1 12q0 27 21 45l15 9l17 4l40 1q15 0 28 -7t24 -20l4 -6l8 -14l15 4l12 4q31 9 55 35
q21 21 28 52l2 15l-3 10l-4 4l-8 -2l-9 -2l-25 -6l-14 -2l-40 1q-45 0 -74 50q-14 26 -22 49l-1 21q0 46 33 58l15 5l19 2l149 1l23 86h-268l11 41h415l-11 -41h-55l-34 -127h-191l-8 -5l-4 -5l-1 -10l2 -11q0 -8 5 -17l12 -22l9 -13l11 -8l2 -2l4 -1l14 1l13 2l27 4l17 2
l40 1l15 -3l14 -7l13 -11l9 -4l7 -3l8 -2l6 -2l8 -1q10 0 18 4l18 7l4 2l6 5l40 1l-13 -51z" />
    <glyph glyph-name="Oslash" unicode="&#xd8;" horiz-adv-x="677" 
d="M524 475l-31 -116l8 3l33 11l24 3l40 1q32 0 51 -11q45 -18 55 -70l1 -15q0 -45 -34 -91q-30 -40 -56 -65l-29 -27l-39 -33l-40 1l-34 32l3 1q9 3 16 10l41 38q60 56 72 101q4 18 5 22v15q0 16 -7 27q-3 5 -12 13l-18 8q-15 -3 -25 -10l-26 -17l-9 -7l-8 -8
q-42 -42 -51 -77l-57 -214h-92l36 135l-232 -131h-40l-19 39l168 86q-37 6 -52 20q-24 17 -33 42l-3 26l4 32q27 91 122 125q28 10 56 10l40 1l25 -3l23 -8l-12 -42h-40l-11 5l-13 4l-25 -9l-24 -15q-33 -21 -45 -66q-3 -12 -3 -35q6 -28 28 -44l18 -9l6 1l6 2l5 2l6 3
l65 38l71 266h-305l11 41h695l-11 -41h-298z" />
    <glyph glyph-name="Ugrave" unicode="&#xd9;" horiz-adv-x="388" 
d="M385 328q-22 0 -37 -8q-65 -24 -78 -77l-5 -33q0 -48 31 -101l18 -30l28 -37l-41 -38h-40l-31 44l-20 36q-35 64 -35 122q0 15 2 21l2 12q9 33 39 63l31 25l-141 1l11 39h458l-11 -39h-181zM127 475l11 41h433l-11 -41h-433z" />
    <glyph glyph-name="Uacute" unicode="&#xda;" horiz-adv-x="292" 
d="M363 243l-11 -4l-30 -8l-24 -2l-66 1q-12 0 -28 5q-9 0 -24 7l-44 16l-29 18l11 42h40q3 -9 20 -15l51 -18l10 -2l19 -4q14 0 19 -2h5l6 2l16 3l19 6l12 5l16 7l40 1l-14 -51zM127 475l11 41h294l-11 -41h-294z" />
    <glyph glyph-name="Ucircumflex" unicode="&#xdb;" horiz-adv-x="327" 
d="M326 180q-19 -16 -38 -24l-44 -7l-40 1q-23 0 -41 6q-30 12 -37 56q0 49 22 81q11 18 28.5 33t38.5 24q9 2 19 4t26 4l40 1q20 0 40 -9q36 -15 36 -57v-18l-3 -21q-15 -48 -47 -74z" />
    <glyph glyph-name="Udieresis" unicode="&#xdc;" horiz-adv-x="411" 
d="M361 264l-19 8l-19 12l-3 1l-64 -37l-24 -15l-34 -19l-26 -14l-12 -6l-40 1l-21 39l112 57l38 22l6 4l11 6l-17 14l-9 13q-7 10 -17 37l-1 16q0 31 20 60q24 36 65 48q29 8 45 8l40 1q22 0 37 -8q10 -4 29 -18q12 -12 16 -29l1 -15l-3 -23l-6 -18l-10 -17l-14 -18
l-18 -18l-16 -14l-21 -15l15 -11l15 -9l26 -17l19 -11l99 -55l-13 -48h-40zM381 446q-2 11 -8 19l-7 7l-9 5l-10 -4l-9 -6q-28 -19 -28 -64q0 -11 7 -21l2 -4l6 -9l4 -5l6 4l2 2l3 2q26 18 39 51z" />
    <glyph glyph-name="Yacute" unicode="&#xdd;" horiz-adv-x="665" 
d="M519 475l-32 -119l30 11l25 5l40 1q48 0 85 -37q14 -18 18 -41l1 -17q0 -42 -33 -93q-27 -42 -55 -67l-23 -20l-43 -35l-40 1l-34 34q17 8 31 19l24 18q21 17 48 54q32 47 32 93q0 16 -8 27q-6 12 -29 19q-29 -7 -62 -42l-17 -19l-21 -26l-64 -241h-93l45 168l-210 -135
h-40l-27 35l182 104h40l-9 -2h-7l-40 1h-21q-14 2 -18 5l-22 12l-17 18l-9 17l-3 20l1 23l6 26l49 183h-72l11 41h671l-11 -41h-279zM426 475h-136l-51 -190q-4 -17 -4.5 -26t-0.5 -14q0 -15 9 -27l12 -10l17 -6q36 5 59 26l25 24l17 26z" />
    <glyph glyph-name="Thorn" unicode="&#xde;" horiz-adv-x="304" 
d="M352 447h-83l80 143h101zM254 449h-83l81 143h98z" />
    <glyph glyph-name="germandbls" unicode="&#xdf;" horiz-adv-x="315" 
d="M370 453h-99l97 143h83zM272 455h-100l97 143h83z" />
    <glyph glyph-name="agrave" unicode="&#xe0;" horiz-adv-x="485" 
d="M395 136l-16 -60l-7 -8l-9 -2l-40 1l-11 7l-15 24l-13 26l-3 15l3 8l6 6l7 3l11 3l165 1l17 59h-163q-24 0 -40 -8q-42 -14 -69 -52q-7 -10 -17 -37l-2 -18q0 -52 93 -78l55 -8l57 -7l-27 -36h-40l-23 -1q-20 0 -82 13q-23 5 -34 10q-70 21 -89 70q-3 16 -5 18v13
q0 32 15 55q4 11 18 25l25 24l31 24l-14 22l-9 17q-8 17 -12 31t-4 32q0 19 5 28l5 7l15 14l17 8l19 3l211 1l23 86h-322l11 41h485l-11 -41h-70l-35 -129h-238q-14 0 -22 -15l1 -16q2 -12 8 -21q0 -6 4 -13l8 -14l2 -4l3 -4l289 -1l-67 -258h-63l35 136h-72z" />
    <glyph glyph-name="aacute" unicode="&#xe1;" horiz-adv-x="712" 
d="M765 475l-127 -475h-93l21 80l-32 -17l-31 -11l-32 -7l-32 -2l-40 1q-45 0 -76.5 18.5t-48.5 59.5l40 1l5 -1l4 -1l-40 1l4 -1h6h12h8q5 2 7 2l23 8q32 15 41 49l3 26q-2 9 -10 15l-3 1l-4 2h-5l-6 2l-79 1q-5 0 -22 -9q-39 -24 -55 -65q-8 -25 -10 -43q0 -30 31 -62
q18 -18 33 -27l51 -29l34 -10l-47 -35h-40q-16 -6 -90 48q-66 48 -66 106q0 22 9.5 48t25.5 45l17 15l33 26l-12 19l-7 16q-6 14 -11 40v20q0 16 5 26l5 7l15 14l17 8l19 3l211 1l23 86h-322l11 41h710l-11 -41h-72zM672 475h-130l-35 -129h-238q-15 0 -23 -18l-2 -17
q0 -8 6 -20l9 -17l10 -9l166 1l16 -9l11 -8q14 -9 18 -28l1 -16q0 -23 -15 -50q-11 -17 -27 -32l-13 -10l-17 -10l14 -8l15 -6l3 -1l3 -2h4l16 3q47 15 79 45l22 21l29 30z" />
    <glyph glyph-name="acircumflex" unicode="&#xe2;" horiz-adv-x="520" 
d="M585 475l-35 -129h-281q-16 0 -23 -17l-1 -21q0 -8 9 -25l4 -8l8 -12l4 -4l6 1l8 2l33 6l28 2l40 1q119 0 144 -56l3 -20q0 -14 -4 -26q-6 -38 -48 -47l-24 -5l-47 -7q-21 0 -28 -2q-13 0 -20 -4q-12 -3 -23 -14q-13 -16 -13 -35l1 -11q5 -10 17 -15l16 -7l19 -4l22 5
l30 10l10 5l40 1l9 -43q-32 -14 -71 -18l-29 -1h-40q-56 0 -89 21q-28 16 -28 49q0 29 21 61.5t67 42.5l68 6l17 1h14l12 3l7 6l6 12q6 29 -31 42l-24 4l-31 3q-48 0 -101 -31q-47 -28 -67 -81q-3 -15 -4 -24t-1 -31q6 -56 55 -108q18 -18 34 -19l-46 -39h-40q-37 6 -78 92
q-15 30 -18 63q0 38 7 66l12 32q8 15 21 30l24 23l34 27l-14 21l-8 17l-13 43l-1 19q0 19 5 28l5 7l15 14l17 8l19 3l254 1l23 86h-365l11 41h528l-11 -41h-70z" />
    <glyph glyph-name="atilde" unicode="&#xe3;" horiz-adv-x="726" 
d="M782 475l-127 -475h-92l26 100h-123l-16 -62l-4 -8l-2 -2l-9 -6l-11 -2l-40 1q-9 0 -21 9l-26 30q-28 37 -25 58l4 8l6 6l9 3l13 3l39 1l22 84h-103q-19 0 -31 -8q-30 -13 -49 -46t-19 -60q0 -20 14 -45t45 -43l48 -29l32 -10l-47 -35h-40q-23 0 -83 50q-35 29 -53 64
q-8 22 -8 40q0 44 33 88l18 17l28 23l-14 21l-8 17l-13 44l-1 17q0 19 5 28l5 7l15 14l17 8l19 3l211 1l23 86h-322l11 41h728l-11 -41h-73zM690 475h-148l-35 -129h-238q-15 0 -21 -17l-1 -19q0 -8 7 -22l6 -11l11 -11l6 -1l234 1l-34 -127h123z" />
    <glyph glyph-name="adieresis" unicode="&#xe4;" horiz-adv-x="749" 
d="M601 475l-27 -100h7l7 2l28 2l40 1q32 0 54 -11q54 -19 68 -69l3 -23q0 -38 -32.5 -87.5t-59.5 -78.5l-71 -73l-40 1l-35 29l3 1q10 7 18 16l42 47q61 69 76 119l3 32q0 16 -11 28q-6 10 -17 15q-4 3 -22 8q-17 0 -32 -5q-15 -3 -26 -11l-16 -11q-5 -3 -7 -9l-80 -298
h-91l86 324h-85q-18 0 -38 -7q-37 -12 -60 -44q-12 -15 -18 -34q-2 -9 -3 -21t-1 -40q3 -33 19 -74l12 -31l19 -41l-50 -26h-40l-19 44l-13 35q-18 48 -18 84q0 73 17 100q11 19 26 30l31 24l-141 1l12 43h362l29 108h-383l11 41h753l-11 -41h-279z" />
    <glyph glyph-name="aring" unicode="&#xe5;" horiz-adv-x="478" 
d="M441 114q-56 -47 -127 -47l-40 1q-42 0 -63 10q-62 25 -79 87l-2 24q0 24 5 39q18 68 82 118.5t131 50.5l40 1q49 0 86.5 -28.5t46.5 -77.5l2 -22q0 -18 -6 -42q-17 -64 -76 -114zM440 293q0 20 -19 38q-14 13 -39 19q-39 -5 -79 -34q-36 -25 -60 -63q-14 -23 -26 -57
l-2 -22v-13q3 -15 17 -29l21 -16l25 -8q41 6 84 41q56 44 75 106l4 27z" />
    <glyph glyph-name="ae" unicode="&#xe6;" 
d="M550 475l-34 -127h-195q-63 0 -89 -81l-3 -30l1 -19q8 -36 50 -61q14 -5 38 -10h4l6 1l19 3l1 9l10 18q31 55 69 55l40 1q13 0 18 -5l11 -10q2 -2 5 -15l-1 -18q-3 -11 -12 -25q-12 -23 -39 -40l-23 -5l-2 -13v-10q0 -18 -2 -25l1 -22q0 -10 5 -29l9 -27l3 -7l4 -7l3 -6
l3 -5h-99l-7 41l-4 29q0 18 -2 24v23l-202 -123h-40l-20 43l213 109q-34 0 -49 4l-23 5q-6 0 -19 7q-65 29 -65 94q0 35 13.5 71t43.5 61q36 33 81 33l162 1l24 88h-330l11 41h530l-11 -41h-107z" />
    <glyph glyph-name="ccedilla" unicode="&#xe7;" horiz-adv-x="485" 
d="M544 475l-127 -475h-93l48 182l-258 -182h-40l-30 35l204 133q-55 0 -79 37q-11 19 -16 46q0 30 7 55l45 169h-78l11 41h485l-11 -41h-68zM449 475h-153l-47 -176l-4 -41q3 -15 15 -30l13 -12l16 -7l28 10l34 20l19 13l25 20z" />
    <glyph glyph-name="egrave" unicode="&#xe8;" horiz-adv-x="304" 
d="M423 158l-43 -25q-34 -20 -70.5 -30t-70.5 -10l-40 1q-23 0 -46 6q-41 16 -56 58l-2 20q0 26 18 55q8 14 28 32l13 10l19 13q-24 15 -43 58q-9 18 -12 39q0 45 21 78q27 39 61 52q10 3 25 6t24 3l40 1q17 0 32 -7q30 -9 40 -41l1 -14q0 -11 -2 -17l-8 -30h-85l8 31
q3 9 1 23q-3 7 -14 14l-12 -7l-11 -9q-18 -18 -22.5 -37t-5.5 -25t-1 -18t1.5 -17.5t6.5 -15.5l11 -23l12 -15l26 5l28 2l40 1l4 -1h5l13 -1l15 -2l11 -38l-67 -3q-32 0 -54.5 -7.5t-40 -24t-27.5 -46.5l-1 -14q0 -12 2.5 -19t10.5 -16l16 -12l20 -6q50 6 126 55l14 11
l34 28l40 1l-14 -54q-3 -9 -19 -18zM375 475l11 41h60l-11 -41h-60z" />
    <glyph glyph-name="eacute" unicode="&#xe9;" horiz-adv-x="544" 
d="M601 477l-127 -477h-93l53 201l-167 -78l17 -51l-1 -5v-4l-1 -3q0 -8 -4 -12l-6 -5l-8 -2l-11 -1l-54 1l-16 4l-21 6l-24 12l-17 9q-7 5 -9 11l-4 10l1 11q1 16 30 34l5 3l8 4l269 103l-13 20l-9 16q-21 38 -50 55l-14 6l-15 4l-14 2l-7 -1h-6l-7 -2h-6l-10 -2l-11 -3
l-16 -72l-6 -11l-4 -6l-4 -4l-4 -2l-5 -2h-4l-47 1l-7 3l-4 2l-3 4l-6 5l-5 8l-6 8l-6 10l-11 19l-6 13l-2 5q-3 3 -3 9l1 10q6 22 67 40l62 10l65 4l40 1l37 -3q16 0 24 -5q8 -3 22 -21l32 -43l6 -9l42 158h-381l11 41h546l-11 -39h-72z" />
    <glyph glyph-name="ecircumflex" unicode="&#xea;" horiz-adv-x="520" 
d="M548 475l-28 -104h-211q-24 0 -39 -15q-13 -10 -22 -39l-3 -20q0 -10 5 -23.5t27 -28.5q4 -3 12.5 -8t18.5 -9l39 -9q23 0 45 6t47 20l20 11l24 16l40 1l30 -31l-43 -25l-36 -16l-30 -113h-201q-17 0 -40 -15l-17 -19l-8 -20l-3 -23q0 -9 4 -20q8 -15 34 -32
q16 -9 29 -12l34 -7q15 0 25 5l30 9l51 21q7 3 15.5 7t15.5 10h40l27 -31l-36 -21l-47 -21l-18 -5l-17 -5l-36 -6l-34 -3h-40q-141 0 -165 78l-4 26l4 32q9 35 37 59q33 27 66 27l174 1l18 65h40l-23 -5l-17 -1l-40 1l-12 -1h-8q-132 0 -165 74l-4 29v18l4 14q15 65 77 84
q18 6 39 6l168 1l18 67h-332l11 41h528l-11 -41h-107z" />
    <glyph glyph-name="edieresis" unicode="&#xeb;" horiz-adv-x="520" 
d="M548 475l-28 -104h-211q-30 0 -49 -22.5t-19 -53.5l2 -19q11 -32 58 -51l44 -8q18 0 47 7q30 9 45 18l18 10l23 17l40 1l28 -32l-36 -21l-36 -16l-30 -113h-227q-19 0 -39 -17l-16 -17q-12 -20 -12 -43l4 -21q18 -38 91 -53l23 -2h11l17.5 3.5t24.5 7.5q21 5 38 20
q17 13 20 30l3 20q0 6 -6 17l-5 4l-8 5l41 32h40l10 -17l8 -11l9 -25q3 -8 1 -21q-18 -80 -128 -99q-33 -6 -65 -6h-40q-88 0 -141 35q-42 27 -42 76q0 35 20.5 64.5t56.5 44.5q15 5 32 7l199 1l16 57l-19 -3h-18l-40 1q-78 0 -119 32q-30 21 -36 57l-1 15q0 42 24 75
q36 50 102 50l168 1l18 67h-332l11 41h528l-11 -41h-107z" />
    <glyph glyph-name="igrave" unicode="&#xec;" horiz-adv-x="567" 
d="M612 475l-31 -114h-224l-8 -3l-4 -5l-1 -6l2 -4l7 -15l15 -20l11 -12l13 -8l7 -2l8 -2l9 1l11 2l46 7l26 2l40 1q18 0 29.5 -4.5t17.5 -15.5l4 -19q0 -45 -32 -78q-21 -22 -55 -40q-22 -11 -65 -21q-18 -5 -50 -5l-40 1h-29l-27 4q2 -11 5 -16l6 -11l9 -15l9 -11l8 -9
l9 -5h4l6 2l4 1l6 1l57 11l30 4l40 1q12 0 21 -6q6 -1 17 -12l9 -19l1 -9l-2 -13q-12 -57 -79 -94q-37 -21 -89 -28l-33 -2h-40q-50 0 -97 15q-52 18 -85 48l-29 27l-32 36l40 36h40l31 -36l27 -23q56 -47 135 -59q15 0 34 8q23 6 34 14q21 9 34 25q14 12 18 27l1 9l-3 8
l-1 2q-10 0 -22 -4l-29 -6l-32 -6l-25 -1l-40 1q-17 0 -37 9q-38 22 -53 71l-1 21l2 21l2 4l2 6l2 4l2 5l-27 20l-66 58l-12 12l40 42h40l32 -38l27 -26l22 -17l22 -15l44 -21l44 -10l27 6q44 9 74 37q15 14 21 32l1 11l-6 7l-5 2l-15 -3l-18 -4l-35 -7l-28 -2l-40 1
q-13 0 -31 9q-41 27 -63 73l-4 25q0 27 24 45l18 8l20 3l186 1l20 75h-393l11 41h565l-11 -41h-80z" />
    <glyph glyph-name="iacute" unicode="&#xed;" horiz-adv-x="425" 
d="M478 475l-28 -104h-163l-16 -3l-12 -1q-39 -6 -39 -48q1 -8 1 -12q0 -10 9 -22l4 -4l1 -3l2 -2l20 7l3 -1h5l6 1h4l7 1h5l40 1l4 -1h6l4 -1h5l5 -1h10l13 -42h-49l-9 2h-5q-14 0 -25 -4l-23 -8q-52 -28 -52 -102q3 -15 19 -28l16 -9l22 -5l5 1l5 2l-1 4l1 5l2 6l2 8l7 21
l12 17q6 10 20 15q12 6 28 6l40 1q13 0 18 -4q5 -2 11 -12l4 -16l-2 -20l-9 -20q-8 -18 -30 -29l-18 -4l27 -90l-50 -24h-40l-17 97l-4 -1l-40 1h-28l-25 4q-55 15 -67 57l-2 22q0 24 4 39l8 19l12 20l31 34l-16 13l-9 10q-8 8 -17 31l-1 15l3 18q3 16 14.5 35t34.5 29l20 7
q15 6 35 6l133 1l18 65h-260l11 41h431l-11 -41h-80z" />
    <glyph glyph-name="icircumflex" unicode="&#xee;" 
d="M589 475l-127 -475h-93l27 101q-59 -28 -105 -28l-40 1q-72 0 -104 52q-23 38 -23 81l4 38l40 1l14 -6l17 -2q15 0 26 4l23 8q36 12 45 50l2 8v6q0 20 -22 32l-24 8l-30 5h-22q-11 -3 -15 -4q-15 0 -42 -7l-65 -16q-34 -8 -42 -13l-39 1l11 45q13 2 16.5 2.5t19.5 5.5
l30 7l75 12l41 5h24l40 1q38 0 61 -6q21 0 42 -13q23 -12 30 -31l4 -21q0 -35 -27 -71q-17 -21 -40 -33l-47 -16q-26 -4 -38 -4.5t-19 -0.5q0 -57 44 -83l26 -7q22 3 41.5 11t41.5 24l21 15l27 23l78 290h-369l11 41h532l-11 -41h-70z" />
    <glyph glyph-name="idieresis" unicode="&#xef;" horiz-adv-x="567" 
d="M612 475l-24 -90h-224l-7 -3l-4 -3v-5l4 -7l6 -10l11 -12l15 -13l12 -9l10 -4l7 1l60 10l28 3l40 1q25 0 44 -13q9 -9 9 -20q0 -50 -35 -85l-20 -17l-17 -11l-22 -11l-27 -101h-221q-9 0 -20 -4l-19 -9q-18 -14 -24 -31l-3 -24q0 -35 43 -60l7 -4l11 -3v4l1 3l1 4l1 6
l1 4l12 28l18 22q29 26 83 26l40 1q18 0 36 -6q36 -6 48 -32l2 -13q0 -11 -2 -15q-12 -47 -59 -68q-26 -10 -72 -17l-29 -1h-40q-104 0 -155 39q-25 21 -34 49l-4 27q0 38 18.5 63.5t57.5 38.5q17 6 33 6l187 1l12 44l-4 -1l-43 1h-36l-31 5l-32 9l-31 16l-39 23l-12 7
l-12 10l-30 26l-24 31l39 38h40l31 -38l27 -25q54 -50 134 -62l9 1l10 2q13 2 18 5l20 8q51 21 64 59l1 11l-5 7l-6 2l-15 -3l-17 -4l-36 -7l-28 -2l-40 1q-15 0 -32 7q-48 27 -66 61l-4 24q0 27 23 44l18 7l21 3l186 1l14 53h-393l11 41h565l-11 -41h-80zM405 -31v4
l-47 -27l-23 -16h5l7 -1q11 0 15 2l11 3q21 6 31 31z" />
    <glyph glyph-name="eth" unicode="&#xf0;" horiz-adv-x="520" 
d="M548 475l-28 -104h-211q-30 0 -49 -22.5t-19 -53.5l2 -19q10 -29 57 -50q19 -6 41 -9q46 6 90 68l16 28l19 41l40 1l34 -13l-17 -55l-11 -24l-10 -20l-9 -9l-15 -26l-4 -8l-30 -112h-227q-19 0 -39 -17l-16 -17q-12 -20 -12 -43l4 -21q18 -38 91 -53l23 -2h11l17.5 3.5
t24.5 7.5q21 5 38 20q17 13 20 30l3 20q0 6 -6 17l-5 4l-8 5l41 32h40l10 -17l8 -11l9 -25q3 -8 1 -21q-18 -80 -128 -99q-33 -6 -65 -6h-40q-88 0 -141 35q-42 27 -42 76q0 35 20.5 64.5t56.5 44.5q15 5 32 7l199 1l16 57l-19 -3h-18l-40 1q-78 0 -119 32q-30 21 -36 57
l-1 15q0 42 24 75q36 50 102 50l168 1l18 67h-332l11 41h528l-11 -41h-107z" />
    <glyph glyph-name="ntilde" unicode="&#xf1;" horiz-adv-x="280" 
d="M156 11l-40 1q-22 0 -34 4q-35 15 -37.5 33t-2.5 29q0 30 22 61t64 46q8 3 17 4.5t19 1.5l40 1q36 0 60 -25q13 -18 13 -43q0 -45 -37 -79t-84 -34zM156 54l10 7q17 12 24 36l2 23q0 9 -5 17l-6 7l-8 5q-9 -2 -12 -5l-10 -8q-10 -8 -15 -17l-8 -20l-2 -21q0 -9 5 -17
l6 -7l8 -5z" />
    <glyph glyph-name="oacute" unicode="&#xf3;" horiz-adv-x="712" 
d="M767 477l-127 -477h-93l42 160l-128 -94h-40l-30 32l181 121l-3 1l-2 2l-3 1l-3 2l-21 9l-25 6l-20 -3l-21 -4l-27 -7q-9 -2 -12 -4l-40 1l-13 45l43 7l46 7l33 2l40 1l6 -1h6l5 -1h6l15 -3l-40 1q-2 11 -8 24l-5 15q-24 30 -73 37l-14 -2l-16 -3l-6 -2l-8 -1
q-12 -47 -45 -80q-23 -23 -51 -31l-21 -2l-51 1q-9 0 -12 2l40 1l36 -95l18 -35q12 -25 23 -38l10 -17l16 -21l-50 -34h-40q-14 6 -35 51l-74 177l-16 46q-2 11 -5 15l-4 16l-6 16l-4 16l50 28h40l14 -56q3 -15 10 -22l20 -11l10 4l9 7l10 15l8 21l2 10l2 9l2 7l34 126h-225
l11 41h712l-11 -39h-72zM674 475h-230l-21 -76l19 1l13 1l40 1q85 0 120 -70l6 -17l5 -21z" />
    <glyph glyph-name="ocircumflex" unicode="&#xf4;" horiz-adv-x="677" 
d="M524 475l-27 -101l6 2q10 2 12 4l38 9l37 4l40 1q30 0 52.5 -11.5t26.5 -30.5l2 -22q0 -50 -49 -99l-11 -8l-8 -7l-40 1l-31 25l7 3l16 16q15 15 26 45q3 8 1 20q-2 9 -8 17l-8 7l-9 5q-17 -3 -30 -11l-36 -18l-24 -13l-31 -19l-22 -81l40 11l30 5l40 1q29 0 46 -8
q36 -12 45 -53l1 -14v-16q-3 -8 -4.5 -14.5t-6.5 -18.5t-19 -30q-24 -30 -48 -45l-24 -15l-32 -16h-40l-18 35l24 12l18 11q42 26 54 68l5 31q0 12 -9 18l-10 7l-13 4l-26 -9l-30 -13l-19 -10l-24 -14l-37 -140h-92l20 78l-4 -4q-62 -24 -88 -24l-40 1q-20 0 -40 6
q-38 16 -46 51l-3 22q0 31 16 53l11 15l12 13l15 12l15 8q-18 12 -24 32l-3 19q0 11 4 20q8 38 53 72q31 23 67 31l25 2l40 1l22 -3l26 -6l5 -2l7 -3l8 -44h-40l-14 3l-11 3l-15 3l-12 3l-20 -7l-17 -12q-22 -16 -34 -46l-1 -12q0 -15 17 -28l40 1l17 -2l27 -3l24 -3l15 -1
l8 -46h-40l-10 2l-26 6l-17 3q-10 0 -14 2q-13 0 -22 -5l-20 -10q-26 -13 -38 -48l-3 -24q0 -11 8 -19q1 -6 10 -10l16 -5q20 0 68 27l34 20q12 9 13 13l86 320h-305l11 41h673l-11 -41h-276z" />
    <glyph glyph-name="otilde" unicode="&#xf5;" horiz-adv-x="46" 
d="M-42 516l-162 132l48 41h40l138 -173h-64zM43 516l-111 226l54 26h39l93 -252h-75zM229 751l-5 3l-16 4q-10 -2 -18 -7l-16 -10l-20 -22q-5 -7 -13 -30l-3 -32v-12q0 -23 11 -48l8 -19l13 -23l-40 1h-37l-4 5l-6 9l-14 36l-11 55q0 33 6 54q15 56 89 80q4 1 16.5 3.5
t25.5 2.5l40 1q16 0 28 -4l25 -9l-11 -40h-40zM146 642l15 56h101l-15 -56h-101z" />
    <glyph glyph-name="odieresis" unicode="&#xf6;" 
d="M211 -23v-4l-3 -4l-6 -5h-40q-13 -5 -48 13l-29 14l-11 10l1 5l5 7l2 2l6 5l37 16l-14 77l-3 6l-2 -1q-6 -3 -10 -10l-6 -12l-1 -3v-7l2 -6l2 -3l1 -4l4 -3l1 -3l5 -4l-31 -12h-40l-4 6l-5 6l-1 7l-1 12l1 12q3 12 10 22l21 19q20 14 51 18l40 1l13 -3l11 -6l8 -9l6 -13
l10 -56l96 44q-34 0 -49 4l-23 5q-6 0 -19 7q-65 29 -65 94q0 35 13.5 71t43.5 61q36 33 81 33l162 1l24 88h-330l11 41h530l-11 -41h-107l-34 -127h-195q-63 0 -89 -81l-3 -30l1 -19q8 -36 50 -61q14 -5 38 -10h4l6 1l19 3l1 9l10 18q31 55 69 55l40 1q13 0 18 -5l11 -10
q2 -2 5 -15l-1 -18q-3 -11 -12 -25q-12 -23 -39 -40l-23 -5l-2 -13v-10q0 -18 -2 -25l1 -22q0 -10 5 -29l9 -27l3 -7l4 -7l3 -6l3 -5h-99l-7 41l-4 29l-2 27l1 27l-138 -63z" />
    <glyph glyph-name="divide" unicode="&#xf7;" horiz-adv-x="411" 
d="M550 198h-7l-8 -1h-6q-11 0 -15 -2h-14l-40 1l-3 -1h-5l-8 -17q-12 -47 -67 -87.5t-97 -40.5l38 -29l47 -23l-41 -39h-40l-66 48l-14 13l-12 13l-7 9l-24 1h-33q-30 0 -40 23l-1 12q0 27 21 45l15 9l17 4l40 1q15 0 28 -7t24 -20l4 -6l8 -14l15 4l12 4q31 9 55 35
q21 21 28 52l2 15l-3 10l-4 4l-8 -2l-9 -2l-25 -6l-14 -2l-40 1q-45 0 -74 50q-14 26 -22 49l-1 21q0 46 33 58l15 5l19 2l149 1l23 86h-268l11 41h415l-11 -41h-55l-34 -127h-191l-8 -5l-4 -5l-1 -10l2 -11q0 -8 5 -17l12 -22l9 -13l11 -8l2 -2l4 -1l14 1l13 2l27 4l17 2
l40 1l15 -3l14 -7l13 -11l9 -4l7 -3l8 -2l6 -2l8 -1q10 0 18 4l18 7l4 2l6 5l40 1l-13 -51z" />
    <glyph glyph-name="oslash" unicode="&#xf8;" horiz-adv-x="243" 
d="M195 -182q-35 0 -54 8q-47 12 -58 60l-1 16q0 21 5 37l56 209l4 34q0 54 -42 87l23 14l22 15l16 15l12 15l12 20l10 20l7 16l56 210q4 19 21 46q25 45 77 67q25 10 45 10l40 1l13 -3l16 -3l82 1l-9 -31h-80q-24 0 -39 -8q-45 -16 -68 -47q-10 -13 -17 -36l-55 -206
l-6 -17l-11 -23l-10 -17l-10 -15l-5 -6l-5 -5l-62 -32l8 -8l7 -4l14 -14l10 -11l5 -15q3 -9 3 -25v-27q0 -16 -2 -21l-55 -204l-4 -26q0 -22 14 -36q20 -22 67 -22h80l-10 -39h-122z" />
    <glyph glyph-name="ugrave" unicode="&#xf9;" horiz-adv-x="726" 
d="M186 232l-13 19l-7 17q-9 22 -12 41v21q0 16 5 26l5 7l15 14l17 8l19 3l211 1l23 86h-322l11 41h728l-11 -41h-73l-127 -475h-92l26 100h-123l-16 -62l-4 -8l-2 -2l-9 -6l-11 -2l-40 1q-9 0 -21 9l-26 30q-28 37 -25 58l4 8l6 6l9 3l13 3l39 1l22 84h-190l-11 4h-5l-6 2z
M690 475h-148l-35 -129h-238q-15 0 -21 -17l-1 -19q0 -8 7 -22l6 -11l11 -11l6 -1l234 1l-34 -127h123z" />
    <glyph glyph-name="c276" unicode="&#x2010;" horiz-adv-x="208" 
d="M51 0l17 66h110l-17 -66h-110z" />
  </font>
</defs>
</svg>
