<svg width="30" height="30" viewBox="0 0 30 30" fill="none" xmlns="http://www.w3.org/2000/svg">
<g clip-path="url(#clip0_49_4263)">
<path d="M29.5312 14.7L7.18594 1.93127C7.07914 1.87001 6.96132 1.8304 6.83921 1.81468C6.71709 1.79896 6.59308 1.80745 6.47425 1.83966C6.35542 1.87187 6.2441 1.92717 6.14664 2.00241C6.04918 2.07764 5.9675 2.17134 5.90625 2.27814L3.09375 7.2422C2.98303 7.43566 2.94486 7.66224 2.9861 7.8813C3.02733 8.10036 3.14527 8.29755 3.31875 8.43752L1.75312 11.1985C1.69141 11.3052 1.65136 11.4231 1.63527 11.5454C1.61918 11.6676 1.62737 11.7919 1.65937 11.911C1.69193 12.0298 1.74761 12.1411 1.82322 12.2384C1.89882 12.3357 1.99288 12.4172 2.1 12.4781L11.25 17.7L8.64844 21.0094H5.54531V16.2281C5.54531 15.9795 5.44654 15.741 5.27072 15.5652C5.09491 15.3894 4.85645 15.2906 4.60781 15.2906H0.9375C0.68886 15.2906 0.450403 15.3894 0.274587 15.5652C0.0987721 15.741 0 15.9795 0 16.2281L0 27.2578C0 27.5065 0.0987721 27.7449 0.274587 27.9207C0.450403 28.0966 0.68886 28.1953 0.9375 28.1953H4.60781C4.85645 28.1953 5.09491 28.0966 5.27072 27.9207C5.44654 27.7449 5.54531 27.5065 5.54531 27.2578V22.8844H9.10312C9.24552 22.8852 9.38623 22.8535 9.51455 22.7917C9.64288 22.73 9.75546 22.6399 9.84375 22.5281L12.8953 18.6422L20.9062 23.2219C21.0491 23.3029 21.2108 23.3449 21.375 23.3438C21.4589 23.3444 21.5425 23.3334 21.6234 23.311C21.7423 23.2784 21.8536 23.2227 21.9509 23.1471C22.0482 23.0715 22.1297 22.9774 22.1906 22.8703L22.5375 22.2656L24.2062 23.2031C24.3491 23.2841 24.5108 23.3261 24.675 23.325C24.7589 23.3257 24.8425 23.3146 24.9234 23.2922C25.0423 23.2596 25.1536 23.204 25.2509 23.1284C25.3482 23.0528 25.4297 22.9587 25.4906 22.8516L28.125 18.2813C28.1859 18.1742 28.2252 18.0561 28.2404 17.9339C28.2557 17.8116 28.2468 17.6876 28.2141 17.5688C28.1543 17.3591 28.0234 17.1767 27.8438 17.0531L29.4234 16.4063C29.5924 16.3427 29.7395 16.2316 29.8468 16.0864C29.9542 15.9413 30.0174 15.7682 30.0288 15.588C30.0402 15.4078 29.9993 15.2281 29.911 15.0706C29.8228 14.9131 29.6909 14.7844 29.5312 14.7ZM21.0187 21.1266L3.84375 11.311L4.94063 9.37502L21.8625 19.0453C21.9415 19.0895 22.0269 19.1212 22.1156 19.1391L21.0187 21.1266ZM24.3 21.1266L23.4375 20.625L24.1219 19.4297L24.8438 18.2485L25.6547 17.9203L26.0391 18.1406L24.3 21.1266Z" fill="#353535"/>
</g>
<defs>
<clipPath id="clip0_49_4263">
<rect width="30" height="30" fill="white"/>
</clipPath>
</defs>
</svg>
