<svg width="30" height="30" viewBox="0 0 30 30" fill="none" xmlns="http://www.w3.org/2000/svg">
<path fill-rule="evenodd" clip-rule="evenodd" d="M28.6199 4.42406C28.1813 4.2791 27.5856 4.08234 26.8768 3.84715C23.653 2.77945 16.2947 0.341719 14.9996 0C13.7053 0.34166 6.34729 2.77945 3.12317 3.84715C2.41465 4.08234 1.82022 4.2791 1.38029 4.42406C0.345998 20.1563 5.83588 24.7495 14.9996 30C24.1641 24.7495 29.653 20.1563 28.6199 4.42406ZM12.8976 17.8295L21.2732 9.45387C21.7996 8.92752 22.653 8.92734 23.1793 9.45393C23.7047 9.9798 23.705 10.8337 23.1792 11.3595L13.8501 20.6879C13.597 20.941 13.2555 21.0829 12.8976 21.0829C12.5394 21.0829 12.1985 20.9412 11.9451 20.688L6.82108 15.5646C6.29496 15.0386 6.29508 14.1848 6.82102 13.6587C7.34713 13.1324 8.20084 13.1325 8.72701 13.6587L12.8976 17.8295Z" fill="#353535"/>
</svg>
