<svg width="30" height="30" viewBox="0 0 30 30" fill="none" xmlns="http://www.w3.org/2000/svg">
<path d="M3.52757 8.00851C3.06431 8.00851 2.61433 7.89381 2.22168 7.67322V26.8909C2.22168 26.9835 2.29667 27.0585 2.38491 27.0585H4.66579C4.75844 27.0585 4.83344 26.9835 4.83344 26.8909V7.67322C4.44078 7.89381 3.9908 8.00851 3.52757 8.00851Z" fill="#353535"/>
<path d="M3.5291 7.67888C3.08967 7.67888 2.66527 7.56065 2.29997 7.33697C1.58527 6.90329 1.1582 6.14579 1.1582 5.31241C1.1582 4.00477 2.22188 2.94153 3.5291 2.94153C4.83407 2.94153 5.89555 4.00477 5.89555 5.31241C5.89555 6.1352 5.4579 6.91167 4.75246 7.33741C4.38894 7.56065 3.96586 7.67888 3.5291 7.67888Z" fill="#353535"/>
<path d="M26.4773 8.00851C26.0096 8.00851 25.5596 7.89381 25.167 7.67322V26.8909C25.167 26.9835 25.242 27.0585 25.3346 27.0585H27.6155C27.7038 27.0585 27.7787 26.9835 27.7787 26.8909V7.67322C27.3861 7.89381 26.9361 8.00851 26.4773 8.00851Z" fill="#353535"/>
<path d="M26.4754 7.67888C26.036 7.67888 25.6111 7.56065 25.2463 7.33697C24.5316 6.90329 24.1045 6.14623 24.1045 5.31241C24.1045 4.00477 25.1682 2.94153 26.4754 2.94153C27.7804 2.94153 28.8418 4.00477 28.8418 5.31241C28.8418 6.1352 28.4042 6.91167 27.6987 7.33741C27.3352 7.56065 26.9117 7.67888 26.4754 7.67888Z" fill="#353535"/>
<path d="M11.4994 10.0687L8.56996 15.482H5.16406V10.0687H11.4994Z" fill="#353535"/>
<path d="M11.874 10.0696L8.94629 15.4819H13.3484L16.276 10.0696H11.874Z" fill="#353535"/>
<path d="M16.6523 10.0696L13.7246 15.4819H18.1267L21.0543 10.0696H16.6523Z" fill="#353535"/>
<path d="M24.8363 10.0687V15.482H18.501L21.4304 10.0687H24.8363Z" fill="#353535"/>
<path d="M11.4994 18.4069L8.56996 23.8201H5.16406V18.4069H11.4994Z" fill="#353535"/>
<path d="M11.8735 18.4091L8.94629 23.8214H13.3479L16.2755 18.4091H11.8735Z" fill="#353535"/>
<path d="M16.6523 18.4091L13.7246 23.8214H18.1267L21.0543 18.4091H16.6523Z" fill="#353535"/>
<path d="M24.8363 18.4069V23.8201H18.501L21.4304 18.4069H24.8363Z" fill="#353535"/>
</svg>
