<svg width="31" height="30" viewBox="0 0 31 30" fill="none" xmlns="http://www.w3.org/2000/svg">
<g clip-path="url(#clip0_49_4272)">
<path d="M17.5517 11.7467C17.0372 10.9019 16.1407 10.3975 15.1531 10.3975C14.3621 10.3975 13.6304 10.7175 13.093 11.2986C12.6124 11.8182 12.3477 12.4945 12.3477 13.2029C12.3477 14.7499 13.6062 16.0085 15.1532 16.0085C16.7001 16.0085 17.9587 14.7499 17.9587 13.2029C17.9587 12.9149 17.9154 12.6312 17.83 12.3598C17.7625 12.1455 17.6689 11.9392 17.5517 11.7467Z" fill="#353535"/>
<path d="M15.8665 17.8279H14.441C12.8907 17.8279 11.4662 18.6075 10.6306 19.9132C10.1638 20.6426 9.91699 21.4858 9.91699 22.3519V25.4768H20.3906V22.3519C20.3906 21.4859 20.1438 20.6426 19.677 19.9132C18.8413 18.6075 17.4168 17.8279 15.8665 17.8279Z" fill="#353535"/>
<path d="M9.72999 12.7193C11.9043 11.8181 12.9363 9.32481 12.0351 7.1505C11.1338 4.97618 8.64056 3.94416 6.46624 4.84542C4.29193 5.74668 3.25991 8.23993 4.16117 10.4142C5.06243 12.5886 7.55567 13.6206 9.72999 12.7193Z" fill="#353535"/>
<path d="M8.15199 22.3519C8.15199 21.148 8.49499 19.9758 9.14393 18.9619C9.85187 17.8558 10.864 17.022 12.0342 16.5388C11.2935 15.8457 10.7836 14.9096 10.6316 13.8591C9.96258 14.4386 9.1627 14.8092 8.09464 14.8092C6.73787 14.8092 5.48458 14.3583 4.47628 13.5988C3.17828 14.1503 2.05587 15.0842 1.26699 16.3168C0.531402 17.4662 0.142578 18.7949 0.142578 20.1595V23.6328H8.15199V22.3519Z" fill="#353535"/>
<path d="M25.1992 11.7976C26.8629 10.134 26.8629 7.4366 25.1992 5.77292C23.5355 4.10924 20.8382 4.10924 19.1745 5.77292C17.5108 7.4366 17.5108 10.134 19.1745 11.7976C20.8382 13.4613 23.5355 13.4613 25.1992 11.7976Z" fill="#353535"/>
<path d="M29.0179 16.3169C28.229 15.0842 27.1066 14.1503 25.8086 13.5988C24.8003 14.3584 23.547 14.8093 22.1903 14.8093C21.1276 14.8093 20.3391 14.4099 19.6827 13.8019C19.5412 14.8756 19.0266 15.8332 18.2725 16.5389C19.4426 17.022 20.4549 17.8558 21.1628 18.962C21.8117 19.9759 22.1547 21.1482 22.1547 22.3519V23.6328H30.1423V20.1595C30.1423 18.795 29.7535 17.4662 29.0179 16.3169Z" fill="#353535"/>
</g>
<defs>
<clipPath id="clip0_49_4272">
<rect width="30" height="30" fill="white" transform="translate(0.142578)"/>
</clipPath>
</defs>
</svg>
