<svg width="33" height="30" viewBox="0 0 33 30" fill="none" xmlns="http://www.w3.org/2000/svg">
<path fill-rule="evenodd" clip-rule="evenodd" d="M16.0714 0.602661C11.0826 0.602661 7.03125 4.654 7.03125 9.64284C7.03125 12.5786 8.43348 15.1902 10.6098 16.8348C10.6125 16.8375 10.6165 16.8402 10.6192 16.8428C10.6862 16.8924 10.733 16.9647 10.7491 17.0451L11.3022 19.7544C11.6518 21.4687 13.1598 22.7009 14.9103 22.7009H17.2326C18.983 22.7009 20.4911 21.4687 20.8406 19.7544C21.0429 18.7661 21.2652 17.6759 21.3991 17.0598C21.4004 17.0558 21.4018 17.0504 21.4031 17.0464C21.4192 16.9674 21.4634 16.8964 21.529 16.8482C21.533 16.8455 21.5371 16.8428 21.5411 16.8402C23.7107 15.1875 25.1116 12.5772 25.1116 9.64284C25.1116 4.654 21.0603 0.602661 16.0714 0.602661ZM12.4125 8.03168C13.0246 6.61739 14.4321 5.62498 16.0714 5.62498C16.6259 5.62498 17.0759 5.17498 17.0759 4.62052C17.0759 4.06605 16.6259 3.61605 16.0714 3.61605C13.6071 3.61605 11.4884 5.10668 10.5683 7.23614C10.3487 7.74507 10.583 8.3357 11.092 8.55668C11.6009 8.77632 12.1929 8.54061 12.4125 8.03168Z" fill="#353535"/>
<path fill-rule="evenodd" clip-rule="evenodd" d="M13.3931 26.0491H18.7503C19.3047 26.0491 19.7547 25.5991 19.7547 25.0446C19.7547 24.4902 19.3047 24.0402 18.7503 24.0402H13.3931C12.8387 24.0402 12.3887 24.4902 12.3887 25.0446C12.3887 25.5991 12.8387 26.0491 13.3931 26.0491Z" fill="#353535"/>
<path fill-rule="evenodd" clip-rule="evenodd" d="M14.0621 29.3974H18.0799C18.6344 29.3974 19.0844 28.9474 19.0844 28.3929C19.0844 27.8384 18.6344 27.3884 18.0799 27.3884H14.0621C13.5076 27.3884 13.0576 27.8384 13.0576 28.3929C13.0576 28.9474 13.5076 29.3974 14.0621 29.3974Z" fill="#353535"/>
</svg>
