<svg width="120" height="120" viewBox="0 0 120 120" fill="none" xmlns="http://www.w3.org/2000/svg">
<g clip-path="url(#clip0_27_476)">
<path d="M86.6677 25.6876C97.1027 33.802 103.169 45.9493 103.399 59.1125H97.1292C96.4194 59.1125 95.7798 59.5399 95.5082 60.1956C95.2366 60.8513 95.3868 61.6058 95.8886 62.1078L103.171 69.3906C103.5 69.7195 103.946 69.9043 104.412 69.9043C104.877 69.9043 105.323 69.7195 105.652 69.3906L112.935 62.1078C113.437 61.6058 113.587 60.8513 113.315 60.1956C113.044 59.5399 112.404 59.1125 111.694 59.1125H106.908C106.678 44.8584 100.118 31.7018 88.8217 22.9176C88.057 22.3227 86.9545 22.4609 86.3598 23.2254C85.7649 23.9906 85.9027 25.0929 86.6677 25.6876ZM107.459 62.6215L104.412 65.6685L101.365 62.6215H107.459ZM45.0155 22.8015V18.6073C45.0155 10.2823 51.7884 3.5095 60.1134 3.5095C68.4384 3.5095 75.2112 10.2823 75.2112 18.6073V22.8015C73.4268 22.5983 71.774 23.8889 71.7743 25.7257V33.8551C71.7743 34.0769 71.8012 34.2924 71.8482 34.5001C71.2889 35.8817 70.2142 37.8245 68.2232 39.4667C67.4421 40.111 66.5912 40.6523 65.6808 41.0863C64.8517 39.5673 63.2394 38.5343 61.3904 38.5343H57.5925C54.8992 38.5343 52.708 40.7255 52.708 43.4188C52.708 46.1121 54.8992 48.3033 57.5925 48.3033H61.3904C63.6317 48.3033 65.5203 46.7842 66.093 44.7228C67.6793 44.1077 69.1444 43.2558 70.4561 42.1738C72.5736 40.4273 73.8815 38.4199 74.6743 36.7784C74.6823 36.7784 74.6903 36.7795 74.6982 36.7795H78.1218C80.3468 36.7795 82.157 34.9694 82.157 32.7444V26.8369C82.157 24.8157 80.6617 23.1417 78.72 22.8511V18.6076C78.72 8.34772 70.373 0.000732422 60.1132 0.000732422C49.8533 0.000732422 41.5063 8.34772 41.5063 18.6076V22.8511C39.5647 23.1417 38.0693 24.8157 38.0693 26.8369V32.7444C38.0693 34.9694 39.8795 36.7795 42.1045 36.7795H45.5281C47.1406 36.7795 48.4523 35.4679 48.4523 33.8554V25.7257C48.449 23.8435 46.7932 22.6282 45.0155 22.8015ZM61.3904 44.7943H57.5925C56.8341 44.7943 56.217 44.1772 56.217 43.4188C56.217 42.6602 56.8341 42.0433 57.5925 42.0433H61.3904C62.147 42.0433 62.7627 42.6574 62.7657 43.4134V43.4235C62.7631 44.1798 62.1474 44.7943 61.3904 44.7943ZM75.283 26.3105H78.1218C78.4119 26.3105 78.6479 26.5466 78.6479 26.8367V32.7442C78.6479 33.0343 78.4119 33.2703 78.1218 33.2703H75.283V26.3105ZM44.9435 33.2703H42.1047C41.8146 33.2703 41.5786 33.0343 41.5786 32.7442V26.8367C41.5786 26.5466 41.8146 26.3105 42.1047 26.3105H44.9435V33.2703ZM114.946 100.704C113.666 99.4223 112.184 98.3497 110.575 97.5279C111.947 95.8122 112.769 93.6399 112.769 91.2779V81.1823C112.769 77.5401 109.806 74.5771 106.164 74.5771H99.3165C95.6743 74.5771 92.7111 77.5401 92.7111 81.1823V91.2779C92.7111 96.8081 97.2101 101.307 102.74 101.307C104.505 101.307 106.164 100.847 107.606 100.043C109.42 100.731 111.087 101.806 112.464 103.185C115.061 105.782 116.491 109.234 116.491 112.907C116.491 113.805 116.142 114.649 115.508 115.283C114.874 115.917 114.031 116.266 113.134 116.266H92.3466C90.4955 116.266 88.9897 114.759 88.9897 112.907C88.9897 109.234 90.4197 105.782 93.0164 103.185C93.7016 102.5 93.7016 101.389 93.0164 100.704C92.3312 100.019 91.2202 100.019 90.5353 100.704C87.2757 103.963 85.4807 108.297 85.4807 112.907C85.4807 116.694 88.5609 119.775 92.3466 119.775H113.134C114.968 119.775 116.692 119.061 117.989 117.764C119.285 116.467 120 114.742 120 112.906C120 108.297 118.205 103.963 114.946 100.704ZM109.26 91.2779C109.26 94.8732 106.335 97.7981 102.74 97.7981C99.145 97.7981 96.2201 94.8732 96.2201 91.2779V88.6235L102.026 86.7108C104.112 86.023 106.354 86.3328 108.176 87.5591L109.26 88.2882V91.2779ZM109.26 84.1214C106.708 82.7351 103.726 82.4565 100.928 83.378L96.2201 84.9292V81.1823C96.2201 79.475 97.6092 78.0861 99.3165 78.0861H106.164C107.871 78.0861 109.26 79.4752 109.26 81.1823V84.1214H109.26ZM87.912 95.1448C87.3374 94.3647 86.2391 94.1981 85.4589 94.7726C77.9878 100.275 69.1187 103.184 59.81 103.184C59.7426 103.184 59.6748 103.182 59.6074 103.182V96.7105C59.6074 96.001 59.18 95.361 58.5243 95.0896C57.869 94.818 57.1141 94.968 56.6123 95.4697L49.3297 102.752C49.0006 103.081 48.8158 103.528 48.8158 103.993C48.8158 104.459 49.0006 104.905 49.3297 105.234L56.6123 112.517C57.1165 113.021 57.8744 113.166 58.5243 112.897C59.18 112.626 59.6074 111.985 59.6074 111.276V106.691C59.6748 106.691 59.7426 106.693 59.81 106.693C69.8726 106.693 79.4616 103.548 87.5398 97.5983C88.3199 97.0235 88.4867 95.9252 87.912 95.1448ZM56.0986 107.04L53.0516 103.993L56.0986 100.946V107.04ZM45.3721 91.0063C45.595 90.1744 45.4806 89.3056 45.0499 88.5598L40.8934 81.3605C40.4627 80.6147 39.7675 80.0811 38.9356 79.8582C38.1035 79.6357 37.2347 79.7496 36.4891 80.1805L35.1658 80.9446C33.6316 79.7288 31.9368 78.7489 30.1226 78.0291V76.5048C30.1226 74.7269 28.6762 73.2804 26.8983 73.2804H18.5852C16.8074 73.2804 15.3612 74.7271 15.3612 76.5048V78.0293C13.547 78.7489 11.8522 79.7286 10.3178 80.9446L8.99467 80.1805C8.24889 79.7499 7.38029 79.636 6.54796 79.8582C5.71609 80.0811 5.02084 80.6145 4.59017 81.3605L0.433401 88.5598C0.00272959 89.3056 -0.111664 90.1744 0.111275 91.0065C0.334214 91.8386 0.867816 92.5337 1.6136 92.9641L2.93556 93.7274C2.7952 94.688 2.72408 95.6667 2.72408 96.6399C2.72408 97.6131 2.7952 98.5918 2.93556 99.5524L1.61336 100.316C0.0738454 101.205 -0.455312 103.18 0.433401 104.72L4.58993 111.919C5.47865 113.459 7.45422 113.988 8.9942 113.099L10.3176 112.335C11.8524 113.551 13.547 114.531 15.3609 115.251V116.775C15.3609 118.553 16.8074 119.999 18.585 119.999H26.8981C28.676 119.999 30.1224 118.553 30.1224 116.775V115.251C31.9363 114.531 33.6312 113.551 35.1655 112.335L36.4891 113.1C38.0286 113.988 40.0042 113.459 40.8932 111.919L45.0497 104.72C45.9384 103.18 45.4092 101.205 43.8697 100.316L42.5478 99.5524C42.6881 98.5916 42.7593 97.6128 42.7593 96.6399C42.7593 95.6672 42.6881 94.6882 42.5478 93.7274L43.8697 92.9643C44.6157 92.5337 45.1491 91.8384 45.3721 91.0063ZM39.0512 94.072C39.1833 94.9172 39.2505 95.7814 39.2505 96.6401C39.2505 97.4991 39.1833 98.363 39.0512 99.2083C38.8469 100.513 39.4793 101.833 40.6241 102.494L41.8689 103.212L37.9971 109.918L36.7509 109.199C35.6049 108.537 34.1437 108.651 33.1158 109.482C31.7728 110.569 30.278 111.432 28.6729 112.051C27.441 112.525 26.6134 113.732 26.6134 115.056V116.491H18.8699V115.056C18.8699 113.733 18.0423 112.525 16.8104 112.051C15.2056 111.432 13.7108 110.569 12.3678 109.482C11.3401 108.651 9.87964 108.537 8.73267 109.199L7.4865 109.919L3.61467 103.212L4.85896 102.494C6.0043 101.833 6.63662 100.513 6.4324 99.2083C6.30022 98.3633 6.23308 97.4991 6.23308 96.6401C6.23308 95.7811 6.30022 94.9172 6.4324 94.072C6.63662 92.7681 6.0043 91.4475 4.85943 90.7864L3.61467 90.0678L7.48627 83.3618L8.73267 84.0814C9.87964 84.7434 11.3403 84.6295 12.3678 83.7983C13.7103 82.7122 15.2051 81.8483 16.8111 81.23C18.0425 80.7553 18.8699 79.5478 18.8699 78.2249V76.7895H26.6134V78.2246C26.6134 79.5478 27.441 80.7556 28.6727 81.23C30.2782 81.8483 31.773 82.7124 33.1158 83.7983C34.1435 84.63 35.6042 84.7434 36.7507 84.0814L37.9971 83.3618L41.8687 90.0678L40.6237 90.7864C39.479 91.4475 38.8469 92.7678 39.0512 94.072ZM13.97 67.7762C14.133 68.737 15.0552 69.3717 15.9933 69.2123C16.9484 69.0502 17.5915 68.1442 17.4294 67.1888C17.0228 64.7943 16.8167 62.3377 16.8167 59.8877C16.8167 49.5451 20.4689 39.6569 27.1388 31.8293L30.58 35.7165C31.0527 36.2511 31.8016 36.4413 32.4655 36.2125C33.1364 35.9811 33.6019 35.3687 33.645 34.6603L34.2707 24.3801C34.3294 23.413 33.5933 22.5812 32.6259 22.5222L22.3457 21.8962C21.6343 21.8522 20.9728 22.241 20.6621 22.879C20.3512 23.5169 20.4551 24.2793 20.9255 24.8106L24.7929 29.1793C17.3763 37.6998 13.3077 48.5403 13.3077 59.8877C13.3077 62.5338 13.5306 65.188 13.97 67.7762ZM30.6616 25.918L30.3998 30.2191L26.3607 25.6565L30.6616 25.918ZM22.7418 83.0839C21.7728 83.0839 20.9873 83.8692 20.9873 84.8384C20.9873 85.8076 21.7728 86.5929 22.7418 86.5929C28.2818 86.5929 32.7888 91.1001 32.7888 96.6399C32.7888 102.18 28.2816 106.687 22.7418 106.687C17.202 106.687 12.6948 102.18 12.6948 96.6399C12.6948 93.5354 14.0972 90.6533 16.5423 88.7332C17.3042 88.1345 17.4371 87.032 16.8385 86.2698C16.2401 85.5075 15.1371 85.3751 14.3749 85.9734C11.0771 88.5631 9.18579 92.4508 9.18579 96.6399C9.18579 104.115 15.2671 110.196 22.7418 110.196C30.2164 110.196 36.2978 104.115 36.2978 96.6399C36.2978 89.165 30.2164 83.0839 22.7418 83.0839Z" fill="black"/>
</g>
<defs>
<clipPath id="clip0_27_476">
<rect width="120" height="120" fill="white"/>
</clipPath>
</defs>
</svg>
