<svg width="120" height="120" viewBox="0 0 120 120" fill="none" xmlns="http://www.w3.org/2000/svg">
<g clip-path="url(#clip0_27_469)">
<path d="M95.2373 94.7168C94.2663 94.7168 93.4795 95.5038 93.4795 96.4746V96.5011C93.4795 97.4719 94.2663 98.2589 95.2373 98.2589C96.2083 98.2589 96.9951 97.4719 96.9951 96.5011V96.4746C96.9951 95.5036 96.2081 94.7168 95.2373 94.7168Z" fill="black"/>
<path d="M27.1558 94.7034C26.1847 94.7034 25.3979 95.4904 25.3979 96.4612V96.4877C25.3979 97.4584 26.1847 98.2455 27.1558 98.2455C28.1268 98.2455 28.9136 97.4584 28.9136 96.4877V96.4612C28.9136 95.4904 28.1268 94.7034 27.1558 94.7034Z" fill="black"/>
<path d="M117.353 76.9268V71.8734C117.353 71.857 117.353 71.8406 117.353 71.8244L117.342 71.4278C117.269 68.6446 117.178 67.8714 115.257 64.9556L104.77 48.0534C103.036 45.2627 101.145 45.0293 99.357 45.0293H77.8034V43.0038C77.8034 41.3599 76.4613 40.0225 74.812 40.0225H67.4609V36.0548C67.4609 33.9743 65.763 32.2816 63.6762 32.2816H62.6653C62.2666 31.0345 61.7599 29.8176 61.1505 28.6425L61.8638 27.9339C62.5816 27.2179 62.9759 26.265 62.9737 25.2506C62.9716 24.2395 62.5755 23.2921 61.864 22.5881L57.0776 17.8139C55.605 16.3455 53.2095 16.345 51.7373 17.8139L51.019 18.5304C49.8466 17.9252 48.6232 17.4192 47.3609 17.017V16.0125C47.3609 13.9319 45.6661 12.2393 43.5825 12.2393H36.8147C34.7311 12.2393 33.0363 13.9319 33.0363 16.0125V17.017C31.7738 17.4189 30.5505 17.9252 29.3782 18.5304L28.6601 17.8139C27.1877 16.3455 24.792 16.345 23.3196 17.8139L18.5381 22.5829C17.8209 23.2921 17.4248 24.2395 17.4227 25.2506C17.4206 26.265 17.8148 27.2179 18.5351 27.9363L19.2459 28.6425C18.6366 29.8176 18.1298 31.0347 17.7312 32.2816H16.7203C14.6334 32.2816 12.9356 33.9743 12.9356 36.0548V40.0225H5.58422C3.93492 40.0225 2.59313 41.3599 2.59313 43.0038V61.7404C2.59313 62.7112 3.37992 63.4982 4.35094 63.4982C5.32195 63.4982 6.10875 62.7112 6.10875 61.7404V43.5382H13.0083C13.3512 45.2725 14.8845 46.5848 16.7203 46.5848H17.7312C18.1303 47.8331 18.6368 49.049 19.2462 50.2211L18.5379 50.9275C17.8209 51.6368 17.4248 52.5841 17.4227 53.5952C17.4206 54.6096 17.8148 55.5625 18.5334 56.2793L18.6797 56.425V78.4228C18.6797 79.3936 19.4665 80.1806 20.4375 80.1806C21.4085 80.1806 22.1953 79.3936 22.1953 78.4228V59.9268L23.3137 61.041C24.0255 61.7571 24.9757 62.1513 25.9891 62.1513C27.0023 62.1513 27.9525 61.7571 28.6568 61.0488L29.3752 60.3349C30.1547 60.7373 30.9572 61.0907 31.7763 61.4025V78.4228C31.7763 79.3936 32.5631 80.1806 33.5341 80.1806C34.5052 80.1806 35.292 79.3936 35.292 78.4228V66.3039C35.7581 66.5102 36.2723 66.6269 36.814 66.6269H43.5818C44.1232 66.6269 44.637 66.5104 45.1029 66.3044V78.4228C45.1029 79.3936 45.8897 80.1806 46.8607 80.1806C47.8317 80.1806 48.6185 79.3936 48.6185 78.4228V61.4027C49.4379 61.0907 50.2409 60.7373 51.0206 60.3346L51.7317 61.041C52.4437 61.7568 53.3939 62.1511 54.4071 62.1511C55.4203 62.1511 56.3702 61.7566 57.0762 61.0469L58.1998 59.9278V78.4228C58.1998 79.3936 58.9866 80.1806 59.9576 80.1806C60.9286 80.1806 61.7154 79.3936 61.7154 78.4228V56.426L61.8635 56.2786C62.5812 55.5625 62.9754 54.6096 62.9733 53.5954C62.9712 52.5843 62.5751 51.637 61.8633 50.9329L61.1498 50.2214C61.7592 49.0495 62.2657 47.8333 62.6648 46.585H63.6757C65.5116 46.585 67.0448 45.2728 67.3877 43.5384H74.2873V61.7407C74.2873 62.7114 75.0741 63.4985 76.0451 63.4985C77.0161 63.4985 77.8029 62.7114 77.8029 61.7407V48.5451H99.3565C100.474 48.5451 100.936 48.5451 101.783 49.908L104.494 54.2782H94.0838C90.8025 54.2782 88.133 56.9428 88.133 60.2182V67.6917C88.133 70.9671 90.8025 73.6317 94.0838 73.6317H113.838V76.7716H112.836C109.532 76.7716 106.845 79.4543 106.845 82.7514C106.845 86.0486 109.532 88.7313 112.836 88.7313H113.838V95.7342H106.506C106.116 89.8689 101.212 85.2157 95.2371 85.2157C89.262 85.2157 84.3584 89.8692 83.9681 95.7342H77.8034V88.9481V69.8657C77.8034 68.895 77.0166 68.1079 76.0455 68.1079C75.0745 68.1079 74.2877 68.895 74.2877 69.8657V87.1903H33.5339C31.7175 85.9457 29.5209 85.2154 27.1559 85.2154C24.7908 85.2154 22.5942 85.9457 20.7778 87.1903H6.10875V69.8657C6.10875 68.895 5.32195 68.1079 4.35094 68.1079C3.37992 68.1079 2.59313 68.895 2.59313 69.8657V87.2648C1.11328 87.5826 0 88.8986 0 90.4703V95.969C0 97.7779 1.47328 99.2496 3.28453 99.2496H16.203C17.4408 104.134 21.8815 107.76 27.1559 107.76C32.4302 107.76 36.8709 104.134 38.1087 99.2496H76.0455H84.2843C85.522 104.134 89.9627 107.76 95.2371 107.76C100.511 107.76 104.952 104.134 106.19 99.2496H115.595C116.566 99.2496 117.353 98.4625 117.353 97.4918V88.5754C118.882 88.1196 120 86.7044 120 85.0317V80.4705C120 78.7978 118.882 77.3826 117.353 76.9268ZM63.9452 42.8053C63.9452 42.9433 63.8168 43.0692 63.6762 43.0692H61.3418C60.5381 43.0692 59.8366 43.6143 59.6384 44.3932C59.1729 46.2206 58.4393 47.9817 57.4582 49.627C57.0455 50.3191 57.1561 51.2029 57.7268 51.7718L59.3862 53.4269C59.4455 53.4855 59.4579 53.5546 59.4581 53.6027C59.4581 53.6526 59.4448 53.7257 59.382 53.7886L54.5897 58.5623C54.5292 58.623 54.4575 58.6357 54.4076 58.6357C54.3577 58.6357 54.2855 58.623 54.2175 58.5546L52.563 56.9111C51.9945 56.3465 51.1163 56.2373 50.4272 56.6463C48.7891 57.6182 47.0213 58.3478 45.1723 58.8147C44.3918 59.0118 43.845 59.714 43.845 60.5189V62.8471C43.845 62.9901 43.7245 63.111 43.5823 63.111H36.8145C36.6722 63.111 36.5517 62.9901 36.5517 62.8471V60.5189C36.5517 59.7138 36.0049 59.0118 35.2245 58.8147C33.3755 58.3476 31.6076 57.6182 29.9695 56.6463C29.6906 56.4808 29.3808 56.4002 29.073 56.4002C28.6202 56.4002 28.1721 56.5748 27.8337 56.9111L26.1717 58.5623C26.1112 58.623 26.0393 58.6357 25.9896 58.6357C25.9397 58.6357 25.8675 58.623 25.8012 58.5564L21.0157 53.7897C20.952 53.7262 20.9386 53.6531 20.9386 53.6029C20.9388 53.5551 20.9513 53.4857 21.0155 53.4222L22.6699 51.7722C23.2406 51.2034 23.351 50.3193 22.9385 49.6275C21.9574 47.9822 21.2241 46.2213 20.7584 44.3936C20.5601 43.6148 19.8586 43.0696 19.0549 43.0696H16.7205C16.5797 43.0696 16.4515 42.9438 16.4515 42.8057V36.0555C16.4515 35.9184 16.5773 35.7979 16.7205 35.7979H19.0549C19.8586 35.7979 20.5601 35.2528 20.7584 34.4739C21.2231 32.6493 21.957 30.8854 22.9402 29.2312C23.3517 28.5382 23.2395 27.6543 22.6678 27.0862L21.0157 25.4451C20.9522 25.3816 20.9388 25.3085 20.9388 25.2586C20.9391 25.2107 20.9515 25.1416 21.0159 25.0779L25.8023 20.3036C25.9003 20.2054 26.0789 20.2059 26.1773 20.3036L27.8318 21.9536C28.3997 22.5204 29.2795 22.6305 29.9698 22.2208C31.6038 21.2517 33.3734 20.5195 35.2298 20.0446C36.0077 19.8457 36.5522 19.1446 36.5522 18.3417V16.0134C36.5522 15.8763 36.6748 15.7558 36.8149 15.7558H43.5827C43.7229 15.7558 43.8455 15.8761 43.8455 16.0134V18.3417C43.8455 19.1446 44.3897 19.8457 45.1678 20.0446C47.0243 20.5195 48.7941 21.2517 50.4279 22.2208C51.1179 22.6305 51.9977 22.5201 52.5659 21.9536L54.2203 20.3036C54.3187 20.2059 54.4973 20.2057 54.5953 20.3036L59.3871 25.083C59.4462 25.1416 59.4586 25.2107 59.4588 25.2586C59.4588 25.3087 59.4455 25.3816 59.3843 25.4428L57.7298 27.0864C57.1582 27.6546 57.0459 28.5384 57.4575 29.2314C58.4405 30.8857 59.1743 32.6496 59.6393 34.4742C59.8376 35.253 60.5388 35.7982 61.3427 35.7982H63.6771C63.8203 35.7982 63.9462 35.9184 63.9462 36.0557V42.8053H63.9452ZM36.8489 90.7057H74.2877V95.7339H38.4248C38.303 93.9051 37.7442 92.1944 36.8489 90.7057ZM3.51562 90.7057H17.4628C16.5675 92.1944 16.0087 93.9051 15.8869 95.7339H3.51562V90.7057ZM27.1559 104.245C22.8649 104.245 19.3744 100.765 19.3744 96.4877C19.3744 92.2106 22.8652 88.7308 27.1559 88.7308C31.4466 88.7308 34.9371 92.2106 34.9371 96.4877C34.9371 100.765 31.4466 104.245 27.1559 104.245ZM95.2373 104.245C90.9464 104.245 87.4559 100.765 87.4559 96.4877C87.4559 92.2106 90.9466 88.7308 95.2373 88.7308C99.528 88.7308 103.019 92.2106 103.019 96.4877C103.019 100.765 99.528 104.245 95.2373 104.245ZM91.6488 67.6912V60.2179C91.6488 58.8811 92.7412 57.7936 94.084 57.7936H106.676L112.282 66.8294C112.291 66.8432 112.299 66.8568 112.308 66.8704C113.4 68.5268 113.674 68.9913 113.769 70.1156H94.0838C92.7412 70.1156 91.6488 69.0281 91.6488 67.6912ZM110.361 82.751C110.361 81.3923 111.471 80.2868 112.836 80.2868H116.296C116.391 80.2868 116.485 80.3777 116.485 80.4705V85.0317C116.485 85.1278 116.395 85.2154 116.296 85.2154H112.836C111.471 85.2152 110.361 84.1099 110.361 82.751Z" fill="black"/>
<path d="M40.1946 26.151C32.858 26.151 26.8892 32.1093 26.8892 39.4333C26.8892 46.7535 32.858 52.709 40.1946 52.709C47.5348 52.709 53.5067 46.7535 53.5067 39.4333C53.5067 32.1093 47.5348 26.151 40.1946 26.151ZM40.1946 49.1933C34.7965 49.1933 30.4048 44.815 30.4048 39.4333C30.4048 34.0478 34.7963 29.6666 40.1946 29.6666C45.5965 29.6666 49.991 34.0478 49.991 39.4333C49.991 44.815 45.5965 49.1933 40.1946 49.1933Z" fill="black"/>
</g>
<defs>
<clipPath id="clip0_27_469">
<rect width="120" height="120" fill="white"/>
</clipPath>
</defs>
</svg>
