<svg width="120" height="120" viewBox="0 0 120 120" fill="none" xmlns="http://www.w3.org/2000/svg">
<path d="M39.9186 103.125C40.4705 102.137 40.9168 101.094 41.2498 100.012C41.3244 99.755 41.3429 99.4846 41.3041 99.2193C41.2653 98.9541 41.17 98.7003 41.0248 98.475C40.8794 98.2484 40.687 98.0557 40.4605 97.9101C40.234 97.7645 39.9788 97.6694 39.7123 97.6312C39.2274 97.5648 38.783 97.325 38.4612 96.9561C38.1395 96.5873 37.9622 96.1144 37.9622 95.625C37.9622 95.1356 38.1395 94.6627 38.4612 94.2938C38.783 93.925 39.2274 93.6852 39.7123 93.6187C39.9788 93.5806 40.234 93.4855 40.4605 93.3399C40.687 93.1943 40.8794 93.0016 41.0248 92.775C41.17 92.5497 41.2653 92.2959 41.3041 92.0306C41.3429 91.7654 41.3244 91.495 41.2498 91.2375C40.9168 90.1561 40.4705 89.1128 39.9186 88.125C39.7934 87.8803 39.616 87.6662 39.3989 87.4977C39.1818 87.3292 38.9304 87.2105 38.6623 87.15C38.3955 87.094 38.1198 87.0969 37.8542 87.1585C37.5887 87.22 37.3398 87.3387 37.1248 87.5062C36.7348 87.7933 36.2547 87.9311 35.7718 87.8946C35.2888 87.8581 34.835 87.6498 34.4925 87.3073C34.15 86.9648 33.9417 86.511 33.9052 86.028C33.8687 85.5451 34.0065 85.065 34.2936 84.675C34.4611 84.46 34.5798 84.2111 34.6413 83.9456C34.7029 83.68 34.7057 83.4043 34.6498 83.1375C34.5893 82.8694 34.4706 82.618 34.3021 82.4009C34.1336 82.1838 33.9195 82.0064 33.6748 81.8812C32.7079 81.3599 31.69 80.9389 30.6373 80.625C30.3798 80.5504 30.1094 80.5319 29.8442 80.5707C29.5789 80.6095 29.3251 80.7048 29.0998 80.85C28.8732 80.9954 28.6805 81.1878 28.5349 81.4143C28.3893 81.6408 28.2942 81.896 28.2561 82.1625C28.1896 82.6474 27.9498 83.0918 27.581 83.4136C27.2121 83.7353 26.7392 83.9126 26.2498 83.9126C25.7604 83.9126 25.2875 83.7353 24.9187 83.4136C24.5498 83.0918 24.31 82.6474 24.2436 82.1625C24.2054 81.896 24.1103 81.6408 23.9647 81.4143C23.8191 81.1878 23.6264 80.9954 23.3998 80.85C23.1745 80.7048 22.9207 80.6095 22.6555 80.5707C22.3902 80.5319 22.1198 80.5504 21.8623 80.625C20.8096 80.9389 19.7918 81.3599 18.8248 81.8812C18.5802 82.0064 18.366 82.1838 18.1975 82.4009C18.029 82.618 17.9103 82.8694 17.8498 83.1375C17.7939 83.4043 17.7968 83.68 17.8583 83.9456C17.9198 84.2111 18.0385 84.46 18.2061 84.675C18.5915 85.0504 18.8119 85.5636 18.8189 86.1016C18.826 86.6396 18.619 87.1583 18.2436 87.5437C17.8681 87.9291 17.3549 88.1496 16.817 88.1566C16.279 88.1637 15.7602 87.9567 15.3748 87.5812C15.1598 87.4137 14.9109 87.295 14.6454 87.2335C14.3798 87.1719 14.1041 87.1691 13.8373 87.225C13.5693 87.2855 13.3178 87.4042 13.1007 87.5727C12.8836 87.7412 12.7062 87.9553 12.5811 88.2C12.0339 89.1639 11.5877 90.1818 11.2498 91.2375C11.1752 91.495 11.1567 91.7654 11.1955 92.0306C11.2344 92.2959 11.3296 92.5497 11.4748 92.775C11.6202 93.0016 11.8126 93.1943 12.0391 93.3399C12.2656 93.4855 12.5208 93.5806 12.7873 93.6187C13.2722 93.6852 13.7166 93.925 14.0384 94.2938C14.3601 94.6627 14.5374 95.1356 14.5374 95.625C14.5374 96.1144 14.3601 96.5873 14.0384 96.9561C13.7166 97.325 13.2722 97.5648 12.7873 97.6312C12.5208 97.6694 12.2656 97.7645 12.0391 97.9101C11.8126 98.0557 11.6202 98.2484 11.4748 98.475C11.3296 98.7003 11.2344 98.9541 11.1955 99.2193C11.1567 99.4846 11.1752 99.755 11.2498 100.012C11.5829 101.094 12.0291 102.137 12.5811 103.125C12.7062 103.37 12.8836 103.584 13.1007 103.752C13.3178 103.921 13.5693 104.039 13.8373 104.1C14.1041 104.156 14.3798 104.153 14.6454 104.092C14.9109 104.03 15.1598 103.911 15.3748 103.744C15.7601 103.493 16.2193 103.38 16.677 103.425C17.1347 103.469 17.5636 103.668 17.8931 103.989C18.2226 104.31 18.4331 104.733 18.49 105.19C18.5468 105.646 18.4467 106.108 18.2061 106.5C18.0385 106.715 17.9198 106.964 17.8583 107.229C17.7968 107.495 17.7939 107.771 17.8498 108.037C17.9103 108.306 18.029 108.557 18.1975 108.774C18.366 108.991 18.5802 109.169 18.8248 109.294C19.7918 109.815 20.8096 110.236 21.8623 110.55C22.1198 110.625 22.3902 110.643 22.6555 110.604C22.9207 110.565 23.1745 110.47 23.3998 110.325C23.6264 110.18 23.8191 109.987 23.9647 109.761C24.1103 109.534 24.2054 109.279 24.2436 109.012C24.31 108.528 24.5498 108.083 24.9187 107.761C25.2875 107.44 25.7604 107.262 26.2498 107.262C26.7392 107.262 27.2121 107.44 27.581 107.761C27.9498 108.083 28.1896 108.528 28.2561 109.012C28.2942 109.279 28.3893 109.534 28.5349 109.761C28.6805 109.987 28.8732 110.18 29.0998 110.325C29.4016 110.52 29.753 110.624 30.1123 110.625C30.2861 110.654 30.4635 110.654 30.6373 110.625C31.7187 110.292 32.762 109.846 33.7498 109.294C33.9945 109.169 34.2086 108.991 34.3771 108.774C34.5456 108.557 34.6643 108.306 34.7248 108.037C34.7808 107.771 34.7779 107.495 34.7163 107.229C34.6548 106.964 34.5361 106.715 34.3686 106.5C34.0815 106.11 33.9437 105.63 33.9802 105.147C34.0167 104.664 34.225 104.21 34.5675 103.868C34.91 103.525 35.3638 103.317 35.8468 103.28C36.3297 103.244 36.8098 103.382 37.1998 103.669C37.4148 103.836 37.6637 103.955 37.9293 104.017C38.1948 104.078 38.4705 104.081 38.7373 104.025C38.9851 103.963 39.2177 103.852 39.4208 103.697C39.624 103.542 39.7933 103.348 39.9186 103.125ZM35.6248 99.525C34.2066 99.594 32.867 100.197 31.8748 101.212C30.8523 102.202 30.2426 103.542 30.1686 104.962C29.0835 104.017 27.6889 103.503 26.2498 103.519C24.8056 103.52 23.4142 104.061 22.3498 105.037C22.2808 103.619 21.6779 102.28 20.6623 101.287C19.6731 100.265 18.3331 99.6553 16.9123 99.5812C17.8665 98.4865 18.3809 97.0769 18.3561 95.625C18.3655 94.1858 17.8373 92.795 16.8748 91.725C18.293 91.6559 19.6326 91.0531 20.6248 90.0375C21.6473 89.0483 22.257 87.7083 22.3311 86.2875C23.4002 87.2558 24.7886 87.7965 26.2311 87.8062C27.6868 87.7999 29.0864 87.2441 30.1498 86.25C30.2189 87.6682 30.8217 89.0078 31.8373 90C32.8265 91.0225 34.1665 91.6322 35.5873 91.7062C34.6418 92.7913 34.128 94.1859 34.1436 95.625C34.1341 97.0641 34.6623 98.455 35.6248 99.525Z" fill="black"/>
<path d="M26.25 90C25.1375 90 24.0499 90.3299 23.1249 90.948C22.1999 91.5661 21.4789 92.4446 21.0532 93.4724C20.6274 94.5002 20.516 95.6312 20.7331 96.7224C20.9501 97.8135 21.4859 98.8158 22.2725 99.6025C23.0592 100.389 24.0615 100.925 25.1526 101.142C26.2438 101.359 27.3748 101.248 28.4026 100.822C29.4304 100.396 30.3089 99.6751 30.927 98.7501C31.5451 97.8251 31.875 96.7375 31.875 95.625C31.875 94.1332 31.2824 92.7024 30.2275 91.6475C29.1726 90.5926 27.7418 90 26.25 90ZM26.25 97.5C25.8792 97.5 25.5167 97.39 25.2083 97.184C24.9 96.978 24.6596 96.6851 24.5177 96.3425C24.3758 95.9999 24.3387 95.6229 24.411 95.2592C24.4834 94.8955 24.662 94.5614 24.9242 94.2992C25.1864 94.037 25.5205 93.8584 25.8842 93.786C26.2479 93.7137 26.6249 93.7508 26.9675 93.8927C27.3101 94.0346 27.603 94.275 27.809 94.5833C28.015 94.8917 28.125 95.2542 28.125 95.625C28.125 96.1223 27.9275 96.5992 27.5758 96.9508C27.2242 97.3025 26.7473 97.5 26.25 97.5Z" fill="black"/>
<path d="M39.375 82.5H43.125V86.25H39.375V82.5Z" fill="black"/>
<path d="M46.875 82.5H50.625V86.25H46.875V82.5Z" fill="black"/>
<path d="M54.375 82.5H58.125V86.25H54.375V82.5Z" fill="black"/>
<path d="M61.875 82.5H65.625V86.25H61.875V82.5Z" fill="black"/>
<path d="M69.375 82.5H73.125V86.25H69.375V82.5Z" fill="black"/>
<path d="M39.375 105H43.125V108.75H39.375V105Z" fill="black"/>
<path d="M46.875 105H50.625V108.75H46.875V105Z" fill="black"/>
<path d="M54.375 105H58.125V108.75H54.375V105Z" fill="black"/>
<path d="M61.875 105H65.625V108.75H61.875V105Z" fill="black"/>
<path d="M69.375 105H73.125V108.75H69.375V105Z" fill="black"/>
<path d="M84.3748 3.75C76.9008 3.7558 69.6666 6.38775 63.9362 11.1859C58.2058 15.9841 54.3437 22.6434 53.0248 30H20.6248C20.1275 30 19.6506 30.1975 19.2989 30.5492C18.9473 30.9008 18.7498 31.3777 18.7498 31.875V75.7875C13.965 77.149 9.83357 80.194 7.11681 84.3614C4.40005 88.5287 3.28105 93.5376 3.96604 98.4649C4.65102 103.392 7.09382 107.906 10.8443 111.174C14.5947 114.443 19.4001 116.245 24.3748 116.25H95.6248C101.095 116.25 106.341 114.077 110.209 110.209C114.077 106.341 116.25 101.095 116.25 95.625C116.25 90.1549 114.077 84.9089 110.209 81.0409C106.341 77.173 101.095 75 95.6248 75H93.7498V73.125C93.7498 72.6277 93.5522 72.1508 93.2006 71.7992C92.849 71.4475 92.3721 71.25 91.8748 71.25H88.1248V67.2562C96.1603 66.2578 103.515 62.2386 108.695 56.0147C113.874 49.7908 116.491 41.8288 116.014 33.7456C115.537 25.6623 112.001 18.0636 106.125 12.4926C100.248 6.92158 92.472 3.79581 84.3748 3.75ZM60.6185 20.625H65.6248V48.6L59.2873 43.5375C59.0226 43.3375 58.7096 43.2112 58.3802 43.1717C58.0508 43.1322 57.7168 43.1808 57.4123 43.3125C56.3078 39.5197 56.0226 35.5354 56.5753 31.6239C57.1281 27.7124 58.5063 23.9632 60.6185 20.625ZM88.1248 63.4687C86.8826 63.6477 85.6297 63.7417 84.3748 63.75C79.1908 63.743 74.1096 62.3035 69.6923 59.5902C65.275 56.877 61.6936 52.9957 59.3435 48.375L66.3373 54C66.6721 54.2513 67.0813 54.3833 67.4998 54.375C67.7798 54.3796 68.0567 54.3152 68.306 54.1875C68.6251 54.0355 68.8947 53.7965 69.0838 53.4979C69.2729 53.1993 69.3738 52.8534 69.3748 52.5V20.625H88.1248V63.4687ZM54.3748 46.2938V57.3563L50.081 53.0438C49.9067 52.868 49.6993 52.7285 49.4709 52.6333C49.2424 52.5381 48.9973 52.4891 48.7498 52.4891C48.5023 52.4891 48.2572 52.5381 48.0287 52.6333C47.8002 52.7285 47.5928 52.868 47.4185 53.0438L43.1248 57.3563V33.75H52.5935C52.5935 34.3687 52.4998 34.9875 52.4998 35.625C52.5029 39.2629 53.1373 42.8727 54.3748 46.2938ZM22.4998 33.75H39.3748V61.875C39.3766 62.2452 39.488 62.6065 39.6949 62.9135C39.9017 63.2205 40.1949 63.4593 40.5373 63.6C40.8787 63.7436 41.2551 63.7828 41.6188 63.7127C41.9825 63.6427 42.3174 63.4664 42.581 63.2062L48.7498 57.0187L54.9185 63.2062C55.0937 63.38 55.3015 63.5175 55.5299 63.6108C55.7584 63.7041 56.003 63.7514 56.2498 63.75C56.4957 63.7563 56.7397 63.705 56.9623 63.6C57.3047 63.4593 57.5978 63.2205 57.8047 62.9135C58.0115 62.6065 58.1229 62.2452 58.1248 61.875V53.6625C62.1962 59.5818 68.1396 63.9601 74.9998 66.0938V75H24.3748C23.7373 75 23.1185 75 22.4998 75V33.75ZM95.6248 78.75C100.1 78.75 104.393 80.5279 107.557 83.6926C110.722 86.8573 112.5 91.1495 112.5 95.625C112.5 100.101 110.722 104.393 107.557 107.557C104.393 110.722 100.1 112.5 95.6248 112.5H24.3748C19.8992 112.5 15.607 110.722 12.4423 107.557C9.27767 104.393 7.49977 100.101 7.49977 95.625C7.49977 91.1495 9.27767 86.8573 12.4423 83.6926C15.607 80.5279 19.8992 78.75 24.3748 78.75H78.7498V90C78.7508 91.214 79.0466 92.4096 79.6116 93.4841C80.1766 94.5585 80.994 95.4798 81.9935 96.1688C81.8905 96.5433 81.682 96.8803 81.3928 97.1397C81.1035 97.399 80.7458 97.5696 80.3623 97.6312C80.0957 97.6694 79.8406 97.7645 79.6141 97.9101C79.3876 98.0557 79.1951 98.2484 79.0498 98.475C78.9018 98.7026 78.8051 98.9597 78.7663 99.2284C78.7274 99.4971 78.7474 99.771 78.8248 100.031C79.1456 101.097 79.5597 102.132 80.0623 103.125C80.1875 103.367 80.3641 103.58 80.5798 103.747C80.7955 103.914 81.0451 104.032 81.3111 104.093C81.5771 104.153 81.8532 104.155 82.12 104.098C82.3869 104.041 82.638 103.927 82.856 103.762C83.2461 103.475 83.7261 103.338 84.2091 103.374C84.692 103.411 85.1459 103.619 85.4883 103.961C85.8308 104.304 86.0392 104.758 86.0757 105.241C86.1122 105.724 85.9744 106.204 85.6873 106.594C85.5333 106.805 85.4253 107.046 85.3701 107.302C85.3149 107.557 85.3137 107.822 85.3667 108.078C85.4196 108.334 85.5256 108.576 85.6777 108.788C85.8297 109.001 86.0246 109.18 86.2498 109.312C87.2186 109.811 88.2286 110.225 89.2685 110.55C89.5287 110.627 89.8027 110.647 90.0714 110.609C90.3401 110.57 90.5971 110.473 90.8248 110.325C91.0514 110.18 91.2441 109.987 91.3897 109.761C91.5353 109.534 91.6304 109.279 91.6685 109.012C91.735 108.528 91.9748 108.083 92.3436 107.761C92.7125 107.44 93.1853 107.262 93.6748 107.262C94.1642 107.262 94.6371 107.44 95.0059 107.761C95.3748 108.083 95.6146 108.528 95.681 109.012C95.7192 109.279 95.8143 109.534 95.9599 109.761C96.1055 109.987 96.2981 110.18 96.5248 110.325C96.8266 110.52 97.178 110.624 97.5373 110.625C97.7176 110.651 97.9007 110.651 98.081 110.625C99.1748 110.284 100.235 109.845 101.25 109.312C101.492 109.187 101.704 109.011 101.872 108.795C102.039 108.579 102.157 108.33 102.217 108.064C102.278 107.798 102.28 107.522 102.223 107.255C102.166 106.988 102.051 106.737 101.887 106.519C101.6 106.129 101.462 105.649 101.499 105.166C101.535 104.683 101.744 104.229 102.086 103.886C102.429 103.544 102.883 103.336 103.366 103.299C103.848 103.263 104.328 103.4 104.719 103.688C104.935 103.852 105.185 103.967 105.45 104.025C105.716 104.084 105.991 104.084 106.256 104.025C106.504 103.963 106.736 103.852 106.94 103.697C107.143 103.542 107.312 103.348 107.437 103.125C107.966 102.135 108.405 101.099 108.75 100.031C108.827 99.771 108.847 99.4971 108.808 99.2284C108.769 98.9597 108.673 98.7026 108.525 98.475C108.379 98.2484 108.187 98.0557 107.96 97.9101C107.734 97.7645 107.479 97.6694 107.212 97.6312C106.727 97.5648 106.283 97.325 105.961 96.9561C105.639 96.5873 105.462 96.1144 105.462 95.625C105.462 95.1356 105.639 94.6627 105.961 94.2939C106.283 93.925 106.727 93.6852 107.212 93.6188C107.479 93.5806 107.734 93.4855 107.96 93.3399C108.187 93.1943 108.379 93.0016 108.525 92.775C108.673 92.5474 108.769 92.2903 108.808 92.0216C108.847 91.7529 108.827 91.479 108.75 91.2188C108.405 90.1506 107.966 89.1153 107.437 88.125C107.312 87.8826 107.135 87.6704 106.92 87.5032C106.704 87.3361 106.454 87.2181 106.188 87.1574C105.922 87.0967 105.646 87.0948 105.38 87.1518C105.113 87.2088 104.862 87.3234 104.644 87.4875C104.253 87.7746 103.773 87.9124 103.29 87.8759C102.808 87.8394 102.354 87.631 102.011 87.2886C101.669 86.9461 101.46 86.4922 101.424 86.0093C101.387 85.5263 101.525 85.0463 101.812 84.6562C101.966 84.4449 102.074 84.2038 102.129 83.9482C102.185 83.6926 102.186 83.4284 102.133 83.1724C102.08 82.9163 101.974 82.6742 101.822 82.4616C101.67 82.2489 101.475 82.0704 101.25 81.9375C100.259 81.4092 99.2241 80.97 98.156 80.625C97.8958 80.5476 97.6219 80.5276 97.3532 80.5665C97.0845 80.6053 96.8274 80.7021 96.5998 80.85C96.3731 80.9954 96.1805 81.1878 96.0349 81.4143C95.8893 81.6408 95.7942 81.896 95.756 82.1625C95.6809 82.6431 95.4384 83.0816 95.0713 83.4007C94.7042 83.7197 94.2361 83.8988 93.7498 83.9062V78.75H95.6248ZM93.7498 93.75C94.1206 93.75 94.4831 93.86 94.7915 94.066C95.0998 94.272 95.3401 94.5649 95.482 94.9075C95.624 95.2501 95.6611 95.6271 95.5887 95.9908C95.5164 96.3545 95.3378 96.6886 95.0756 96.9508C94.8134 97.2131 94.4793 97.3916 94.1156 97.464C93.7519 97.5363 93.3749 97.4992 93.0322 97.3573C92.6896 97.2154 92.3968 96.975 92.1908 96.6667C91.9847 96.3584 91.8748 95.9958 91.8748 95.625C91.8748 95.1277 92.0723 94.6508 92.424 94.2992C92.7756 93.9475 93.2525 93.75 93.7498 93.75ZM88.3685 97.1625C88.6549 98.1701 89.2169 99.0778 89.9913 99.7832C90.7657 100.489 91.7217 100.964 92.7516 101.155C93.7815 101.347 94.8444 101.247 95.8205 100.866C96.7967 100.486 97.6472 99.8412 98.2765 99.0037C98.9057 98.1662 99.2886 97.1696 99.3819 96.1262C99.4753 95.0829 99.2754 94.0342 98.8049 93.0983C98.3344 92.1623 97.6118 91.3764 96.7187 90.829C95.8255 90.2816 94.7973 89.9945 93.7498 90V87.7313C95.1893 87.7425 96.5807 87.214 97.6498 86.25C97.7188 87.6682 98.3216 89.0078 99.3373 90C100.357 91.0332 101.73 91.6426 103.181 91.7063C102.173 92.7542 101.609 94.152 101.609 95.6063C101.609 97.0605 102.173 98.4583 103.181 99.5062C101.763 99.5753 100.423 100.178 99.431 101.194C98.3788 102.193 97.7426 103.552 97.6498 105C96.6018 103.992 95.204 103.428 93.7498 103.428C92.2955 103.428 90.8977 103.992 89.8498 105C89.7807 103.582 89.1779 102.242 88.1623 101.25C87.1591 100.223 85.8082 99.6075 84.3748 99.525C84.8997 98.9387 85.2957 98.2489 85.5373 97.5H86.2498C86.968 97.4837 87.6808 97.3702 88.3685 97.1625ZM89.9998 90C89.9998 90.9946 89.6047 91.9484 88.9014 92.6517C88.1982 93.3549 87.2443 93.75 86.2498 93.75C85.2552 93.75 84.3014 93.3549 83.5981 92.6517C82.8949 91.9484 82.4998 90.9946 82.4998 90V75H89.9998V90ZM84.3748 71.25H80.6248C80.1275 71.25 79.6506 71.4475 79.299 71.7992C78.9473 72.1508 78.7498 72.6277 78.7498 73.125V66.975C80.6061 67.312 82.4881 67.4877 84.3748 67.5V71.25ZM91.8748 62.7V18.75C91.8748 18.2527 91.6772 17.7758 91.3256 17.4242C90.974 17.0725 90.4971 16.875 89.9998 16.875H63.4685C66.3781 13.6025 70.0116 11.0545 74.0797 9.43408C78.1478 7.81365 82.5381 7.16551 86.9009 7.54129C91.2637 7.91706 95.4785 9.30637 99.2095 11.5985C102.941 13.8907 106.085 17.0225 108.392 20.7443C110.699 24.4662 112.105 28.6754 112.499 33.0366C112.892 37.3979 112.261 41.7907 110.657 45.8653C109.053 49.9398 106.52 53.5836 103.259 56.5062C99.9982 59.4289 96.1 61.5498 91.8748 62.7Z" fill="black"/>
<path d="M52.5 3.75H56.25V7.5H52.5V3.75Z" fill="black"/>
<path d="M52.5 11.25H56.25V15H52.5V11.25Z" fill="black"/>
<path d="M56.25 7.5H60V11.25H56.25V7.5Z" fill="black"/>
<path d="M48.75 7.5H52.5V11.25H48.75V7.5Z" fill="black"/>
<path d="M108.75 60H112.5V63.75H108.75V60Z" fill="black"/>
<path d="M108.75 67.5H112.5V71.25H108.75V67.5Z" fill="black"/>
<path d="M112.5 63.75H116.25V67.5H112.5V63.75Z" fill="black"/>
<path d="M105 63.75H108.75V67.5H105V63.75Z" fill="black"/>
<path d="M76.875 105H80.625V108.75H76.875V105Z" fill="black"/>
</svg>
