<svg width="120" height="120" viewBox="0 0 120 120" fill="none" xmlns="http://www.w3.org/2000/svg">
<path d="M105.456 36.5756C104.817 36.5756 104.222 36.2487 103.878 35.7097C103.432 35.0097 102.839 34.1244 102.151 33.0975C97.5463 26.2195 93.4097 19.7219 93.4097 15.778C93.4097 9.12191 98.8243 3.70972 105.478 3.70972C112.132 3.70972 117.546 9.12435 117.546 15.778C117.546 19.6365 113.446 26.0853 108.88 32.9122C108.154 34 107.524 34.939 107.034 35.7073C106.69 36.2487 106.095 36.5756 105.456 36.5756ZM105.478 7.45606C100.888 7.45606 97.156 11.1902 97.156 15.778C97.156 18.9073 102.429 26.7829 105.263 31.0122C105.329 31.1097 105.393 31.2048 105.456 31.2975C105.558 31.1439 105.663 30.9878 105.768 30.8292C108.576 26.6317 113.802 18.817 113.802 15.778C113.8 11.1902 110.066 7.45606 105.478 7.45606Z" fill="black"/>
<path d="M105.478 21.7195C102.202 21.7195 99.5391 19.0536 99.5391 15.7805C99.5391 12.5073 102.202 9.84143 105.478 9.84143C108.754 9.84143 111.417 12.5073 111.417 15.7805C111.417 19.0536 108.751 21.7195 105.478 21.7195ZM105.478 13.5853C104.268 13.5853 103.285 14.5683 103.285 15.778C103.285 16.9878 104.271 17.9707 105.478 17.9707C106.685 17.9707 107.671 16.9878 107.671 15.778C107.671 14.5683 106.688 13.5853 105.478 13.5853Z" fill="black"/>
<path d="M14.6269 36.5756C13.9879 36.5756 13.3928 36.2487 13.0489 35.7097C12.6025 35.0097 12.0098 34.1244 11.322 33.0975C6.71471 26.2195 2.58057 19.7195 2.58057 15.778C2.58057 9.12191 7.9952 3.70972 14.6489 3.70972C21.3025 3.70972 26.7171 9.12435 26.7171 15.778C26.7171 19.6365 22.6171 26.0853 18.0513 32.9122C17.3245 34 16.6952 34.939 16.205 35.7097C15.8635 36.2487 15.2684 36.5756 14.6269 36.5756ZM14.6489 7.45606C10.0586 7.45606 6.32691 11.1902 6.32691 15.778C6.32691 18.9073 11.6001 26.7829 14.4342 31.0122C14.5001 31.1097 14.5635 31.2048 14.6269 31.2975C14.7293 31.1439 14.8342 30.9878 14.9415 30.8292C17.7489 26.6317 22.9757 18.8195 22.9757 15.778C22.9732 11.1902 19.2391 7.45606 14.6489 7.45606Z" fill="black"/>
<path d="M14.649 21.7195C11.3734 21.7195 8.70996 19.0536 8.70996 15.7805C8.70996 12.5073 11.3758 9.84143 14.649 9.84143C17.9222 9.84143 20.588 12.5073 20.588 15.7805C20.588 19.0536 17.9246 21.7195 14.649 21.7195ZM14.649 13.5853C13.4392 13.5853 12.4563 14.5683 12.4563 15.778C12.4563 16.9878 13.4392 17.9707 14.649 17.9707C15.8587 17.9707 16.8417 16.9878 16.8417 15.778C16.8417 14.5683 15.8587 13.5853 14.649 13.5853Z" fill="black"/>
<path d="M105.456 116.651C104.817 116.651 104.222 116.324 103.878 115.785C103.432 115.085 102.839 114.2 102.151 113.173C97.5463 106.295 93.4097 99.795 93.4097 95.8536C93.4097 89.1975 98.8243 83.7853 105.478 83.7853C112.132 83.7853 117.546 89.1999 117.546 95.8536C117.546 99.7121 113.449 106.161 108.88 112.988C108.154 114.076 107.524 115.015 107.034 115.785C106.69 116.324 106.095 116.651 105.456 116.651ZM105.478 87.5316C100.888 87.5316 97.156 91.2658 97.156 95.8536C97.156 98.9828 102.429 106.858 105.263 111.088C105.327 111.185 105.393 111.28 105.456 111.373C105.558 111.219 105.663 111.063 105.771 110.905C108.578 106.707 113.805 98.895 113.805 95.8536C113.8 91.2658 110.066 87.5316 105.478 87.5316Z" fill="black"/>
<path d="M105.478 101.795C102.202 101.795 99.5391 99.1316 99.5391 95.856C99.5391 92.5804 102.202 89.917 105.478 89.917C108.754 89.917 111.417 92.5804 111.417 95.856C111.417 99.1316 108.751 101.795 105.478 101.795ZM105.478 93.6609C104.268 93.6609 103.285 94.6463 103.285 95.8536C103.285 97.0609 104.271 98.0463 105.478 98.0463C106.685 98.0463 107.671 97.0609 107.671 95.8536C107.671 94.6463 106.688 93.6609 105.478 93.6609Z" fill="black"/>
<path d="M14.6269 116.651C13.9879 116.651 13.3928 116.324 13.0489 115.785C12.6025 115.085 12.0098 114.2 11.322 113.173C6.71471 106.295 2.58057 99.795 2.58057 95.8536C2.58057 89.1975 7.9952 83.7853 14.6489 83.7853C21.3025 83.7853 26.7171 89.1999 26.7171 95.8536C26.7171 99.7121 22.6196 106.158 18.0513 112.988C17.3245 114.076 16.6952 115.017 16.205 115.785C15.8635 116.324 15.2684 116.651 14.6269 116.651ZM14.6489 87.5316C10.0586 87.5316 6.32691 91.2658 6.32691 95.8536C6.32691 98.9828 11.6001 106.858 14.4342 111.088C14.5001 111.185 14.5635 111.28 14.6269 111.373C14.7293 111.219 14.8342 111.063 14.9415 110.902C17.7489 106.705 22.9732 98.8926 22.9732 95.8511C22.9732 91.2658 19.2391 87.5316 14.6489 87.5316Z" fill="black"/>
<path d="M14.649 101.795C11.3734 101.795 8.70996 99.1316 8.70996 95.856C8.70996 92.5804 11.3758 89.917 14.649 89.917C17.9222 89.917 20.5904 92.5804 20.5904 95.8536C20.5904 99.1267 17.9246 101.795 14.649 101.795ZM14.649 93.6609C13.4392 93.6609 12.4563 94.6463 12.4563 95.8536C12.4563 97.0609 13.4392 98.0487 14.649 98.0487C15.8587 98.0487 16.8417 97.0633 16.8417 95.856C16.8417 94.6487 15.8587 93.6609 14.649 93.6609Z" fill="black"/>
<path d="M76.1294 77.7121H43.9977C42.9635 77.7121 42.1245 76.8731 42.1245 75.8389V44.5219C42.1245 43.4877 42.9635 42.6487 43.9977 42.6487H76.1294C77.1635 42.6487 78.0026 43.4877 78.0026 44.5219V75.8389C78.0026 76.8731 77.1635 77.7121 76.1294 77.7121ZM45.8709 73.9658H74.2562V46.395H45.8709V73.9658Z" fill="black"/>
<path d="M64.8321 56.895H55.2931C54.2589 56.895 53.4199 56.056 53.4199 55.0219V44.5219C53.4199 43.4877 54.2589 42.6487 55.2931 42.6487C56.3272 42.6487 57.1663 43.4877 57.1663 44.5219V53.1487H62.9589V44.5219C62.9589 43.4877 63.798 42.6487 64.8321 42.6487C65.8663 42.6487 66.7053 43.4877 66.7053 44.5219V55.0219C66.7053 56.056 65.8663 56.895 64.8321 56.895Z" fill="black"/>
<path d="M54.1102 63.8048H50.337C49.3029 63.8048 48.4639 62.9658 48.4639 61.9316C48.4639 60.8975 49.3029 60.0585 50.337 60.0585H54.1102C55.1444 60.0585 55.9834 60.8975 55.9834 61.9316C55.9834 62.9658 55.1444 63.8048 54.1102 63.8048Z" fill="black"/>
<path d="M54.1102 70.4219H50.337C49.3029 70.4219 48.4639 69.5829 48.4639 68.5487C48.4639 67.5146 49.3029 66.6755 50.337 66.6755H54.1102C55.1444 66.6755 55.9834 67.5146 55.9834 68.5487C55.9834 69.5829 55.1444 70.4219 54.1102 70.4219Z" fill="black"/>
<path d="M60.0637 91.9292C42.5588 91.9292 28.3149 77.6877 28.3149 60.1804C28.3149 42.6755 42.5564 28.4316 60.0637 28.4316C77.5686 28.4316 91.8125 42.6731 91.8125 60.1804C91.8125 77.6853 77.571 91.9292 60.0637 91.9292ZM60.0637 32.178C44.6223 32.178 32.0613 44.739 32.0613 60.1804C32.0613 75.6194 44.6223 88.1829 60.0637 88.1829C75.5052 88.1829 88.0662 75.6219 88.0662 60.1804C88.0662 44.739 75.5052 32.178 60.0637 32.178Z" fill="black"/>
<path d="M60.0636 32.178C59.0295 32.178 58.1904 31.3389 58.1904 30.3048V15.778C58.1904 14.7438 59.0295 13.9048 60.0636 13.9048C61.0977 13.9048 61.9368 14.7438 61.9368 15.778V30.3048C61.9368 31.3389 61.0977 32.178 60.0636 32.178Z" fill="black"/>
<path d="M95.2805 17.6511H24.8463C23.8122 17.6511 22.9731 16.8121 22.9731 15.778C22.9731 14.7438 23.8122 13.9048 24.8463 13.9048H95.2829C96.317 13.9048 97.1561 14.7438 97.1561 15.778C97.1561 16.8121 96.3146 17.6511 95.2805 17.6511Z" fill="black"/>
<path d="M60.0636 106.312C59.0295 106.312 58.1904 105.473 58.1904 104.439V90.056C58.1904 89.0219 59.0295 88.1829 60.0636 88.1829C61.0977 88.1829 61.9368 89.0219 61.9368 90.056V104.439C61.9368 105.473 61.0977 106.312 60.0636 106.312Z" fill="black"/>
<path d="M98.7805 106.312H21.3463C20.3122 106.312 19.4731 105.473 19.4731 104.439C19.4731 103.405 20.3122 102.566 21.3463 102.566H98.7805C99.8146 102.566 100.654 103.405 100.654 104.439C100.654 105.473 99.8146 106.312 98.7805 106.312Z" fill="black"/>
</svg>
